<svg xmlns="http://www.w3.org/2000/svg" width="566.746" height="69.5" viewBox="0 0 566.746 69.5"><defs><style>.a,.b{fill:#fa7221;}.b{fill-rule:evenodd;}.c{fill:none;stroke:#fa7221;stroke-width:2px;}</style></defs><g transform="translate(-435.898 -676)"><g transform="translate(608.956 676)"><path class="a" d="M199.647,10.772a1.693,1.693,0,0,1,.315.945v.078a10.825,10.825,0,0,1-.315,1.5c-.1.368-.235.761-.393,1.18q-.394.945-.944,2.126-.945,1.81-2.282,4.014-2.046,3.463-4.721,7.161-.708,1.576-1.024,2.36-1.417,3.306-2.518,6.139-2.6,6.531-4.565,12.669a61.4,61.4,0,0,0-1.889,6.375q-.079.549-.236,1.18a.234.234,0,0,0,.079-.156,14.452,14.452,0,0,0,.786-1.653.941.941,0,0,1,1.339-.668q.945.353.55,1.377a.458.458,0,0,1-.157.315,8.6,8.6,0,0,0-1.18,1.495,11.1,11.1,0,0,0-.866,1.574,9.022,9.022,0,0,0-.786,1.652,3.33,3.33,0,0,0-.158.865v.472a.776.776,0,0,1-.156.394l-.079.315-.079.156a1.353,1.353,0,0,1-.708.669,1.085,1.085,0,0,1-.945-.04.943.943,0,0,1-.629-.63l-.394-.708a9.328,9.328,0,0,1,.079-1.18,14615.866,14615.866,0,0,1,.156-.944q.079-.4.394-1.732.392-1.576.945-3.3.785-2.834,1.967-6.454,1.81-5.588,4.485-12.748.079-.159.2-.473a4.674,4.674,0,0,1,.2-.471c-.054,0-.146.1-.276.315a2.79,2.79,0,0,1-.353.471q-1.812,2.2-2.913,3.462-1.651,1.891-3.147,3.306a33.238,33.238,0,0,1-3.541,3.069,4.764,4.764,0,0,1-1.181.551,3.12,3.12,0,0,1-1.495.237,1.666,1.666,0,0,1-.866-.237,2.715,2.715,0,0,1-.708-.63,3.572,3.572,0,0,1-.63-1.574,7.136,7.136,0,0,1,.237-2.676,13.252,13.252,0,0,1,.786-2.282,20.61,20.61,0,0,1,2.361-4.092,32.3,32.3,0,0,1,2.991-3.62,20.9,20.9,0,0,1,3.541-3.148,10.7,10.7,0,0,1,2.125-1.259,5.912,5.912,0,0,1,1.417-.394,2.442,2.442,0,0,1,.865,0,1.977,1.977,0,0,1,.866.237,2.567,2.567,0,0,1,1.259,1.1,4.253,4.253,0,0,1,.55,1.338.9.9,0,0,1,.079.394,2.774,2.774,0,0,1,.393-.63q1.258-3.147,2.283-5.588,1.809-4.091,2.832-6.217.864-1.809,1.574-3.069.549-.864.945-1.5a5.069,5.069,0,0,1,.63-.786,5.006,5.006,0,0,1,.314-.393,7.237,7.237,0,0,1,.551-.472,1.326,1.326,0,0,1,1.062-.315,1.5,1.5,0,0,1,.983.55M184.3,34.46q1.1-1.415,2.282-3.147v-.157a5.114,5.114,0,0,0-.315-1.889c-.156-.261-.288-.472-.393-.63a.682.682,0,0,0-.473-.236.607.607,0,0,0-.234-.079.454.454,0,0,1-.315.079,2.682,2.682,0,0,0-.709.315A8.745,8.745,0,0,0,182.57,29.9a32.237,32.237,0,0,0-3.069,2.99q-1.338,1.574-2.675,3.384-1.417,1.966-2.361,3.541-.549,1.022-.945,1.889a5.007,5.007,0,0,0-.393,1.731,1.778,1.778,0,0,0,.078.55c.054.051.106.1.157.157,0,.052.052.079.157.079a1.286,1.286,0,0,0,.63,0,7.215,7.215,0,0,0,.944-.394,15.808,15.808,0,0,0,3.384-2.6q1.417-1.34,3.069-3.225,1.573-1.889,2.754-3.542m-6.06,26.364v-.078l-.156-.078v.078c0,.1.05.131.156.078" transform="translate(-170.957 -2.707)"/><path class="a" d="M210.585,33.332a.6.6,0,0,1-.079.983,8.075,8.075,0,0,1-3.3,1.574,9.9,9.9,0,0,1-3.542.157,12.345,12.345,0,0,1-1.73-.315l-.079-.078a.46.46,0,0,1-.078.315q-.159,1.1-.315,1.809a8.618,8.618,0,0,1-.708,1.653A11.812,11.812,0,0,1,198.86,42.5a5.456,5.456,0,0,1-1.339,1.338,4.945,4.945,0,0,1-2.046.866,5.242,5.242,0,0,1-1.258,0l-.238-.079a.71.71,0,0,1-.315-.079,2.745,2.745,0,0,0-.393-.156.969.969,0,0,1-.237-.158,4.044,4.044,0,0,1-1.573-1.888,11.794,11.794,0,0,1-.473-2.046,8.469,8.469,0,0,1,.08-1.967,3.327,3.327,0,0,1,.157-.866,3.551,3.551,0,0,1,.156-.943,14.726,14.726,0,0,1,.473-1.732,18.67,18.67,0,0,1,3.62-6.3,16.249,16.249,0,0,1,1.338-1.338,7.985,7.985,0,0,1,1.732-1.1,9.5,9.5,0,0,1,1.1-.394,3.725,3.725,0,0,1,.709-.078h.55a1.274,1.274,0,0,0,.4.078,2.177,2.177,0,0,1,1.023.787,2.821,2.821,0,0,1,.471.866c.052.21.1.421.158.63v.708a1.494,1.494,0,0,1-.434,1.023,1.172,1.172,0,0,1-1.062.394,1.38,1.38,0,0,1-1.495-1.259v.079h-.078a5.03,5.03,0,0,0-1.023.708,9.332,9.332,0,0,0-1.025,1.023,16.014,16.014,0,0,0-3.067,5.194q-.239.787-.4,1.418c-.155.629-.261,1.127-.313,1.495a5.776,5.776,0,0,0-.159,1.416,4.236,4.236,0,0,0,.159,1.18,1.819,1.819,0,0,0,.393.787q.154.236.786.237a2.1,2.1,0,0,0,1.023-.315q.551-.394,1.1-.866a13.9,13.9,0,0,0,1.652-2.519,14.293,14.293,0,0,0,.63-1.415,6.731,6.731,0,0,0,.394-1.5,4.987,4.987,0,0,0,.079-.945,4.274,4.274,0,0,1-1.1-1.573,3.884,3.884,0,0,1-.393-1.968,5.507,5.507,0,0,1,.157-.63.478.478,0,0,0,.118-.2.5.5,0,0,1,.118-.2,1.184,1.184,0,0,1,.551-.315.893.893,0,0,1,.63-.079,3.078,3.078,0,0,0,.393.157,1.6,1.6,0,0,1,.551.472,2.681,2.681,0,0,1,.472,1.023,4.122,4.122,0,0,1,.236.944c.052.578.079,1.154.079,1.732l.078.079.316.078q.785.236,1.495.394a10.453,10.453,0,0,0,3.148-.157,5.783,5.783,0,0,0,2.675-1.259.578.578,0,0,1,.944.04m-10.7-5v0Z" transform="translate(-169.539 -1.617)"/><path class="a" d="M233.225,33.456a.562.562,0,0,1-.55.708h-.157a2.646,2.646,0,0,0-.709.315,4.367,4.367,0,0,0-.864.393,13.087,13.087,0,0,0-1.733.866q-1.732.945-3.384,2.045a73.636,73.636,0,0,0-6.453,4.564c-.21.158-.551.42-1.023.787q-.553,1.889-1.023,3.385-1.417,4.562-2.6,7.633-1.576,4.327-3.069,7.477-.945,1.966-1.967,3.7a12.412,12.412,0,0,1-1.1,1.731c0,.052-.09.183-.274.393s-.328.367-.434.473q-.548.707-.708.865a6.524,6.524,0,0,1-2.046,1.417,4.5,4.5,0,0,1-2.675.394,3.461,3.461,0,0,1-2.519-1.417,4.084,4.084,0,0,1-.865-2.6v-.552a.712.712,0,0,1,.078-.315v-.237l.237-1.1.237-1.024a2.459,2.459,0,0,1,.156-.552l.157-.471a1.73,1.73,0,0,1,.157-.433c.106-.237.184-.434.237-.59l.393-.944.237-.472.236-.472.472-.865a43.374,43.374,0,0,1,4.8-6.612q2.44-2.676,5.744-5.666,1.338-1.181,2.833-2.439,1.1-3.227,1.81-5.745c.1-.263.288-.838.552-1.731s.471-1.6.63-2.126a13.169,13.169,0,0,0,.393-1.259c-.262.264-.525.526-.786.788q-.472.549-1.378,1.533t-1.3,1.378a26.007,26.007,0,0,1-3.07,2.832,7.558,7.558,0,0,1-1.023.629c-.263.1-.472.184-.63.237a2.024,2.024,0,0,1-2.518-1.18,2.651,2.651,0,0,1-.158-1.574,8.017,8.017,0,0,1,.63-2.282,13.16,13.16,0,0,1,.945-1.967,20.613,20.613,0,0,1,2.439-3.384,20.243,20.243,0,0,1,1.5-1.495,14.117,14.117,0,0,1,1.889-1.339,3.771,3.771,0,0,1,1.258-.471,1.3,1.3,0,0,0,.394-.079h.472a2.094,2.094,0,0,1,1.1.472,2.228,2.228,0,0,1,.552.865,4.437,4.437,0,0,1,.078.866,3.152,3.152,0,0,1-.393,1.18.621.621,0,0,1-.945.315.68.68,0,0,1-.315-.55v-.079a5.251,5.251,0,0,0-.156-.787c-.054-.1-.106-.156-.158-.156v.078c0,.052.052.106.158.156l-.08.08a3.78,3.78,0,0,0-.549.393c-.315.262-.737.656-1.259,1.18q-.708.708-1.26,1.338-.707.867-1.179,1.5-.944,1.179-1.181,1.495a8.812,8.812,0,0,0-.944,1.495,7.09,7.09,0,0,0-.708,1.495v.393a.23.23,0,0,0,.157-.078,1.876,1.876,0,0,0,.787-.393,24.106,24.106,0,0,0,2.912-2.361q1.258-1.259,2.754-2.834l1.416-1.495c.42-.471.656-.735.709-.786.21-.158.394-.288.55-.394a4.168,4.168,0,0,1,.394-.236h.237a.316.316,0,0,1,.236-.079,3.376,3.376,0,0,1,.394.157,1.015,1.015,0,0,1,.393.237,1.262,1.262,0,0,1,.237.315.315.315,0,0,0,.078.236v.787l-.078.55-.158,1.023q-.157,1.023-.393,1.968-.236,1.1-.945,3.855-.315,1.022-.55,2.047,3.07-2.284,6.138-4.171,1.651-1.1,3.384-2.126,1.022-.551,1.811-.944a6.994,6.994,0,0,0,.943-.393,3.067,3.067,0,0,1,1.18-.315c.42-.1.682.078.787.551m-24.4,26.914q2.44-5.354,5.273-13.694a60.113,60.113,0,0,0-6.3,6.453,38.281,38.281,0,0,0-4.486,6.3l-.394.865-.236.472-.157.393-.393.945a6.5,6.5,0,0,1-.315.866l-.079.471a.325.325,0,0,0-.078.237l-.079.158-.157.943-.078.944-.079.157v.63a2.2,2.2,0,0,0,.551,1.1,1.167,1.167,0,0,0,.865.433,1.968,1.968,0,0,0,1.18-.354,4.244,4.244,0,0,0,1.181-.945l.55-.63a3.7,3.7,0,0,1,.275-.433c.132-.184.224-.275.276-.275q.551-.945.945-1.652a29.187,29.187,0,0,0,1.731-3.384m.945-22.036h0Z" transform="translate(-168.965 -1.544)"/><path class="a" d="M263.255,33.782a.621.621,0,0,1-.354.906.8.8,0,0,0-.315.156l-.315.158-.63.393-1.259.865-2.6,1.574q-2.912,1.887-5.194,3.3a7.285,7.285,0,0,1-.394,3.148,11.118,11.118,0,0,1-2.282,3.541,9.393,9.393,0,0,1-3.62,2.2,7.227,7.227,0,0,1-2.283.237,4.524,4.524,0,0,1-2.164-.906,4.683,4.683,0,0,1-1.455-1.77,2.674,2.674,0,0,1-.315-1.181,3.3,3.3,0,0,1,.078-.786,1.257,1.257,0,0,1,.552-.708.845.845,0,0,1,.63-.237,4.605,4.605,0,0,0,.549-.04,5.336,5.336,0,0,0,.63-.118,8.183,8.183,0,0,0,1.339-.55,29.046,29.046,0,0,0,2.675-1.26q1.338-.63,2.913-1.573v-.315l-.079-.157a2.006,2.006,0,0,0-.63-1.023,10.766,10.766,0,0,0-1.1-1.1q-2.6-2.2-2.833-2.518a9.43,9.43,0,0,1-1.339-1.811,5.274,5.274,0,0,1-.393-1.18,3.625,3.625,0,0,1-.078-1.338,5.558,5.558,0,0,1,.471-2.2,7.331,7.331,0,0,1,1.1-1.81,15.517,15.517,0,0,1,2.755-2.834,22.72,22.72,0,0,1,3.225-2.125,12.232,12.232,0,0,1,3.857-1.259,1.22,1.22,0,0,1,.747.078,1.484,1.484,0,0,1,.59.473,1.742,1.742,0,0,1,.315.708v.393a.708.708,0,0,1-.078.315l-.079.157a1.37,1.37,0,0,0-.158.394c-.054.1-.156.288-.315.55q-.08.079-.63.944l-1.259,1.889q-.63.945-1.1,1.81-.315.551-.55.945c-.052.156-.106.315-.157.471a.613.613,0,0,0-.078.237.07.07,0,0,0-.079.078c0,.421-.223.63-.669.63s-.669-.236-.669-.708a3.268,3.268,0,0,0,.158-.393.688.688,0,0,1,.078-.315,4.051,4.051,0,0,1,.237-.551l.471-1.023q.472-1.181.866-2.046.236-.628.472-1.338c-.21.106-.421.21-.63.315a14.6,14.6,0,0,0-2.676,1.731,12.779,12.779,0,0,0-2.2,2.283,3.779,3.779,0,0,0-1.023,2.282v.157a1.869,1.869,0,0,0,.235.9,5.073,5.073,0,0,0,.866,1.062q.157.157,2.6,2.282.866.785,1.495,1.417c.262.366.473.681.63.945a3.661,3.661,0,0,1,.473,1.023q2.2-1.338,4.8-2.911l2.6-1.574,1.259-.788.708-.393.315-.236a3.961,3.961,0,0,1,.393-.237.64.64,0,0,1,.906.354m-13.97,9.483v-.237q-1.1.63-1.967,1.1-1.576.864-2.834,1.417c-.577.208-1.075.393-1.495.549q-.394.079-.866.158a.458.458,0,0,1-.315.078,2.04,2.04,0,0,0,.237.473,2.179,2.179,0,0,0,.945.864,1.625,1.625,0,0,0,1.18.315,3.18,3.18,0,0,0,1.259-.315,9.292,9.292,0,0,0,3.856-4.407M242.99,31.7a.069.069,0,0,1-.078.078ZM253.062,22.8l.079.078V22.8Z" transform="translate(-166.059 -1.911)"/><path class="a" d="M291.773,14a1.477,1.477,0,0,1,1.495,1.495,1.582,1.582,0,0,1-.433,1.1,1.169,1.169,0,0,1-1.062.393H291.7q-1.025,0-4.88-.078h-4.958l-9.837-.079h-.787q-.708,1.338-.944,1.888-2.678,5.431-5.117,11.176-2.519,6.139-4.407,11.49-1.022,2.989-1.732,5.507a.888.888,0,0,1,.945-.078.82.82,0,0,1,.236,1.181,12.441,12.441,0,0,0-.708,1.338,7.121,7.121,0,0,0-.63,1.258q-.156.472-1.1,2.834a.88.88,0,0,1-1.259.63,1.011,1.011,0,0,1-.63-.945,14.332,14.332,0,0,1,.315-3.3l.158-.787.156-.787q.08-.236.394-1.495.631-2.676,1.732-6.06,1.81-5.51,4.249-11.726,2.361-5.9,4.88-11.41l.393-.788h-8.579v.158a1.433,1.433,0,0,1-.55.747.914.914,0,0,1-.865.117h-.079a5.65,5.65,0,0,0-.63-.156l-.708-.078-1.574-.237q-1.5-.238-3.069-.551a.932.932,0,0,1-.787-1.18.877.877,0,0,1,.944-.787q.631-.077,2.519-.157h2.439l4.958-.157,7.162-.157q.628-1.336,1.258-2.439a47.106,47.106,0,0,1,3.3-5.43,1.209,1.209,0,0,1,.945-.63A1.606,1.606,0,0,1,276,6.087a1.354,1.354,0,0,1,.589.984,1.58,1.58,0,0,1-.236,1.1h-.079v.079a36.031,36.031,0,0,0-3.147,5.036,1.724,1.724,0,0,0-.315.511q-.159.355-.237.512l9.287-.157,4.958-.079Q290.749,14,291.773,14" transform="translate(-165.264 -3.019)"/><path class="a" d="M281.311,33.269a.545.545,0,0,1,.079.866q-.472.63-1.338,1.574-.633.628-1.418,1.417-1.415,1.415-2.911,2.754-1.577,1.494-2.991,2.675-.867.708-1.574,1.26a15,15,0,0,1-1.732,1.179,2.033,2.033,0,0,1-.55.315,3.019,3.019,0,0,1-.631.237h-.235a.712.712,0,0,1-.315.078,1.3,1.3,0,0,0-.4-.078,1.432,1.432,0,0,1-.315-.078,2.045,2.045,0,0,1-.786-.709,3.58,3.58,0,0,1-.552-1.495A11.808,11.808,0,0,1,265.729,42a19.136,19.136,0,0,1,1.024-4.093q.551-1.494,1.416-3.462a.475.475,0,0,1-.315-.315,1,1,0,0,1,.158-1.18l.078-.079c.1-.1.263-.261.471-.471q.394-.63.473-.787a16.357,16.357,0,0,1,1.258-1.574l.079-.078a1.377,1.377,0,0,1,1.1-.315,1.524,1.524,0,0,1,1.023.55,1.369,1.369,0,0,1,.157,1.652c-.052.106-.132.251-.236.434a3.858,3.858,0,0,0-.237.471,2.361,2.361,0,0,1-.237.433,3.737,3.737,0,0,0-.234.393q-.472,1.023-.866,1.733a38.974,38.974,0,0,0-1.652,3.541,12.677,12.677,0,0,0-1.1,3.462,5.059,5.059,0,0,0-.078.787v.157a.777.777,0,0,0,.393-.157,15.8,15.8,0,0,0,1.573-.944c.473-.315,1-.682,1.574-1.1q1.417-1.1,3.069-2.439,1.494-1.34,2.912-2.6.785-.708,1.5-1.338.866-.867,1.339-1.338v-.08q.392-.471.943,0M272.5,28.784a1.442,1.442,0,0,1-.786-.787,1.522,1.522,0,0,1,0-1.18,20.819,20.819,0,0,1,1.416-2.518,1.379,1.379,0,0,1,.945-.591,1.563,1.563,0,0,1,1.14.2,1.347,1.347,0,0,1,.63.945,1.485,1.485,0,0,1-.275,1.181,10.756,10.756,0,0,0-1.1,1.967,1.4,1.4,0,0,1-1.968.787" transform="translate(-164.246 -1.752)"/><path class="a" d="M295.248,32.961a.619.619,0,0,1,.591.787c-.054.157-.132.366-.237.63a1.99,1.99,0,0,1-.237.472,3.177,3.177,0,0,1-.471.787,14.583,14.583,0,0,1-1.1,1.574q-1.1,1.492-2.36,2.911a45.314,45.314,0,0,1-5.353,5.273,26.385,26.385,0,0,1-3.225,2.125,11.072,11.072,0,0,1-1.967.787,4.941,4.941,0,0,1-2.283.236,3.92,3.92,0,0,1-1.259-.393,1.809,1.809,0,0,1-.63-.315l-.236-.157-.157-.157-.157-.157a2.606,2.606,0,0,1-.787-1.259,4.346,4.346,0,0,1-.315-1.18,7.822,7.822,0,0,1,0-2.2q.079-1.023.237-1.967a24.458,24.458,0,0,1,1.18-3.777,18.517,18.517,0,0,1,.709-1.81,16.143,16.143,0,0,1,.864-1.652,25.139,25.139,0,0,1,2.047-3.306,17.3,17.3,0,0,1,2.754-2.991,5.727,5.727,0,0,1,1.967-1.1,3.648,3.648,0,0,1,2.676-.078,2.6,2.6,0,0,1,.747.472,1.793,1.793,0,0,1,.512.787,2.669,2.669,0,0,1,.314,1.338,8.17,8.17,0,0,1-.472,2.125,15.85,15.85,0,0,1-1.889,3.463,9.278,9.278,0,0,1-1.338,1.495,5.707,5.707,0,0,1-1.652,1.181.622.622,0,0,1-.943-.315.555.555,0,0,1,.234-.787l.079-.079a7.182,7.182,0,0,0,2.126-2.439,13.2,13.2,0,0,0,1.338-3.148,5.68,5.68,0,0,0,.237-1.417,1.091,1.091,0,0,0-.08-.471l-.078.078a1.343,1.343,0,0,0-.865.157,4.614,4.614,0,0,0-1.18.787,19.387,19.387,0,0,0-2.125,2.6,26.159,26.159,0,0,0-1.653,2.991,34.263,34.263,0,0,0-2.36,6.531,16.509,16.509,0,0,0-.315,1.652,5.088,5.088,0,0,0-.08,1.495,1.745,1.745,0,0,0,.08.551c.051.1.1.209.156.315v.078c.054,0,.078.026.078.079a.843.843,0,0,1,.237.157,2.024,2.024,0,0,0,.472.236,4.523,4.523,0,0,0,2.833-.393A15.393,15.393,0,0,0,284.9,43.82a34.7,34.7,0,0,0,5.429-4.721,32.338,32.338,0,0,0,2.361-2.754,12.972,12.972,0,0,0,1.1-1.417,6.572,6.572,0,0,1,.394-.708,2.533,2.533,0,0,0,.236-.434.951.951,0,0,0,.079-.274q.077-.63.746-.551" transform="translate(-163.585 -1.6)"/><path class="a" d="M316.38,34.8a.594.594,0,0,1,.393.866,13.929,13.929,0,0,1-2.125,3.776,26.552,26.552,0,0,1-2.912,3.07,30.334,30.334,0,0,1-6.846,4.958,15.581,15.581,0,0,1-4.094,1.573,8.163,8.163,0,0,1-2.439.236h-.315a.694.694,0,0,1-.315-.078l-.63-.157a5,5,0,0,1-1.1-.472,8.9,8.9,0,0,1-3.621-3.148.96.96,0,0,1-.157-.236q-.628,2.2-1.1,4.014-.313,1.573-.55,2.832a25.753,25.753,0,0,0-.394,2.676,1.477,1.477,0,0,1-1.533,1.456,1.631,1.631,0,0,1-1.457-1.535q.08-1.259.4-3.147.234-1.34.629-2.991.631-2.52,1.574-5.746,1.5-5.193,3.778-11.174,2.2-5.979,4.485-10.939a85.888,85.888,0,0,1,5.588-10.545,27.149,27.149,0,0,1,3.935-4.8,11.833,11.833,0,0,1,1.258-1.1,6.349,6.349,0,0,1,1.733-.787.613.613,0,0,1,.236-.079l.236-.078a2.028,2.028,0,0,1,.787,0,4.2,4.2,0,0,1,.866.237,6.016,6.016,0,0,1,.63.55,3.653,3.653,0,0,1,.63,1.18q.077.4.156.945a7.263,7.263,0,0,1-.078,1.81,12.3,12.3,0,0,1-.315,1.574q0,.08-.393,1.5-.315.945-.473,1.417a35.319,35.319,0,0,1-2.754,5.429,62.389,62.389,0,0,1-7.083,9.6q-1.968,2.2-4.092,4.25-1.889,1.812-3.385,3.147-.315.864-.708,2.046,1.1-.867,1.967-1.495a29.393,29.393,0,0,1,2.835-1.732,11.959,11.959,0,0,1,3.225-1.259,1.348,1.348,0,0,1,1.142.2,1.638,1.638,0,0,1,.669.945,1.466,1.466,0,0,1-.158,1.142,1.207,1.207,0,0,1-.943.631,13.683,13.683,0,0,0-2.6,1.023q-1.1.628-2.44,1.573a23.74,23.74,0,0,0-2.361,1.81q-.866.708-1.888,1.732a3.343,3.343,0,0,0,0,1.024,7.019,7.019,0,0,0,.472,1.494,6.434,6.434,0,0,0,2.439,2.283,5.563,5.563,0,0,0,.787.393.7.7,0,0,0,.315.078.227.227,0,0,1,.157.08h.157a6.858,6.858,0,0,0,1.732-.08,16.7,16.7,0,0,0,3.621-1.258,28.359,28.359,0,0,0,6.61-4.249,24.2,24.2,0,0,0,2.832-2.834,12.606,12.606,0,0,0,2.125-3.227q.315-.628.866-.393M300.719,21.815q-2.123,4.721-4.171,10.152a75.948,75.948,0,0,0,5.194-5.587q1.889-2.283,3.542-4.643a56.331,56.331,0,0,0,2.99-4.88,35.724,35.724,0,0,0,2.125-5.273,4.935,4.935,0,0,0,.394-1.338l.157-.631a2.527,2.527,0,0,0,.157-.708q.236-1.179.236-1.338a9.528,9.528,0,0,0,.079-1.18A1.263,1.263,0,0,1,311.343,6a4.539,4.539,0,0,0-1.889,1.258,22.681,22.681,0,0,0-3.384,4.408,91.905,91.905,0,0,0-5.351,10.152" transform="translate(-162.721 -3.203)"/><path class="a" d="M332.186,33.782a.621.621,0,0,1-.354.906.8.8,0,0,0-.315.156L331.2,35l-.63.393-1.259.865-2.6,1.574q-2.912,1.887-5.194,3.3a7.284,7.284,0,0,1-.394,3.148,11.117,11.117,0,0,1-2.282,3.541,9.393,9.393,0,0,1-3.62,2.2,7.227,7.227,0,0,1-2.283.237,4.525,4.525,0,0,1-2.164-.906,4.683,4.683,0,0,1-1.455-1.77,2.674,2.674,0,0,1-.315-1.181,3.3,3.3,0,0,1,.078-.786,1.257,1.257,0,0,1,.551-.708.846.846,0,0,1,.63-.237,4.6,4.6,0,0,0,.549-.04,5.338,5.338,0,0,0,.63-.118,8.184,8.184,0,0,0,1.339-.55,29.054,29.054,0,0,0,2.675-1.26q1.338-.63,2.913-1.573v-.315l-.079-.157a2.007,2.007,0,0,0-.63-1.023,10.773,10.773,0,0,0-1.1-1.1q-2.6-2.2-2.833-2.518a9.428,9.428,0,0,1-1.339-1.811,5.273,5.273,0,0,1-.393-1.18,3.626,3.626,0,0,1-.078-1.338,5.558,5.558,0,0,1,.471-2.2,7.332,7.332,0,0,1,1.1-1.81,15.518,15.518,0,0,1,2.755-2.834,22.723,22.723,0,0,1,3.225-2.125,12.233,12.233,0,0,1,3.857-1.259,1.22,1.22,0,0,1,.747.078,1.484,1.484,0,0,1,.59.473,1.743,1.743,0,0,1,.315.708v.393a.708.708,0,0,1-.078.315l-.079.157a1.371,1.371,0,0,0-.157.394c-.054.1-.156.288-.315.55q-.08.079-.63.944l-1.259,1.889q-.63.945-1.1,1.81-.315.551-.55.945c-.052.156-.106.315-.157.471a.614.614,0,0,0-.078.237.07.07,0,0,0-.079.078c0,.421-.223.63-.669.63s-.669-.236-.669-.708a3.262,3.262,0,0,0,.158-.393.687.687,0,0,1,.078-.315,4.035,4.035,0,0,1,.237-.551l.471-1.023q.472-1.181.866-2.046.236-.628.472-1.338c-.21.106-.421.21-.63.315a14.6,14.6,0,0,0-2.676,1.731,12.779,12.779,0,0,0-2.2,2.283,3.779,3.779,0,0,0-1.023,2.282v.157a1.869,1.869,0,0,0,.235.9,5.072,5.072,0,0,0,.866,1.062q.157.157,2.6,2.282.866.785,1.495,1.417c.262.366.473.681.63.945a3.662,3.662,0,0,1,.473,1.023q2.2-1.338,4.8-2.911l2.6-1.574,1.259-.788.708-.393.315-.236a3.958,3.958,0,0,1,.393-.237.64.64,0,0,1,.906.354m-13.969,9.483v-.237q-1.1.63-1.967,1.1-1.576.864-2.834,1.417c-.577.208-1.075.393-1.495.549q-.393.079-.866.158a.458.458,0,0,1-.315.078,2.035,2.035,0,0,0,.237.473,2.178,2.178,0,0,0,.944.864,1.625,1.625,0,0,0,1.18.315,3.18,3.18,0,0,0,1.259-.315,9.292,9.292,0,0,0,3.856-4.407m-6.3-11.567a.069.069,0,0,1-.078.078ZM321.993,22.8l.079.078V22.8Z" transform="translate(-161.174 -1.911)"/></g><g transform="translate(435.898 690)"><path class="a" d="M10.306,22.594a9.063,9.063,0,0,1,4.319.7,6.308,6.308,0,0,1,2.618,2.422,4.135,4.135,0,0,1,.411.917q.152.491.282,1a8.362,8.362,0,0,1,.265,1.75q.046.94.053,1.923l.023,4.572.033,6.664q0,.727-.014,1.453a.927.927,0,0,1-.571.942,1.623,1.623,0,0,1-.449.109c-.157.015-.32.023-.491.023q-.555,0-1.068-.015a.836.836,0,0,1-.728-.359,1.285,1.285,0,0,1-.217-.768c0-.314,0-.627-.005-.941l-.019-3.674-.035-6.963q-.005-1.154-.054-2.286a5.568,5.568,0,0,0-.395-1.942,3.263,3.263,0,0,0-1.032-1.383,5.235,5.235,0,0,0-1.585-.825,2.24,2.24,0,0,0-.534-.1,2.2,2.2,0,0,1-.535-.1,3.047,3.047,0,0,0-.662-.019,3.781,3.781,0,0,0-.619.068.488.488,0,0,1-.3.065.771.771,0,0,0-.3.023c-.369.087-.718.182-1.045.283a4.042,4.042,0,0,0-.917.411,2.726,2.726,0,0,0-.3.172,2.711,2.711,0,0,1-.3.173A6.037,6.037,0,0,0,3.979,30.1a3,3,0,0,0-.167.706,5.66,5.66,0,0,1-.124.705.68.68,0,0,0-.041.406.536.536,0,0,1-.041.363l.005.9a.659.659,0,0,0-.02.3,3.141,3.141,0,0,1,.023.384l.007,1.282.02,4.1.019,3.76c0,.313,0,.634.005.961a1.322,1.322,0,0,1-.209.791.857.857,0,0,1-.746.368c-.356.016-.719.024-1.09.026a4.479,4.479,0,0,1-.642-.04A1.03,1.03,0,0,1,.465,44.9a.879.879,0,0,1-.346-.81c0-.4,0-.782-.006-1.153L.088,37.9.036,27.558.022,24.952c0-.257,0-.513,0-.77a.935.935,0,0,1,.168-.6.651.651,0,0,1,.425-.344c.114-.028.278-.058.491-.088a5.057,5.057,0,0,1,.662-.046,5.234,5.234,0,0,1,.663.039,1.16,1.16,0,0,1,.449.126.778.778,0,0,1,.431.746,2.611,2.611,0,0,0,.133,1,.813.813,0,0,0,.345.425.891.891,0,0,0,.83-.389,3.35,3.35,0,0,1,.659-.686q.6-.431,1.213-.8a6.98,6.98,0,0,1,1.428-.627,3.026,3.026,0,0,1,.747-.175,6.679,6.679,0,0,0,.79-.132,2.255,2.255,0,0,1,.427-.045l.428,0" transform="translate(-0.002 -2.676)"/><path class="a" d="M43.781,43.258a1.549,1.549,0,0,1-.8,1.8,1.206,1.206,0,0,1-.448.087,1.539,1.539,0,0,0-.491.088,3.316,3.316,0,0,1-1.859-.1,2.569,2.569,0,0,1-1.264-.785,3.522,3.522,0,0,1-.388-.7,2.051,2.051,0,0,0-.43-.659c-.059-.056-.123-.114-.194-.17a.308.308,0,0,0-.278-.041,2.274,2.274,0,0,0-.874.474,8.876,8.876,0,0,1-.787.6,9.5,9.5,0,0,1-1.193.625,11.866,11.866,0,0,1-1.365.5,4.516,4.516,0,0,1-.918.175c-.328.029-.647.074-.96.133a1.872,1.872,0,0,1-.363.044l-.32,0a2.348,2.348,0,0,1-.9,0l-.384,0a2.128,2.128,0,0,0-.428-.041.847.847,0,0,1-.385-.084.644.644,0,0,0-.278-.02.456.456,0,0,1-.234-.019c-.229-.056-.457-.1-.685-.146a3.064,3.064,0,0,1-.642-.189,7.688,7.688,0,0,1-2.079-1.25,5.212,5.212,0,0,1-1.313-1.98,5.982,5.982,0,0,1-.4-2.263l0-.9c.026-.142.048-.292.062-.45s.033-.32.061-.492q.169-.469.338-.941a3.932,3.932,0,0,1,.423-.856,4.684,4.684,0,0,1,2.084-1.848,22.988,22.988,0,0,1,2.9-1.083,8.751,8.751,0,0,1,1.238-.262q.64-.089,1.281-.22a2.112,2.112,0,0,1,.577-.088,2.583,2.583,0,0,0,.619-.089,3.082,3.082,0,0,1,.6-.11,3.652,3.652,0,0,0,.64-.11q1.066-.26,2.005-.458a2.369,2.369,0,0,0,1.491-.969,2.99,2.99,0,0,0,.423-.879,2.07,2.07,0,0,0-.006-1.174A4.09,4.09,0,0,0,37.1,26.8a3.241,3.241,0,0,0-1.394-.934,4.669,4.669,0,0,0-1.218-.293,12.227,12.227,0,0,0-1.474-.078,12.893,12.893,0,0,0-1.5.093,6.338,6.338,0,0,0-1.237.263,5.974,5.974,0,0,0-1.406.733,2.757,2.757,0,0,0-.616.666,5.776,5.776,0,0,0-.487.878c-.084.228-.161.471-.231.727a1.058,1.058,0,0,1-.4.6,1.342,1.342,0,0,1-.576.195,5.43,5.43,0,0,1-1.667.009,1.352,1.352,0,0,1-.577-.19.785.785,0,0,1-.258-.426,1.214,1.214,0,0,1,0-.641c.084-.37.174-.72.272-1.048a7.871,7.871,0,0,1,.358-.964,6.422,6.422,0,0,1,2.039-2.338,10.574,10.574,0,0,1,3.069-1.361q.427-.087.875-.133t.919-.133a2.128,2.128,0,0,1,.554-.024c.257.014.413-.009.47-.066a16.107,16.107,0,0,1,5.216.657,4.9,4.9,0,0,1,3.133,2.761,5.589,5.589,0,0,1,.458,1.984q.07,1.133.076,2.371l.048,9.441q0,.6.048,1.153a1.956,1.956,0,0,0,.261.9,1.161,1.161,0,0,0,.558.424,3.211,3.211,0,0,0,.727.232.7.7,0,0,1,.515.4.456.456,0,0,1,.086.256,1.819,1.819,0,0,0,.045.342m-6.134-4.712a3.77,3.77,0,0,0,.271-1.389q.016-.791.013-1.645a8.264,8.264,0,0,0-.047-.855.815.815,0,0,0-.346-.6,1.29,1.29,0,0,0-.6-.083.412.412,0,0,1-.3.087.851.851,0,0,0-.384.087c-.228.059-.484.116-.768.175l-.853.175a1.994,1.994,0,0,0-.278.023,2.3,2.3,0,0,1-.321.023,6.037,6.037,0,0,1-1.387.2,6.136,6.136,0,0,0-1.388.2q-.341.087-.618.153t-.62.153a7.38,7.38,0,0,0-1.279.54,3.772,3.772,0,0,0-1.021.8,3.032,3.032,0,0,0-.635,1.135,4.536,4.536,0,0,0-.163,1.6,2.047,2.047,0,0,0,.153.789,3.243,3.243,0,0,0,.367.66,2.833,2.833,0,0,0,.9.786,6.534,6.534,0,0,0,1.2.528,2.127,2.127,0,0,0,.428.04,2.2,2.2,0,0,1,.428.041,3.2,3.2,0,0,0,.748.1,2.317,2.317,0,0,0,.748-.068,1.276,1.276,0,0,1,.511-.066,1.258,1.258,0,0,0,.513-.067,6.07,6.07,0,0,1,.661-.13,2.362,2.362,0,0,0,.619-.175,8.163,8.163,0,0,0,2.108-1.25,4.608,4.608,0,0,0,1.336-1.972" transform="translate(-2.739 -2.647)"/><path class="a" d="M50.058,15.322c.427,0,.855,0,1.283.015a1.106,1.106,0,0,1,.9.358,1.172,1.172,0,0,1,.239.7c.015.3.024.606.026.919l.012,2.478c0,.228,0,.463-.017.705a1.612,1.612,0,0,0,.067.619,1.051,1.051,0,0,0,.772.765,2.022,2.022,0,0,0,.406.041l.406,0c.313,0,.7-.01,1.152-.026a2.521,2.521,0,0,1,.984.1,1.454,1.454,0,0,1,.515.51.859.859,0,0,1,.088.384c0,.143,0,.286,0,.428a8.488,8.488,0,0,1-.039.875.89.89,0,0,1-.3.622,1.161,1.161,0,0,1-.7.238c-.3.016-.614.018-.941,0s-.649-.019-.962-.017a2.314,2.314,0,0,0-.81.132.785.785,0,0,0-.426.429,2.422,2.422,0,0,0-.167.706,5.458,5.458,0,0,0-.017.854c.015.3.023.592.026.876L52.6,36.5q0,.94-.011,1.986a2.7,2.7,0,0,0,.37,1.6,1.109,1.109,0,0,0,.558.468,4.838,4.838,0,0,0,.813.209.585.585,0,0,0,.279.019.646.646,0,0,1,.278.02l.555,0a4.634,4.634,0,0,1,.791.06.77.77,0,0,1,.536.318,1.391,1.391,0,0,1,.152.447,5.03,5.03,0,0,1,.088.662,3.5,3.5,0,0,1-.018.662,1.06,1.06,0,0,1-.168.493.99.99,0,0,1-.639.43,2.559,2.559,0,0,1-.769.068c-.286-.011-.541-.018-.769-.017q-.257,0-.513.024a1.67,1.67,0,0,1-.47-.019l-.513,0c-.143-.028-.278-.048-.405-.063a3.971,3.971,0,0,0-.406-.019,10.532,10.532,0,0,1-1.477-.463,2.322,2.322,0,0,1-1.051-.891,4.166,4.166,0,0,1-.695-2.155q-.093-1.3-.1-2.8L48.961,26.35a5.67,5.67,0,0,0-.239-.811.952.952,0,0,0-.621-.424.713.713,0,0,0-.342,0,.484.484,0,0,1-.343-.041l-.683,0a3.286,3.286,0,0,1-.918-.1.713.713,0,0,1-.495-.489,1.092,1.092,0,0,1-.109-.383c-.015-.142-.022-.285-.023-.428a5,5,0,0,1,.08-1,.882.882,0,0,1,.51-.621A2.716,2.716,0,0,1,47,21.959a2.937,2.937,0,0,0,1.26-.091,1.511,1.511,0,0,0,.594-.6,2.034,2.034,0,0,0,.083-.642c0-.256,0-.5,0-.726l-.013-2.648q0-.341,0-.705a1.948,1.948,0,0,1,.082-.62,1.26,1.26,0,0,1,.638-.559,1.144,1.144,0,0,0,.234-.023,1,1,0,0,1,.192-.022" transform="translate(-5.354 -1.816)"/><path class="a" d="M61.793,22.815l1.239-.006a1.053,1.053,0,0,1,.9.337,1.734,1.734,0,0,1,.24.853c.016.342.026.684.027,1.025l.02,4.059.033,6.452q.005.94.01,1.944a6.156,6.156,0,0,0,.222,1.729,4.363,4.363,0,0,0,2.577,2.679,4.923,4.923,0,0,0,2.266.266,7.034,7.034,0,0,0,2.134-.46,6.258,6.258,0,0,0,2.235-1.528,6.391,6.391,0,0,0,1.291-2.42,2.985,2.985,0,0,0,.167-.685q.041-.342.125-.727a1.243,1.243,0,0,0,.019-.385.779.779,0,0,1,.062-.384l0-.9a2.359,2.359,0,0,0,.039-.791c-.029-.3-.045-.577-.046-.833l-.018-3.332L75.3,25.182q0-.513-.027-1.09a1.6,1.6,0,0,1,.189-.919.77.77,0,0,1,.4-.279c.156-.043.348-.094.577-.152l.641,0a8.8,8.8,0,0,1,.919.038.793.793,0,0,1,.621.381.846.846,0,0,1,.216.618q0,.407,0,.834l.015,2.9.058,11.492.019,3.845c0,.341,0,.661-.016.96a.818.818,0,0,1-.317.665,1.247,1.247,0,0,1-.512.195,5.724,5.724,0,0,1-.747.089,4.507,4.507,0,0,1-.77-.018,1.1,1.1,0,0,1-.534-.167,1.442,1.442,0,0,1-.388-.554,2.838,2.838,0,0,1-.067-.471c-.015-.2-.037-.391-.067-.576a.98.98,0,0,0-.173-.448.369.369,0,0,0-.385-.126,1.39,1.39,0,0,0-.681.495,3.576,3.576,0,0,1-.637.622,10.909,10.909,0,0,1-2.13,1.208,3.41,3.41,0,0,1-.96.283,8.747,8.747,0,0,0-1,.2,1.18,1.18,0,0,1-.449,0,.8.8,0,0,0-.448.046,1.739,1.739,0,0,1-.769,0l-.428,0a1.332,1.332,0,0,0-.492-.084,2.492,2.492,0,0,1-.492-.041.539.539,0,0,0-.321-.062.729.729,0,0,1-.363-.062c-.228-.056-.449-.112-.663-.168a3.436,3.436,0,0,1-.664-.253A5.4,5.4,0,0,1,62.6,43.338a6.3,6.3,0,0,1-1.227-1.894,3.9,3.9,0,0,1-.261-.79c-.058-.269-.116-.547-.175-.831a1.171,1.171,0,0,1-.066-.492A1.5,1.5,0,0,0,60.8,38.8a.542.542,0,0,1-.043-.234.877.877,0,0,0-.044-.278l0-.428a1.183,1.183,0,0,1-.024-.405c.013-.156.019-.306.019-.448L60.7,35.3l-.041-7.861L60.648,24.7c0-.257,0-.512,0-.769a1.135,1.135,0,0,1,.167-.642.99.99,0,0,1,.639-.43.249.249,0,0,1,.171-.023.235.235,0,0,0,.171-.022" transform="translate(-7.185 -2.694)"/><path class="a" d="M95.261,22.068q.981,0,1.112.486a6.033,6.033,0,0,1,.137,1.43c0,.286,0,.555,0,.812a.975.975,0,0,1-.209.643.911.911,0,0,1-.725.366,4.331,4.331,0,0,0-.939.154q-.6.131-1.131.262a5.583,5.583,0,0,0-1,.347,5.278,5.278,0,0,0-2,1.527A10.186,10.186,0,0,0,89.192,30.3a5.633,5.633,0,0,0-.251.964q-.083.492-.208,1a1.39,1.39,0,0,0-.019.427,1.451,1.451,0,0,1-.019.428,4.313,4.313,0,0,0-.1,1.176q.025.661.027,1.26l.027,5.255c0,.314,0,.641.005.983s-.011.67-.038.983a5.4,5.4,0,0,0-.018.811.82.82,0,0,1-.189.6.864.864,0,0,1-.661.345c-.3.031-.619.046-.961.048l-.768,0c-.145-.056-.279-.106-.406-.147a.5.5,0,0,1-.279-.191,1.353,1.353,0,0,1-.24-.747q-.025-.447-.026-.919l-.016-3.289L84.991,27.46l-.014-2.948c0-.313,0-.606.017-.876a1.3,1.3,0,0,1,.231-.706.8.8,0,0,1,.448-.258,3.563,3.563,0,0,1,.7-.11,4.58,4.58,0,0,1,.77.018,2.386,2.386,0,0,1,.6.125.71.71,0,0,1,.451.488,2.8,2.8,0,0,1,.11.768q0,.407,0,.855a1.762,1.762,0,0,0,.175.789.512.512,0,0,0,.087.129c.027.028.071.071.129.127a.913.913,0,0,0,.766-.41c.2-.272.368-.493.51-.665l.256-.257a6.188,6.188,0,0,1,1.063-.988,6.337,6.337,0,0,1,1.277-.775,3.307,3.307,0,0,1,.81-.324c.284-.072.584-.153.9-.24q.257-.044.513-.067a4.022,4.022,0,0,0,.47-.066" transform="translate(-10.068 -2.615)"/><path class="a" d="M117.629,32.6a3.125,3.125,0,0,1,.026.961,1.268,1.268,0,0,1-.274.748,1.3,1.3,0,0,1-.618.238,5.835,5.835,0,0,1-.919.07c-.342,0-.683,0-1.025-.016s-.641-.019-.9-.018l-10.936.056c-.228,0-.457.01-.684.025a1.221,1.221,0,0,0-.554.153.968.968,0,0,0-.34.344,1.724,1.724,0,0,0-.168.364.6.6,0,0,0,0,.449,2.066,2.066,0,0,1,.043.383,1.418,1.418,0,0,0,.045.342c.058.228.116.462.175.7a3.161,3.161,0,0,0,.259.7,6.022,6.022,0,0,0,3.264,3.273,3.256,3.256,0,0,0,.555.211l.6.167a1.5,1.5,0,0,0,.428.041,7.39,7.39,0,0,0,3.161-.016q.6-.173,1.088-.368a4.337,4.337,0,0,0,.916-.5,3.513,3.513,0,0,0,.807-.709,5.249,5.249,0,0,0,.594-.879,6.555,6.555,0,0,0,.444-.9,1.252,1.252,0,0,1,.659-.688,1.805,1.805,0,0,1,.554-.13,4.67,4.67,0,0,1,.769-.025c.257.012.5.033.726.06a.818.818,0,0,1,.472.168q.427.3.219.981a8.411,8.411,0,0,1-.887,2.056,8.07,8.07,0,0,1-4.681,3.7,3.822,3.822,0,0,1-.853.24q-.427.066-.9.153a1.975,1.975,0,0,1-.406.045,2.106,2.106,0,0,0-.406.045l-.427,0a2.692,2.692,0,0,1-.492.046,1.934,1.934,0,0,1-.449-.041l-.384,0a2.009,2.009,0,0,0-.384-.041,1.419,1.419,0,0,1-.343-.041,3.854,3.854,0,0,0-.47-.062,4.243,4.243,0,0,1-.471-.063c-.257-.055-.513-.118-.77-.188s-.5-.147-.727-.231a1.109,1.109,0,0,0-.3-.106,1.088,1.088,0,0,1-.3-.1q-.643-.3-1.371-.72A8.237,8.237,0,0,1,99.88,41.51a11.957,11.957,0,0,1-1.486-2.621,4.54,4.54,0,0,1-.326-.98,9.238,9.238,0,0,0-.283-1.024,1.322,1.322,0,0,1-.045-.3,1.956,1.956,0,0,0-.043-.342,5.36,5.36,0,0,1-.133-.725,7.514,7.514,0,0,0-.131-.768l0-.6a3.024,3.024,0,0,1-.066-.49,2.075,2.075,0,0,1,.019-.534l0-.471a.953.953,0,0,0,.061-.449,1.577,1.577,0,0,1,.019-.449q.167-.684.271-1.368a5.278,5.278,0,0,1,.358-1.283q.209-.471.4-.964a8.391,8.391,0,0,1,.444-.964,12.352,12.352,0,0,1,2.122-2.6,10.033,10.033,0,0,1,2.939-1.831,5.571,5.571,0,0,1,1.045-.325c.356-.072.733-.153,1.132-.241q.213-.044.383-.066a3.277,3.277,0,0,1,.384-.024.285.285,0,0,1,.213,0,.191.191,0,0,0,.213-.043,9.88,9.88,0,0,1,3.121.347,9.647,9.647,0,0,1,2.4,1.077.857.857,0,0,1,.343.233.956.956,0,0,0,.3.234,8.578,8.578,0,0,1,.706.594,5.443,5.443,0,0,1,.622.681,16.44,16.44,0,0,1,1.163,1.7,4.175,4.175,0,0,1,.475,1.023c.115.369.246.74.39,1.108a6.274,6.274,0,0,1,.327,1.152,11.669,11.669,0,0,0,.284,1.194c.028.2.051.4.067.6s.037.4.068.6m-4.151-1.432a1.5,1.5,0,0,0,.21-.45.989.989,0,0,0,0-.577,7.3,7.3,0,0,0-.735-1.747,7.949,7.949,0,0,0-1.332-1.66,6.062,6.062,0,0,0-1.886-1.144c-.2-.056-.4-.1-.6-.146s-.413-.09-.642-.146a2.974,2.974,0,0,0-.726-.081l-.726,0a.419.419,0,0,1-.3.066.68.68,0,0,0-.3.023q-.342.087-.661.153c-.213.044-.419.1-.62.153a5.811,5.811,0,0,0-1.979,1.291,8.03,8.03,0,0,0-1.336,1.93,4.044,4.044,0,0,0-.254.534,4.45,4.45,0,0,0-.209.707,2.076,2.076,0,0,0-.04.726.681.681,0,0,0,.3.511,1.933,1.933,0,0,0,1.176.228q.833-.025,1.432-.028l6.493-.034q.641,0,1.538.014a1.529,1.529,0,0,0,1.2-.326" transform="translate(-11.534 -2.613)"/><path class="a" d="M13.245,13.319a2.545,2.545,0,0,1,.011.644,5.85,5.85,0,0,1-.078.622c-.029.149-.059.289-.089.423a2.665,2.665,0,0,1-.111.378,4.244,4.244,0,0,1-1.445,1.823,4.568,4.568,0,0,1-.812.457,9.4,9.4,0,0,1-.923.344,2.291,2.291,0,0,1-.511.123c-.178.022-.349.048-.512.078a1,1,0,0,1-.211.023,1.059,1.059,0,0,0-.212.022.4.4,0,0,1-.189,0,.345.345,0,0,0-.212.023.54.54,0,0,1-.19.011,1.994,1.994,0,0,0-.211-.011H1.058a4.876,4.876,0,0,1-.634-.034.447.447,0,0,1-.367-.3A1.523,1.523,0,0,1,0,17.4q.012-.368.011-.612V3.734q0-.267-.011-.567a.829.829,0,0,1,.1-.478.515.515,0,0,1,.334-.223.126.126,0,0,1,.089-.011.127.127,0,0,0,.089-.011H7.241c.1,0,.207,0,.311-.011a1.194,1.194,0,0,1,.289.011.379.379,0,0,0,.222.022.588.588,0,0,1,.222,0h.134A.683.683,0,0,0,8.7,2.5a.869.869,0,0,1,.3.033,3.09,3.09,0,0,0,.346.067,3.414,3.414,0,0,1,.345.066q.422.156.8.3a3.082,3.082,0,0,1,.689.367,2.631,2.631,0,0,1,.733.778,4.353,4.353,0,0,1,.467,1.068,1.553,1.553,0,0,1,.056.311,1.977,1.977,0,0,0,.055.334A.482.482,0,0,1,12.5,6a.491.491,0,0,0,.011.179.379.379,0,0,1,.011.166.452.452,0,0,1-.033.145v.2a1.333,1.333,0,0,1-.011.155,1.084,1.084,0,0,0-.011.133,1.49,1.49,0,0,0-.056.279.837.837,0,0,1-.056.234A3.88,3.88,0,0,1,11.6,8.8a1.862,1.862,0,0,1-.333.267,1.138,1.138,0,0,0-.311.289.974.974,0,0,0-.1.123.185.185,0,0,0-.011.189.487.487,0,0,0,.288.3q.245.122.423.233a3.7,3.7,0,0,1,.978.934,4.073,4.073,0,0,1,.555,1.2,1.554,1.554,0,0,1,.089.368,2.868,2.868,0,0,0,.067.367ZM3.571,5.357a.653.653,0,0,0-.111.389V7.426c0,.1,0,.212-.011.323a1.049,1.049,0,0,0,.011.278v.223c.03.088.051.167.067.233a.767.767,0,0,0,.066.19.479.479,0,0,0,.278.155,2.28,2.28,0,0,0,.422.056c.157.008.316.008.479,0s.312-.011.445-.011c.223,0,.456,0,.7.011s.49.011.734.011.479-.011.7-.033a2.456,2.456,0,0,0,.578-.123,1.782,1.782,0,0,0,1-.778,2.007,2.007,0,0,0,.2-.756,2.033,2.033,0,0,0-.222-1.19,1.791,1.791,0,0,0-.779-.678,2.622,2.622,0,0,0-.288-.078c-.1-.023-.215-.048-.334-.078a1.227,1.227,0,0,0-.266-.022A2.264,2.264,0,0,0,6.629,5.1c-.23.007-.449.011-.657.011H4.082a.22.22,0,0,1-.1.021.213.213,0,0,0-.1.023.541.541,0,0,0-.312.2M9.8,13.675a1.885,1.885,0,0,0-.033-.667,2.476,2.476,0,0,0-.167-.533,1.876,1.876,0,0,0-1.223-1.112,3.581,3.581,0,0,0-.834-.133c-.3-.015-.62-.022-.945-.022H4.082c-.03.029-.056.041-.078.033a.26.26,0,0,0-.078-.011.536.536,0,0,0-.355.222.85.85,0,0,0-.111.457v2.5c0,.177,0,.36.011.545a.8.8,0,0,0,.123.434.545.545,0,0,0,.29.167,2.047,2.047,0,0,0,.456.067q.255.011.522,0c.178-.008.333-.011.467-.011q.668,0,1.29.011A7.557,7.557,0,0,0,7.8,15.554a3.8,3.8,0,0,0,.99-.267,1.49,1.49,0,0,0,.878-1c.045-.156.089-.315.134-.478Z" transform="translate(0 -0.288)"/><path class="a" d="M26.861,13a.93.93,0,0,1,0,.4.417.417,0,0,1-.156.289.683.683,0,0,1-.323.122,4.107,4.107,0,0,1-.466.045q-.257.011-.511,0c-.171-.008-.323-.011-.456-.011H19.222a.68.68,0,0,0-.257.045.48.48,0,0,0-.222.177.466.466,0,0,0-.089.167.424.424,0,0,0-.022.234,1.192,1.192,0,0,1,.056.256,1.1,1.1,0,0,0,.056.256,3.112,3.112,0,0,0,.434.878,2.364,2.364,0,0,0,.7.612,1.013,1.013,0,0,0,.368.145,2.662,2.662,0,0,1,.389.1,2.988,2.988,0,0,0,.489.066,2.008,2.008,0,0,0,.534-.022h.2c.149-.03.286-.063.412-.1s.249-.078.367-.123a5.32,5.32,0,0,0,.5-.289,1.567,1.567,0,0,0,.412-.356q.111-.156.234-.3a.7.7,0,0,1,.3-.212,1.178,1.178,0,0,1,.566-.1q.345.012.635.011c.089,0,.182,0,.278-.011a.578.578,0,0,1,.256.033h.223a.83.83,0,0,1,.311.111.224.224,0,0,1,.1.2.6.6,0,0,1-.034.267,3.868,3.868,0,0,1-.244.556,4.568,4.568,0,0,1-.311.489,4.5,4.5,0,0,1-1.112,1.179,5.874,5.874,0,0,1-1.557.755,1.932,1.932,0,0,1-.489.112,3.222,3.222,0,0,0-.512.089.582.582,0,0,1-.19.011.515.515,0,0,0-.189.011h-.244a.568.568,0,0,1-.257.033,2.409,2.409,0,0,1-.255-.033,1.083,1.083,0,0,0-.312,0,.67.67,0,0,1-.288-.022.648.648,0,0,0-.245-.045.666.666,0,0,1-.245-.044q-.245-.045-.489-.1a1.639,1.639,0,0,1-.444-.167l-.456-.167a2.074,2.074,0,0,1-.39-.19,6.383,6.383,0,0,1-1.268-1.034,5,5,0,0,1-.911-1.367,2.973,2.973,0,0,1-.178-.5,3.941,3.941,0,0,0-.178-.523.672.672,0,0,1-.022-.167.728.728,0,0,0-.022-.167,2.328,2.328,0,0,1-.112-.578l-.044-.622c0-.074,0-.156-.011-.245a.848.848,0,0,1,.011-.244v-.267l.066-.534c.059-.251.112-.5.156-.733a3.262,3.262,0,0,1,.2-.667,5.816,5.816,0,0,1,3.247-3.269,2.816,2.816,0,0,1,.635-.19c.214-.037.441-.085.678-.145a2.842,2.842,0,0,1,.334-.022,2.522,2.522,0,0,0,.333-.023,5.737,5.737,0,0,1,1.946.256,5.961,5.961,0,0,1,1.456.724,4.39,4.39,0,0,1,.4.3,3.234,3.234,0,0,1,.356.344.5.5,0,0,0,.177.178c.119.163.23.331.334.5s.214.345.333.523a2.975,2.975,0,0,1,.19.411c.051.141.108.293.167.456a4.082,4.082,0,0,1,.178.6c.044.207.1.415.155.622a1.291,1.291,0,0,1,.033.39,1.283,1.283,0,0,0,.033.389Zm-3.336-1.312a.558.558,0,0,0,.033-.545c-.082-.215-.145-.374-.19-.479a2.348,2.348,0,0,0-.822-.923A2.81,2.81,0,0,0,21.123,9.4a.184.184,0,0,1-.155.022.275.275,0,0,0-.156,0,.859.859,0,0,1-.245.056.884.884,0,0,0-.244.056,2.376,2.376,0,0,0-1.446,1.223,2.433,2.433,0,0,0-.1.234,1.4,1.4,0,0,0-.078.288.7.7,0,0,0,.011.279.4.4,0,0,0,.145.222.912.912,0,0,0,.489.111h3.069q.312,0,.657-.011a.517.517,0,0,0,.456-.189" transform="translate(-1.829 -0.837)"/><path class="b" d="M54.854.038a.258.258,0,0,1,.1.49c-1.333.626-2.446,2.422-3.2,6.052-.921,4.463-4.685,6.234-7.59,5.672a15.873,15.873,0,0,0-.249,2.443A1.217,1.217,0,0,1,42.7,15.883h-.019a1.227,1.227,0,0,1-1.215-1.351,12.03,12.03,0,0,1,5.448-9.073A11.679,11.679,0,0,0,42.034,8.95a.8.8,0,0,1-1.4-.427l0-.019C39.972,2.221,47.516-.346,54.854.038M27.736,5.807a.22.22,0,0,1,.085-.418C34.072,5.061,40.5,7.248,39.94,12.6a.532.532,0,0,1-.982.215,9.82,9.82,0,0,0-4.371-3.248,10.5,10.5,0,0,1,3.6,4.034,1.5,1.5,0,0,1-.9,2.109c-2.512.709-6-.76-6.827-4.75-.638-3.092-1.587-4.624-2.723-5.156" transform="translate(-3.271 -0.001)"/></g><line class="c" y2="69" transform="translate(575.5 676.5)"/><line class="c" y2="69" transform="translate(813.507 676.5)"/><g transform="translate(474.711 526.305)"><path class="a" d="M391.05,188.786a.573.573,0,0,1,.547.73c-.049.146-.121.34-.219.584a1.866,1.866,0,0,1-.219.438,2.914,2.914,0,0,1-.438.73,13.237,13.237,0,0,1-1.022,1.46q-1.023,1.388-2.19,2.7a41.984,41.984,0,0,1-4.964,4.891,24.443,24.443,0,0,1-2.993,1.971,10.248,10.248,0,0,1-1.825.73,4.608,4.608,0,0,1-2.117.22,3.638,3.638,0,0,1-1.169-.366,1.63,1.63,0,0,1-.583-.292l-.22-.145-.146-.147-.146-.146a2.413,2.413,0,0,1-.73-1.168,4.054,4.054,0,0,1-.292-1.1,7.28,7.28,0,0,1,0-2.044c.049-.634.122-1.241.219-1.825a22.659,22.659,0,0,1,1.1-3.5,17.451,17.451,0,0,1,.657-1.68,15,15,0,0,1,.8-1.533,23.392,23.392,0,0,1,1.9-3.066,16.09,16.09,0,0,1,2.556-2.774,5.3,5.3,0,0,1,1.825-1.023,3.387,3.387,0,0,1,2.482-.072,2.4,2.4,0,0,1,.693.438,1.664,1.664,0,0,1,.476.73,2.484,2.484,0,0,1,.292,1.241,7.665,7.665,0,0,1-.439,1.971,14.8,14.8,0,0,1-1.752,3.213,8.867,8.867,0,0,1-1.241,1.386,5.29,5.29,0,0,1-1.533,1.1.577.577,0,0,1-.876-.291.516.516,0,0,1,.218-.731l.074-.073a6.658,6.658,0,0,0,1.971-2.263,12.344,12.344,0,0,0,1.242-2.919,5.262,5.262,0,0,0,.217-1.315,1.033,1.033,0,0,0-.072-.438l-.073.073a1.246,1.246,0,0,0-.8.146,4.3,4.3,0,0,0-1.1.73,18.069,18.069,0,0,0-1.97,2.409,24.264,24.264,0,0,0-1.533,2.774,31.931,31.931,0,0,0-2.191,6.06q-.218.948-.292,1.533a4.643,4.643,0,0,0-.072,1.387,1.652,1.652,0,0,0,.072.512c.049.1.1.193.147.291v.073a.065.065,0,0,1,.073.073.835.835,0,0,1,.219.146,1.862,1.862,0,0,0,.437.219,4.2,4.2,0,0,0,2.629-.365,14.311,14.311,0,0,0,2.773-1.6,32.245,32.245,0,0,0,5.038-4.381,30.149,30.149,0,0,0,2.19-2.555,12.042,12.042,0,0,0,1.022-1.314,5.954,5.954,0,0,1,.366-.657,2.331,2.331,0,0,0,.218-.4.859.859,0,0,0,.073-.256q.072-.582.694-.511"/><path class="a" d="M406.27,188.86a.555.555,0,0,1,.147.876q-1.752,2.409-3.067,3.942a12.044,12.044,0,0,1-1.825,1.752q-.585.438-1.1.8c-.244.1-.464.193-.657.292a6.9,6.9,0,0,1-.8.219,2.682,2.682,0,0,1-.876,0,2,2,0,0,1-.876-.511,3.468,3.468,0,0,1-.8-1.46,11.724,11.724,0,0,1-.147-2.7V191.2q-.8,1.095-1.386,1.825a24.8,24.8,0,0,1-2.118,2.482,14.478,14.478,0,0,1-1.241,1.241,6.908,6.908,0,0,1-.876.585,3.5,3.5,0,0,1-1.313.437h-.074l-.438-.073a2.583,2.583,0,0,1-.767-.584,3.653,3.653,0,0,1-.547-.8,4.6,4.6,0,0,1-.218-1.46,7.779,7.779,0,0,1,.51-2.117,18.831,18.831,0,0,1,1.752-3.358,31.585,31.585,0,0,1,4.819-5.621,16.425,16.425,0,0,1,3.066-2.264,7.341,7.341,0,0,1,2.116-.73h.658a1.224,1.224,0,0,1,.365.073h.073l.147.073a.659.659,0,0,1,.291.073,2.021,2.021,0,0,1,.8.876,2.157,2.157,0,0,1,.147.8,4.233,4.233,0,0,1,0,1.1q-.075.437-.22,1.022-.219.8-.584,1.752c-.2.536-.414,1.094-.657,1.679a7.27,7.27,0,0,1-.438.876,7.423,7.423,0,0,1-.438.876.9.9,0,0,1-1.315.292v-.073q-.291,1.241-.437,2.044a10.615,10.615,0,0,0-.073,1.168,5.485,5.485,0,0,0,.073,1.022.8.8,0,0,0,.365.657l.147.147h.328a.91.91,0,0,0,.4-.11,2.454,2.454,0,0,1,.511-.182,10.444,10.444,0,0,0,.876-.659,15.184,15.184,0,0,0,1.752-1.532,43.33,43.33,0,0,0,3.066-3.723.556.556,0,0,1,.876-.146m-16.718,6.132c-.047.048-.047.085,0,.11a.519.519,0,0,0,.219.035h.219Zm4.015-3.066a27.408,27.408,0,0,0,1.9-2.482c.244-.34.559-.778.95-1.314l.438-.658.219-.364a3.249,3.249,0,0,0,.292-.438.806.806,0,0,1,1.241-.146.714.714,0,0,1,.292.438q.219-.584.439-1.1.217-.876.364-1.606.072-.438.146-.73v-.437a3.485,3.485,0,0,0-1.241.511,11.132,11.132,0,0,0-2.482,1.97,28.644,28.644,0,0,0-4.235,5.256,14.4,14.4,0,0,0-1.46,2.848,4.061,4.061,0,0,0-.292,1.314v.073a.569.569,0,0,0,.219-.073,4.559,4.559,0,0,0,1.168-.8,19.779,19.779,0,0,0,2.044-2.263"/><path class="a" d="M433.793,169.878a1.373,1.373,0,0,1,1.388,1.387,1.464,1.464,0,0,1-.4,1.022,1.084,1.084,0,0,1-.985.365h-.073q-.949,0-4.527-.073h-4.6l-9.125-.073h-.73q-.657,1.242-.877,1.752-2.482,5.039-4.744,10.367-2.337,5.694-4.089,10.658-.948,2.773-1.606,5.111a.824.824,0,0,1,.876-.074.762.762,0,0,1,.22,1.1,11.327,11.327,0,0,0-.658,1.24,6.651,6.651,0,0,0-.584,1.169q-.144.438-1.022,2.628a.816.816,0,0,1-1.168.584.937.937,0,0,1-.584-.876,13.242,13.242,0,0,1,.292-3.066l.145-.73.147-.73q.075-.22.365-1.388.586-2.481,1.606-5.621,1.681-5.111,3.942-10.877,2.191-5.476,4.527-10.586l.365-.73h-7.957v.146a1.341,1.341,0,0,1-.512.694.855.855,0,0,1-.8.109h-.073a5.229,5.229,0,0,0-.584-.146l-.657-.073-1.46-.219q-1.386-.219-2.848-.511a.865.865,0,0,1-.729-1.1.814.814,0,0,1,.876-.73q.585-.072,2.335-.147h2.264l4.6-.145,6.642-.146q.585-1.24,1.168-2.264a43.583,43.583,0,0,1,3.067-5.036,1.12,1.12,0,0,1,.876-.585,1.481,1.481,0,0,1,1.058.256,1.251,1.251,0,0,1,.548.912,1.455,1.455,0,0,1-.219,1.022h-.073v.073a33.5,33.5,0,0,0-2.92,4.673,1.608,1.608,0,0,0-.293.474c-.1.22-.17.378-.217.475l8.613-.146,4.6-.073q3.651-.072,4.6-.073"/><path class="a" d="M445,189.262a.574.574,0,0,1-.329.839.732.732,0,0,0-.291.146l-.293.146-.584.365-1.168.8-2.409,1.46q-2.7,1.752-4.818,3.067a6.757,6.757,0,0,1-.365,2.92,10.349,10.349,0,0,1-2.118,3.285,8.722,8.722,0,0,1-3.357,2.044,6.717,6.717,0,0,1-2.118.219,4.2,4.2,0,0,1-2.007-.84,4.352,4.352,0,0,1-1.351-1.642,2.482,2.482,0,0,1-.292-1.1,3.1,3.1,0,0,1,.073-.73,1.167,1.167,0,0,1,.511-.656.786.786,0,0,1,.584-.219,4.475,4.475,0,0,0,.511-.037,5.4,5.4,0,0,0,.584-.11,7.37,7.37,0,0,0,1.241-.511,26.844,26.844,0,0,0,2.482-1.167q1.24-.587,2.7-1.46v-.293l-.074-.146a1.863,1.863,0,0,0-.584-.949,10.033,10.033,0,0,0-1.021-1.021q-2.41-2.046-2.629-2.337a8.731,8.731,0,0,1-1.241-1.679,4.828,4.828,0,0,1-.365-1.1,3.342,3.342,0,0,1-.073-1.241,5.156,5.156,0,0,1,.438-2.044,6.8,6.8,0,0,1,1.022-1.679,14.457,14.457,0,0,1,2.555-2.629,21.064,21.064,0,0,1,2.994-1.97,11.338,11.338,0,0,1,3.577-1.169,1.135,1.135,0,0,1,.694.073,1.387,1.387,0,0,1,.547.438,1.612,1.612,0,0,1,.292.658v.364a.639.639,0,0,1-.074.292l-.072.146a1.26,1.26,0,0,0-.146.366c-.049.1-.146.267-.293.51-.048.05-.244.341-.583.876l-1.168,1.752q-.585.876-1.022,1.68c-.195.341-.365.632-.512.876-.049.146-.1.292-.145.438a.54.54,0,0,0-.073.219.065.065,0,0,0-.074.073q0,.585-.62.584t-.621-.657a2.806,2.806,0,0,0,.147-.365.634.634,0,0,1,.073-.292,3.9,3.9,0,0,1,.219-.512l.437-.948q.44-1.1.8-1.9c.146-.388.292-.8.437-1.241q-.291.147-.584.292a13.512,13.512,0,0,0-2.481,1.606,11.893,11.893,0,0,0-2.045,2.118,3.511,3.511,0,0,0-.949,2.117v.146a1.73,1.73,0,0,0,.219.84,4.758,4.758,0,0,0,.8.985q.147.146,2.409,2.117.8.729,1.387,1.314.366.509.585.877a3.44,3.44,0,0,1,.438.948q2.043-1.24,4.453-2.7l2.409-1.46,1.168-.73.657-.365.292-.219a3.862,3.862,0,0,1,.365-.219.592.592,0,0,1,.84.329m-12.958,8.8v-.218q-1.025.582-1.826,1.022-1.461.8-2.627,1.314c-.536.193-1,.365-1.388.51-.243.048-.51.1-.8.147a.425.425,0,0,1-.292.073,1.907,1.907,0,0,0,.219.438,2.031,2.031,0,0,0,.876.8,1.518,1.518,0,0,0,1.1.293,2.925,2.925,0,0,0,1.168-.293,7.626,7.626,0,0,0,2.117-1.752,7.723,7.723,0,0,0,1.461-2.336M426.2,187.327a.064.064,0,0,1-.073.073Zm9.345-8.25.073.073v-.073Z"/><path class="a" d="M461.9,188.933a.575.575,0,0,1,.073.8q-1.023,1.824-1.9,3.14-1.314,1.969-2.264,3.139l-.731.729a4.732,4.732,0,0,1-.948.657,2.505,2.505,0,0,1-.656.292,2.468,2.468,0,0,1-.586.073.913.913,0,0,1-.512-.145,1.769,1.769,0,0,1-.875-.585,3.116,3.116,0,0,1-.437-.583q-.219-.657-.585-2.045c-.194-.779-.341-1.314-.436-1.606a1.61,1.61,0,0,0-.293-.511l-.073-.073H451.6a2.778,2.778,0,0,0-.584.219,14.451,14.451,0,0,0-1.24,1.022q-.588.585-1.241,1.241a37.322,37.322,0,0,0-2.336,2.921q-.439.583-1.023,1.532-.877,1.315-1.168,1.68v.073a1.41,1.41,0,0,1-1.022.328,1.287,1.287,0,0,1-.948-.474,1.167,1.167,0,0,1-.293-1.242l.073-.292v-.218l.145-.439.292-.876.512-1.752,1.022-3.431.875-2.847a.694.694,0,0,1-.583-.292.673.673,0,0,1-.073-.876c.146-.292.317-.608.51-.949.194-.243.391-.511.586-.8l.582-.876a6.692,6.692,0,0,1,.658-.8,1.391,1.391,0,0,1,.911-.51,1.032,1.032,0,0,1,.913.291,1.2,1.2,0,0,1,.512,1.241l-.073.439q-.366,1.023-1.094,3.358l-1.022,3.431-.439,1.46q.729-1.023.948-1.314c.487-.583.878-1.071,1.168-1.46a10.178,10.178,0,0,1,1.461-1.46,5.429,5.429,0,0,1,1.1-.657,2.531,2.531,0,0,1,.8-.146.89.89,0,0,1,.439-.036,2.833,2.833,0,0,1,.436.108,2.607,2.607,0,0,1,.8.439,3.271,3.271,0,0,1,.583.583,7.325,7.325,0,0,1,.583,1.1q.147.584.442,1.971a4.022,4.022,0,0,1,.143.876q.144.438.22.658c.147-.1.318-.208.51-.329a2.481,2.481,0,0,0,.585-.547,24.9,24.9,0,0,0,2.409-2.7c.341-.39.7-.852,1.1-1.387q.8-.95,1.241-1.46.363-.51.876-.073"/><path class="a" d="M476.645,188.86a.555.555,0,0,1,.145.876q-1.751,2.409-3.066,3.942a12.048,12.048,0,0,1-1.826,1.752q-.585.438-1.094.8c-.245.1-.463.193-.657.292a6.9,6.9,0,0,1-.8.219,2.688,2.688,0,0,1-.877,0,2.007,2.007,0,0,1-.876-.511,3.467,3.467,0,0,1-.8-1.46,11.733,11.733,0,0,1-.145-2.7V191.2q-.806,1.095-1.388,1.825a24.938,24.938,0,0,1-2.117,2.482,14.788,14.788,0,0,1-1.24,1.241,7.123,7.123,0,0,1-.877.585,3.5,3.5,0,0,1-1.314.437h-.074l-.437-.073a2.541,2.541,0,0,1-.766-.584,3.627,3.627,0,0,1-.549-.8,4.623,4.623,0,0,1-.218-1.46,7.817,7.817,0,0,1,.51-2.117,18.964,18.964,0,0,1,1.752-3.358,31.667,31.667,0,0,1,4.819-5.621,16.457,16.457,0,0,1,3.066-2.264,7.346,7.346,0,0,1,2.117-.73h.658a1.23,1.23,0,0,1,.365.073h.073l.147.073a.667.667,0,0,1,.292.073,2.023,2.023,0,0,1,.8.876,2.157,2.157,0,0,1,.147.8,4.063,4.063,0,0,1,0,1.1c-.05.291-.121.632-.219,1.022a18.234,18.234,0,0,1-.585,1.752c-.194.536-.413,1.094-.656,1.679a7.123,7.123,0,0,1-.439.876,7.43,7.43,0,0,1-.437.876.9.9,0,0,1-1.314.292v-.073q-.293,1.241-.438,2.044a10.379,10.379,0,0,0-.073,1.168,5.4,5.4,0,0,0,.073,1.022.794.794,0,0,0,.365.657l.146.147h.328a.9.9,0,0,0,.4-.11,2.485,2.485,0,0,1,.512-.182,10.45,10.45,0,0,0,.876-.659,15.186,15.186,0,0,0,1.752-1.532,43.514,43.514,0,0,0,3.066-3.723.556.556,0,0,1,.877-.146m-16.72,6.132c-.046.048-.046.085,0,.11a.527.527,0,0,0,.22.035h.219Zm4.017-3.066a27.78,27.78,0,0,0,1.9-2.482c.244-.34.559-.778.949-1.314l.438-.658.219-.364a3.385,3.385,0,0,0,.293-.438.806.806,0,0,1,1.241-.146.718.718,0,0,1,.292.438c.147-.389.291-.754.438-1.1q.217-.876.365-1.606c.048-.292.1-.535.145-.73v-.437a3.5,3.5,0,0,0-1.24.511,11.154,11.154,0,0,0-2.482,1.97,28.555,28.555,0,0,0-4.234,5.256,14.305,14.305,0,0,0-1.461,2.848,4.088,4.088,0,0,0-.292,1.314v.073a.569.569,0,0,0,.219-.073,4.6,4.6,0,0,0,1.169-.8,20.065,20.065,0,0,0,2.044-2.263"/><path class="a" d="M491.355,188.786c.413.049.594.292.547.73-.049.146-.122.34-.22.584a1.825,1.825,0,0,1-.218.438,2.914,2.914,0,0,1-.438.73,13.232,13.232,0,0,1-1.022,1.46q-1.021,1.388-2.189,2.7a42.06,42.06,0,0,1-4.965,4.891,24.518,24.518,0,0,1-2.993,1.971,10.253,10.253,0,0,1-1.826.73,4.6,4.6,0,0,1-2.116.22,3.64,3.64,0,0,1-1.168-.366,1.658,1.658,0,0,1-.586-.292l-.218-.145-.147-.147-.144-.146a2.415,2.415,0,0,1-.731-1.168,4.055,4.055,0,0,1-.292-1.1,7.28,7.28,0,0,1,0-2.044c.049-.634.122-1.241.219-1.825a22.553,22.553,0,0,1,1.1-3.5,17.451,17.451,0,0,1,.657-1.68,15.416,15.416,0,0,1,.8-1.533,23.5,23.5,0,0,1,1.9-3.066,16.13,16.13,0,0,1,2.556-2.774,5.319,5.319,0,0,1,1.824-1.023,3.39,3.39,0,0,1,2.483-.072,2.4,2.4,0,0,1,.693.438,1.655,1.655,0,0,1,.476.73,2.484,2.484,0,0,1,.292,1.241,7.747,7.747,0,0,1-.439,1.971,14.765,14.765,0,0,1-1.754,3.213,8.76,8.76,0,0,1-1.239,1.386,5.264,5.264,0,0,1-1.533,1.1.577.577,0,0,1-.876-.291.517.517,0,0,1,.217-.731l.075-.073a6.624,6.624,0,0,0,1.97-2.263,12.309,12.309,0,0,0,1.243-2.919,5.347,5.347,0,0,0,.216-1.315,1,1,0,0,0-.073-.438l-.07.073a1.251,1.251,0,0,0-.8.146,4.261,4.261,0,0,0-1.1.73,17.993,17.993,0,0,0-1.97,2.409,24.573,24.573,0,0,0-1.534,2.774,31.853,31.853,0,0,0-2.19,6.06q-.219.948-.291,1.533a4.582,4.582,0,0,0-.073,1.387,1.622,1.622,0,0,0,.073.512c.049.1.1.193.145.291v.073a.064.064,0,0,1,.073.073.81.81,0,0,1,.22.146,1.862,1.862,0,0,0,.437.219,4.193,4.193,0,0,0,2.628-.365,14.286,14.286,0,0,0,2.774-1.6,32.341,32.341,0,0,0,5.039-4.381,30.3,30.3,0,0,0,2.189-2.555A12.164,12.164,0,0,0,490,190.612a6.127,6.127,0,0,1,.366-.657,2.253,2.253,0,0,0,.217-.4.871.871,0,0,0,.074-.256c.047-.388.28-.559.694-.511"/><path class="a" d="M511.758,189.006a.55.55,0,0,1,.365.8,12.948,12.948,0,0,1-1.971,3.5,24.7,24.7,0,0,1-2.7,2.847,28.051,28.051,0,0,1-6.352,4.6,14.4,14.4,0,0,1-3.8,1.46,7.686,7.686,0,0,1-2.263.219h-.292a.66.66,0,0,1-.292-.073l-.584-.146a4.55,4.55,0,0,1-1.022-.438,8.261,8.261,0,0,1-3.359-2.92.916.916,0,0,1-.146-.219q-.582,2.042-1.021,3.723-.293,1.459-.512,2.628a24.1,24.1,0,0,0-.365,2.483,1.367,1.367,0,0,1-1.423,1.349,1.508,1.508,0,0,1-1.352-1.422q.075-1.17.366-2.92c.146-.83.34-1.753.585-2.775q.584-2.337,1.459-5.329,1.386-4.818,3.5-10.366,2.045-5.547,4.163-10.148a79.675,79.675,0,0,1,5.183-9.782,25.112,25.112,0,0,1,3.65-4.454,10.827,10.827,0,0,1,1.169-1.023,5.848,5.848,0,0,1,1.6-.729.55.55,0,0,1,.22-.073l.219-.074a1.907,1.907,0,0,1,.73,0,4.047,4.047,0,0,1,.8.22,5.65,5.65,0,0,1,.585.51,3.391,3.391,0,0,1,.584,1.1c.048.243.1.537.146.875a6.847,6.847,0,0,1-.073,1.68,11.639,11.639,0,0,1-.292,1.461c0,.049-.123.511-.365,1.386q-.294.876-.439,1.313a32.607,32.607,0,0,1-2.555,5.039,57.862,57.862,0,0,1-6.57,8.906q-1.825,2.046-3.8,3.943-1.754,1.679-3.139,2.92-.294.8-.658,1.9,1.021-.806,1.825-1.388a27.357,27.357,0,0,1,2.629-1.606,11.111,11.111,0,0,1,2.993-1.168,1.241,1.241,0,0,1,1.058.183,1.5,1.5,0,0,1,.62.876,1.355,1.355,0,0,1-.145,1.057,1.117,1.117,0,0,1-.876.585,12.889,12.889,0,0,0-2.409.948q-1.025.584-2.263,1.46A21.791,21.791,0,0,0,493,193.6a23.384,23.384,0,0,0-1.752,1.607,3.136,3.136,0,0,0,0,.948,6.516,6.516,0,0,0,.438,1.387,5.973,5.973,0,0,0,2.263,2.117,5.126,5.126,0,0,0,.73.365.667.667,0,0,0,.292.073.213.213,0,0,1,.147.073h.146a6.308,6.308,0,0,0,1.606-.073,15.531,15.531,0,0,0,3.358-1.168,26.289,26.289,0,0,0,6.132-3.943,22.455,22.455,0,0,0,2.629-2.626,11.742,11.742,0,0,0,1.971-2.994q.291-.584.8-.365m-14.527-12.047q-1.971,4.382-3.87,9.417a70.4,70.4,0,0,0,4.818-5.182q1.754-2.116,3.285-4.307a52.059,52.059,0,0,0,2.775-4.526,33.383,33.383,0,0,0,1.972-4.891,4.85,4.85,0,0,0,.365-1.241l.145-.584a2.343,2.343,0,0,0,.147-.659c.145-.729.218-1.141.218-1.239a9.017,9.017,0,0,0,.074-1.1,1.168,1.168,0,0,1-.074-.366,4.219,4.219,0,0,0-1.752,1.169,20.955,20.955,0,0,0-3.139,4.088,85.229,85.229,0,0,0-4.964,9.417"/><path class="a" d="M527.855,189.262a.572.572,0,0,1-.328.839.747.747,0,0,0-.292.146l-.292.146-.583.365-1.169.8-2.409,1.46q-2.7,1.752-4.818,3.067a6.743,6.743,0,0,1-.366,2.92,10.309,10.309,0,0,1-2.116,3.285,8.721,8.721,0,0,1-3.359,2.044,6.705,6.705,0,0,1-2.116.219,4.2,4.2,0,0,1-2.008-.84,4.362,4.362,0,0,1-1.351-1.642,2.482,2.482,0,0,1-.292-1.1,3.1,3.1,0,0,1,.073-.73,1.169,1.169,0,0,1,.512-.656.784.784,0,0,1,.584-.219,4.474,4.474,0,0,0,.51-.037,5.466,5.466,0,0,0,.585-.11,7.369,7.369,0,0,0,1.241-.511,27.087,27.087,0,0,0,2.482-1.167c.828-.391,1.726-.877,2.7-1.46v-.293l-.074-.146a1.854,1.854,0,0,0-.583-.949,10.161,10.161,0,0,0-1.022-1.021q-2.41-2.046-2.629-2.337a8.765,8.765,0,0,1-1.24-1.679,4.731,4.731,0,0,1-.365-1.1,3.384,3.384,0,0,1-.074-1.241,5.158,5.158,0,0,1,.439-2.044,6.764,6.764,0,0,1,1.021-1.679,14.465,14.465,0,0,1,2.556-2.629,21.055,21.055,0,0,1,2.993-1.97,11.34,11.34,0,0,1,3.576-1.169,1.136,1.136,0,0,1,.695.073,1.38,1.38,0,0,1,.547.438,1.611,1.611,0,0,1,.292.658v.364a.651.651,0,0,1-.073.292l-.073.146a1.23,1.23,0,0,0-.146.366c-.049.1-.146.267-.292.51-.049.05-.244.341-.585.876l-1.167,1.752q-.584.876-1.022,1.68c-.194.341-.365.632-.512.876-.048.146-.1.292-.144.438a.54.54,0,0,0-.073.219.065.065,0,0,0-.074.073c0,.39-.208.584-.621.584s-.62-.219-.62-.657a3.134,3.134,0,0,0,.146-.365.647.647,0,0,1,.073-.292,3.9,3.9,0,0,1,.219-.512l.438-.948q.438-1.1.8-1.9c.145-.388.292-.8.438-1.241l-.585.292a13.59,13.59,0,0,0-2.482,1.606,11.92,11.92,0,0,0-2.044,2.118,3.515,3.515,0,0,0-.948,2.117v.146a1.729,1.729,0,0,0,.219.84,4.745,4.745,0,0,0,.8.985q.145.146,2.409,2.117c.536.486,1,.924,1.388,1.314.243.339.439.632.583.877a3.358,3.358,0,0,1,.439.948q2.043-1.24,4.453-2.7l2.409-1.46,1.169-.73.657-.365.292-.219a3.618,3.618,0,0,1,.365-.219.589.589,0,0,1,.838.329m-12.958,8.8v-.218q-1.023.582-1.824,1.022-1.462.8-2.629,1.314c-.535.193-1,.365-1.387.51-.242.048-.51.1-.8.147a.426.426,0,0,1-.291.073,1.82,1.82,0,0,0,.217.438,2.036,2.036,0,0,0,.876.8,1.519,1.519,0,0,0,1.1.293,2.933,2.933,0,0,0,1.169-.293,8.6,8.6,0,0,0,3.576-4.088m-5.84-10.731a.064.064,0,0,1-.072.073Zm9.345-8.25.073.073v-.073Z"/></g></g></svg>