<svg xmlns="http://www.w3.org/2000/svg" width="39.69" height="35.834" viewBox="0 0 39.69 35.834"><defs><style>.a{fill:#fff;fill-rule:evenodd;}</style></defs><path class="a" d="M394.563,721.4a12.81,12.81,0,0,1,12.805,12.8c0,15.049-5.737,7.053-12.805,7.053s-12.8,7.787-12.8-7.053A12.809,12.809,0,0,1,394.563,721.4Z" transform="translate(-374.717 -707.549)"/><path class="a" d="M395.773,719.148c2.339.627,2.984,5.814,2.357,8.153a4.387,4.387,0,1,1-8.475-2.271C390.281,722.691,393.434,718.521,395.773,719.148Z" transform="translate(-358.665 -712.359)"/><path class="a" d="M381.79,719.069c2.148-.575,5.1,3.479,5.679,5.627a4.029,4.029,0,0,1-7.784,2.087C379.11,724.635,379.642,719.644,381.79,719.069Z" transform="translate(-379.469 -712.505)"/><path class="a" d="M390.609,716.9c2.225,0,4.029,4.683,4.029,6.905a4.027,4.027,0,1,1-8.055,0C386.583,721.579,388.387,716.9,390.609,716.9Z" transform="translate(-364.721 -716.896)"/><path class="a" d="M386.679,716.9c2.225,0,4.029,4.683,4.029,6.905a4.029,4.029,0,0,1-8.057,0C382.65,721.579,384.457,716.9,386.679,716.9Z" transform="translate(-372.874 -716.896)"/></svg>