<svg xmlns="http://www.w3.org/2000/svg" width="32.229" height="32.814" viewBox="0 0 32.229 32.814">
  <g id="Grupo_7" data-name="Grupo 7" transform="translate(4.936 -2.76) rotate(21)">
    <path id="Caminho_19" data-name="Caminho 19" d="M391.847,721.405a10.092,10.092,0,0,1,10.088,10.086c0,11.856-4.52,5.556-10.088,5.556s-10.086,6.135-10.086-5.556A10.091,10.091,0,0,1,391.847,721.405Z" transform="translate(-376.212 -710.489)" fill="#ef6e00"/>
    <path id="Caminho_20" data-name="Caminho 20" d="M394.443,719.134c1.842.494,2.351,4.581,1.857,6.423a3.456,3.456,0,1,1-6.677-1.789C390.116,721.926,392.6,718.64,394.443,719.134Z" transform="translate(-365.209 -713.786)" fill="#ef6e00"/>
    <path id="Caminho_21" data-name="Caminho 21" d="M381.3,719.057c1.692-.453,4.019,2.741,4.474,4.433a3.174,3.174,0,0,1-6.132,1.644C379.186,723.442,379.6,719.51,381.3,719.057Z" transform="translate(-379.469 -713.886)" fill="#ef6e00"/>
    <path id="Caminho_22" data-name="Caminho 22" d="M389.754,716.9c1.753,0,3.174,3.689,3.174,5.44a3.173,3.173,0,1,1-6.345,0C386.583,720.586,388,716.9,389.754,716.9Z" transform="translate(-369.359 -716.896)" fill="#ef6e00"/>
    <path id="Caminho_23" data-name="Caminho 23" d="M385.824,716.9c1.753,0,3.174,3.689,3.174,5.44a3.174,3.174,0,0,1-6.348,0C382.65,720.586,384.074,716.9,385.824,716.9Z" transform="translate(-374.948 -716.896)" fill="#ef6e00"/>
  </g>
</svg>
