<svg xmlns="http://www.w3.org/2000/svg" width="25.625" height="25.619" viewBox="0 0 25.625 25.619">
  <path id="Caminho_415" data-name="Caminho 415" d="M279.185-524.459H258.766a.6.6,0,0,0-.114-.045,2.857,2.857,0,0,1-2.084-1.469,7.308,7.308,0,0,1-.4-1.087v-20.414a.968.968,0,0,0,.048-.14,2.985,2.985,0,0,1,2.921-2.46q9.845,0,19.691,0a2.981,2.981,0,0,1,2.962,2.962q.005,9.843,0,19.686a2.8,2.8,0,0,1-1.425,2.509A7.044,7.044,0,0,1,279.185-524.459Zm-6.1-2h5.456c.863,0,1.24-.373,1.24-1.228q0-9.58,0-19.161c0-.844-.379-1.227-1.216-1.227H259.38a1.054,1.054,0,0,0-1.214,1.2q0,9.605,0,19.21a1.051,1.051,0,0,0,1.191,1.2h10.6v-8.168h-2.972v-3.1h2.989c0-.46-.006-.893,0-1.325a11.252,11.252,0,0,1,.055-1.446,4.469,4.469,0,0,1,2.924-3.68c1.188-.484,2.432-.229,3.659-.306v3.111c-.657,0-1.3,0-1.939,0a1.5,1.5,0,0,0-1.595,1.552c-.013.658,0,1.317,0,1.976a.761.761,0,0,0,.025.129h3.583l-.513,3.1H273.09Z" transform="translate(-256.164 550.077)" fill="#ed7520"/>
</svg>
