<svg xmlns="http://www.w3.org/2000/svg" width="25.575" height="25.619" viewBox="0 0 25.575 25.619">
  <g id="Grupo_40" data-name="Grupo 40" transform="translate(-692.222 635.685)">
    <path id="Caminho_416" data-name="Caminho 416" d="M717.786-627.635a9.348,9.348,0,0,0-.764-3.989,6.411,6.411,0,0,0-4.6-3.69,23.867,23.867,0,0,0-2.645-.318c-.231-.026-.464-.036-.7-.053h-8.2c-.54.034-1.08.06-1.619.1a7.583,7.583,0,0,0-4.52,1.7,6.742,6.742,0,0,0-2.258,4.061,27.747,27.747,0,0,0-.257,4.859c-.006,1.842-.014,3.684.008,5.526a17.567,17.567,0,0,0,.291,3.729,6.6,6.6,0,0,0,5.33,5.334,17.775,17.775,0,0,0,3.828.294q3.338.033,6.676,0a17.993,17.993,0,0,0,3.8-.288,6.567,6.567,0,0,0,5.359-5.385,13.084,13.084,0,0,0,.254-2.6C717.807-621.451,717.8-624.543,717.786-627.635Zm-2.3,9.2a9.708,9.708,0,0,1-.286,2.549,4.317,4.317,0,0,1-3.541,3.256,21.683,21.683,0,0,1-3.835.236c-.925.023-1.85,0-2.776,0q0,.023,0,.045c-1.841-.045-3.683-.069-5.524-.142a5.438,5.438,0,0,1-2.82-.813,4.253,4.253,0,0,1-1.911-3.034,16.72,16.72,0,0,1-.2-2.411q-.036-4.126,0-8.253a11.222,11.222,0,0,1,.279-2.8,4.3,4.3,0,0,1,3.689-3.336,24.035,24.035,0,0,1,4.188-.21c1.984-.006,3.968-.015,5.952.012a13.671,13.671,0,0,1,3.252.286,4.293,4.293,0,0,1,3.342,3.6,16.99,16.99,0,0,1,.213,3.286Q715.515-622.294,715.482-618.431Z" fill="#ed7520"/>
    <path id="Caminho_417" data-name="Caminho 417" d="M822.637-511.876a6.615,6.615,0,0,0-6.587,6.583,6.617,6.617,0,0,0,6.6,6.6,6.615,6.615,0,0,0,6.586-6.584A6.616,6.616,0,0,0,822.637-511.876Zm0,10.846a4.239,4.239,0,0,1-4.251-4.253,4.244,4.244,0,0,1,4.247-4.26,4.248,4.248,0,0,1,4.266,4.268A4.244,4.244,0,0,1,822.638-501.03Z" transform="translate(-117.611 -117.592)" fill="#ed7520"/>
    <path id="Caminho_418" data-name="Caminho 418" d="M1054.5-547.542a1.534,1.534,0,0,0-1.542,1.534,1.517,1.517,0,0,0,1.526,1.542,1.534,1.534,0,0,0,1.551-1.526A1.55,1.55,0,0,0,1054.5-547.542Z" transform="translate(-342.623 -83.717)" fill="#ed7520"/>
  </g>
</svg>
