<svg xmlns="http://www.w3.org/2000/svg" width="23.048" height="23.038" viewBox="0 0 23.048 23.038">
  <g id="Grupo_107" data-name="Grupo 107" transform="translate(37.958 -149.716)">
    <path id="Caminho_551" data-name="Caminho 551" d="M70.875,247.074h4.564V249.1l.059.013c.107-.157.207-.321.323-.471a4.956,4.956,0,0,1,3.608-1.92,7.431,7.431,0,0,1,2.727.231,4.451,4.451,0,0,1,3.2,3.374,11.42,11.42,0,0,1,.383,2.971c.021,2.98.01,5.961.011,8.941,0,.046-.005.091-.009.158H80.96v-.33c0-2.343.016-4.686-.009-7.029a13.43,13.43,0,0,0-.2-2.37,2.146,2.146,0,0,0-2.622-1.776,2.476,2.476,0,0,0-2.379,2.462,12.409,12.409,0,0,0-.108,1.708c-.012,2.343,0,4.686,0,7.029v.347h-4.76Z" transform="translate(-100.659 -89.69)" fill="#ed7520"/>
    <path id="Caminho_552" data-name="Caminho 552" d="M-27.907,267.236H-32.66V251.871h4.753Z" transform="translate(-4.9 -94.483)" fill="#ed7520"/>
    <path id="Caminho_553" data-name="Caminho 553" d="M-35.192,155.28a2.791,2.791,0,0,1-2.766-2.8,2.784,2.784,0,0,1,2.776-2.762,2.792,2.792,0,0,1,2.772,2.771A2.8,2.8,0,0,1-35.192,155.28Z" fill="#ed7520"/>
  </g>
</svg>
