<svg xmlns="http://www.w3.org/2000/svg" width="78.833" height="80.841" viewBox="0 0 78.833 80.841"><defs><style>.a{fill:#f7a00e;fill-rule:evenodd;}.b{fill:#fff;stroke:#fff;stroke-miterlimit:10;stroke-width:0.25px;}</style></defs><g transform="translate(-57.201 -508.654)"><g transform="translate(57.201 508.654)"><path class="a" d="M136.034,548.766c0,4.238-2.718,8.215-3.96,12.041a38.79,38.79,0,0,1-5.342,11c-2.426,3.331-5.649,5.821-8.982,8.245-3.3,2.4-6.085,6.45-10.048,7.736A42.65,42.65,0,0,1,95.02,589.5c-4.238,0-8.338-2.055-12.162-3.3-3.966-1.288-8.215-2.443-11.514-4.844-3.333-2.426-4.039-7.359-6.465-10.692a32.585,32.585,0,0,1-7.162-21.9c0-4.238-1.193-8.282.049-12.105,1.288-3.966,4.113-6.929,6.515-10.228,2.424-3.333,4.074-7.359,7.407-9.783,3.3-2.4,6.626-5.818,10.59-7.1,3.825-1.242,8.5-.824,12.743-.824a40.425,40.425,0,0,1,12.308,2.17c3.964,1.288,6.469,5.085,9.77,7.486,3.331,2.426,6.5,4.53,8.929,7.863,2.4,3.3,6.564,5.935,7.852,9.9A42.555,42.555,0,0,1,136.034,548.766Z" transform="translate(-57.201 -508.654)"/></g><g transform="translate(69.228 523.059)"><path class="b" d="M101.211,526.324a4.891,4.891,0,0,0-1.172-1.86c-1.528-1.195-4.079-.706-5.126-2.212-1.307-2.03-4.193-2.064-6.617-1.81-1.146.1-2.46,1.337-3.591,1.415-1.619.14-3.055-.856-4.687-.708-1.924.163-4.172.61-4.886,2.4-.8,1.9-3.846,1.415-5.3,2.941-.989.947-1.017,2.424-1,3.8,0,1.208,1.492,1.907,1.5,3.125.006.953-1.464,2.367-1.464,3.329a5.237,5.237,0,0,0,.771,3.138c1.477,1.86,4.644.778,6.78,1.924,1.413.792,2.256,2.608,3.875,3.081,2.346.706,5.435-1.937,7.119-.042,1.074,1.286,3.252.538,4.587-.538s2.744-2.468,4.4-2.206c2.63.439,4.695-2.276,5.445-4.835.536-1.86-.383-4.108-.523-6.058C101.183,529.413,101.9,527.964,101.211,526.324Zm-1.674,11.312a7.8,7.8,0,0,1-3.931,1.7c-1.4.29-2.905-.453-3.88.65-.6.706-1.026,1.767-1.917,2.044-1.987.572-4.157-2.828-5.556-1.316-.975,1.1-2.827.545-3.945-.331s-2.165-2.142-3.67-2.269a14.364,14.364,0,0,0-2.918.346c-1.011.083-2.178-.481-2.206-1.415a1.863,1.863,0,0,1,.409-1.2c1.415-2.254,2.3-1.668,1.839-3.117s-2.687-.828-2.827-2.191a2.34,2.34,0,0,1,1.754-2.121,17.451,17.451,0,0,0,2.827-.849c1.314-.672,2.007-2.121,3.04-3.21s2.827-1.816,3.952-.792c2.212,2.121,5.937-2.028,8.689-.706a9.838,9.838,0,0,1,1.873,1.6c1.612,1.648,5.38,1.337,6.278,2.064s-1.081,3.727-.941,5.38,2.113,4.687,1.132,5.74Z" transform="translate(-58.839 -512.621)"/><path class="b" d="M116.1,540.39c-.375-12.993-10.109-21.972-19.413-23.682a29.108,29.108,0,0,0-6.7-.4c-10.893.487-22.453,6.524-25.534,17.016a29.914,29.914,0,0,0-.473,12.457c1,7.6,8.369,22.438,27.875,22.438S116.472,553.349,116.1,540.39ZM92.662,565.367c-15.334,0-25.521-10.1-25.223-19.087A30.763,30.763,0,0,0,92.2,557.224c6.611-.509,15.15-4.242,20.248-10.69C112.5,552.253,107.975,565.367,92.662,565.367Zm20.063-24.361c-.975,5.07-5.308,8.844-9.959,11.014A29.978,29.978,0,0,1,79,552.6c-5.748-2.367-12.075-8.632-11.579-14.845.614-7.84,7.119-14.429,14.484-16.966,5.657-2.009,12.238-1.508,17.985.246a21.993,21.993,0,0,1,7.17,3.96,17.471,17.471,0,0,1,4.948,8.285A16.059,16.059,0,0,1,112.725,541.006Z" transform="translate(-63.551 -516.26)"/><circle class="b" cx="1.845" cy="1.845" r="1.845" transform="translate(18.609 19.189)"/><circle class="b" cx="1.605" cy="1.605" r="1.605" transform="translate(34.609 16.651)"/><circle class="b" cx="1.52" cy="1.52" r="1.52" transform="translate(27.129 17.348)"/><circle class="b" cx="1.52" cy="1.52" r="1.52" transform="translate(28.999 12.162)"/><circle class="b" cx="1.52" cy="1.52" r="1.52" transform="translate(22.112 13.372)"/><circle class="b" cx="1.605" cy="1.605" r="1.605" transform="translate(23.946 21.729)"/><circle class="b" cx="1.52" cy="1.52" r="1.52" transform="translate(31.566 22.542)"/></g></g></svg>