<svg xmlns="http://www.w3.org/2000/svg" width="82.52" height="80.841" viewBox="0 0 82.52 80.841"><defs><style>.a{fill:#f7a00e;}.a,.b{fill-rule:evenodd;}.b{fill:#fff;}</style></defs><g transform="translate(-63.284 -404.422)"><g transform="translate(63.284 404.422)"><path class="a" d="M145.8,445.646c0,4.324-.133,8.82-1.4,12.721a42.637,42.637,0,0,1-5.549,11.693c-2.475,3.4-7.663,4.138-11.061,6.614a36.993,36.993,0,0,1-10.557,5.85c-3.9,1.267-7.659,2.74-11.983,2.74s-8.119-1.36-12.019-2.628a37.59,37.59,0,0,1-10.821-5.551c-3.4-2.473-6.994-4.565-9.469-7.966-2.45-3.366-5.844-6.606-7.156-10.649a43.188,43.188,0,0,1-2.5-12.823c0-4.324,4.567-7.84,5.835-11.743,1.312-4.044.2-9.22,2.651-12.585,2.475-3.4,7.931-3.692,11.332-6.167a35.509,35.509,0,0,1,10.443-5.543c3.9-1.267,7.386-5.186,11.71-5.186s9.03.153,12.933,1.42c4.044,1.312,7.058,5.2,10.425,7.653a39.941,39.941,0,0,1,8.994,8.648c2.45,3.366,3.862,7.265,5.176,11.308C144.05,437.354,145.8,441.322,145.8,445.646Z" transform="translate(-63.284 -404.422)"/></g><path class="b" d="M72.669,429.027c1.544-2.412,3.455-3.924,5.244-6.683.945-1.254,1.688-1.345,2.531-.52l6.656,6.159c1.2,1.226,1.813,1.569,2.79.13,5.948-8.5,16.05-16.3,20.531-19.5,1.918-1.265,2.248.041,2.608.49,1.249,1.89,3.476,5.636,3.991,8.24.252,1.386.645,2.57-.9,3.427-8.039,4.079-18.42,15.95-25.338,24.965a1.984,1.984,0,0,1-3.014,0A64.512,64.512,0,0,0,73.554,432.58c-1.663-.978-2.094-1.7-.885-3.553Z" transform="translate(9.926 17.585)"/></g></svg>