<svg xmlns="http://www.w3.org/2000/svg" width="81.753" height="47.234" viewBox="0 0 81.753 47.234"><defs><style>.a{fill:#327675;fill-rule:evenodd;}</style></defs><path class="a" d="M108.63.112a.766.766,0,0,1,.294,1.458c-3.964,1.861-7.275,7.2-9.5,18C96.681,32.838,85.487,38.1,76.849,36.432a47.2,47.2,0,0,0-.742,7.264,3.619,3.619,0,0,1-3.626,3.536h-.055a3.649,3.649,0,0,1-3.612-4.019,35.775,35.775,0,0,1,16.2-26.98,34.733,34.733,0,0,0-14.51,10.381,2.364,2.364,0,0,1-4.171-1.269l-.005-.058C64.371,6.6,86.806-1.031,108.63.112M27.985,17.267a.653.653,0,0,1,.252-1.243c18.592-.975,37.708,5.529,36.04,21.449a1.582,1.582,0,0,1-2.92.64,29.2,29.2,0,0,0-13-9.658,31.232,31.232,0,0,1,10.711,12,4.469,4.469,0,0,1-2.682,6.273c-7.471,2.108-17.855-2.26-20.3-14.125-1.9-9.2-4.719-13.75-8.1-15.333" transform="translate(-27.61 0)"/></svg>