<svg xmlns="http://www.w3.org/2000/svg" width="169.368" height="7.717" viewBox="0 0 169.368 7.717"><defs><style>.a{fill:#327675;}</style></defs><g transform="translate(294.489 -326.163)"><path class="a" d="M-125.319,327.587c.251.037.161-.382.2-.457C-125.539,327.223-125.308,327.7-125.319,327.587Z"/><path class="a" d="M-129.446,328.538l.073-.171-.608.419Z"/><path class="a" d="M-133.306,328.531c.365.713,1.4-.116,2.086.138l.113.163.311-.574A8.151,8.151,0,0,1-133.306,328.531Z"/><path class="a" d="M-135.364,326.987c.127.278-.446.239.48.087a.64.64,0,0,1-.087-.071A2.41,2.41,0,0,1-135.364,326.987Z"/><path class="a" d="M-134.971,327c.406-.02-.266-.233,0,0Z"/><path class="a" d="M-136.725,326.594c-.549.136-.436.3-.124.568l.536-.248C-136.425,326.75-136.9,326.713-136.725,326.594Z"/><path class="a" d="M-137.356,327.683l.277-.105C-137.128,327.51-137.2,327.486-137.356,327.683Z"/><path class="a" d="M-136.809,327.5c-.048.212.068.009.319-.141l-.589.221C-137,327.694-136.993,327.925-136.809,327.5Z"/><path class="a" d="M-136.157,327.466c.3.155.688.253.151.5C-134.982,327.868-135.133,327.366-136.157,327.466Z"/><path class="a" d="M-133.5,329.269l.4.209.348-.239C-132.928,329.357-133.528,329.045-133.5,329.269Z"/><path class="a" d="M-140.184,326.793c-.034.152.18.4.22.6l.4-.174C-139.772,327.114-140.157,327.018-140.184,326.793Z"/><path class="a" d="M-139.964,327.392l-.592.261C-140.028,327.683-139.931,327.559-139.964,327.392Z"/><path class="a" d="M-137.452,328.476l.972-.548-1.159.555Z"/><path class="a" d="M-142.706,326.953l.262-.18.336-.352Z"/><path class="a" d="M-143.944,326.835c.249-.291-.34-.492-.077-.672a2.456,2.456,0,0,0-1.068.527A1.34,1.34,0,0,1-143.944,326.835Z"/><path class="a" d="M-145.615,327.018a3.059,3.059,0,0,0,.526-.328A1.562,1.562,0,0,0-145.615,327.018Z"/><path class="a" d="M-142.03,327.144l.233.427.233.007A.711.711,0,0,0-142.03,327.144Z"/><path class="a" d="M-141.789,327.585l-.008-.014c-.253-.009-.428-.019-.5-.024C-142.235,327.551-142.082,327.562-141.789,327.585Z"/><path class="a" d="M-141.564,327.578c.022.041.036.056.059,0Z"/><path class="a" d="M-139.374,328.949c.249-.293-.152-.5.371-.86C-139.351,328.328-140.076,328.584-139.374,328.949Z"/><path class="a" d="M-140.541,327.815l-.675.3.628.1C-140.6,328.1-140.714,327.934-140.541,327.815Z"/><path class="a" d="M-141.524,328.249l.308-.136-.233-.036Z"/><path class="a" d="M-144.538,327.418a1.771,1.771,0,0,1-.9.231,4.762,4.762,0,0,0,1.084.129C-144.308,327.643-144.153,327.4-144.538,327.418Z"/><path class="a" d="M-143.2,327.537c-.019.009-.043.014-.061.024C-143.226,327.6-143.2,327.609-143.2,327.537Z"/><path class="a" d="M-148.692,327.724c0-.025.007-.049.012-.074l-.065,0C-148.727,327.67-148.711,327.7-148.692,327.724Z"/><path class="a" d="M-144.3,327.857a.557.557,0,0,0,.586-.154,3.367,3.367,0,0,1-.646.075C-144.38,327.838-144.385,327.878-144.3,327.857Z"/><path class="a" d="M-146.537,327.218a3.157,3.157,0,0,0,.469.235C-146.206,327.317-146.487,327.106-146.537,327.218Z"/><path class="a" d="M-143.354,327.443a.218.218,0,0,1,.041-.019C-143.4,327.332-143.391,327.377-143.354,327.443Z"/><path class="a" d="M-143.712,327.7a1.922,1.922,0,0,0,.449-.142.515.515,0,0,1-.091-.118A1.528,1.528,0,0,0-143.712,327.7Z"/><path class="a" d="M-149.332,328.29c.217.217,1.378.506.854.865-.823.2-.674-.14-1.074-.35.34.494-1.047.718-.868,1.444l.722-.255c.013.112-.248.293-.048.4a.874.874,0,0,1,1.372-.338c.6-.3.209-1.6-.318-2.328C-148.711,327.9-148.711,328.057-149.332,328.29Z"/><path class="a" d="M-148.68,327.65l1.259.055-.088.06.256-.049a2.252,2.252,0,0,1-.884-.538C-148.562,327.371-148.651,327.518-148.68,327.65Z"/><path class="a" d="M-146.041,327.479h.006v.007c.052.053.069.086.01.055,0,.005-.018.007-.025.009a.535.535,0,0,1-.055.162c-.35-.089-.055-.112.055-.162a.428.428,0,0,0,.015-.064l-.005-.006-1.212.237a3.932,3.932,0,0,0,1.147,0c-.2.431-.813.614-.437,1.08.75-.029.526-.36.974-.547-1.211.107.347-.239-.527-.484a3.062,3.062,0,0,1,.654-.114,4.48,4.48,0,0,1-.626-.2A.34.34,0,0,1-146.041,327.479Z"/><path class="a" d="M-140.021,329.875a.13.13,0,0,1-.039-.1C-140.138,329.828-140.168,329.864-140.021,329.875Z"/><path class="a" d="M-140,329.257l-.086.058a2.547,2.547,0,0,1-.993-.651,2.894,2.894,0,0,0,.556.951c.088-.06.162-.232.448-.188.249.13,0,.207.012.348C-139.887,329.661-139.455,329.466-140,329.257Z"/><path class="a" d="M-141.076,328.664c-.012-.032-.025-.06-.037-.093C-141.13,328.583-141.112,328.619-141.076,328.664Z"/><path class="a" d="M-143.843,329.359l-.026-.224c.574.088.45-.188.521-.361l-1.009.212Z"/><path class="a" d="M-148.727,326.977l-.583.643.449-.187Z"/><path class="a" d="M-150.124,327.091l-.346.239.3.157Z"/><path class="a" d="M-224.216,332.4l-.3.112A1.056,1.056,0,0,0-224.216,332.4Z"/><path class="a" d="M-222.068,332.424l.053-.2C-222.115,332.336-222.156,332.415-222.068,332.424Z"/><path class="a" d="M-182.4,327.531c-.432-.369-.915-.943-.863-.5l.133.434A1.028,1.028,0,0,1-182.4,327.531Z"/><path class="a" d="M-204.467,330.121c.041.042.083.088.126.132.105-.148.2-.286.292-.415C-204.175,329.927-204.318,330.022-204.467,330.121Z"/><path class="a" d="M-205.342,331.637a2.018,2.018,0,0,0,.57.28Z"/><path class="a" d="M-235.947,332.857l-.346.442C-235.751,333.3-235.99,333.074-235.947,332.857Z"/><path class="a" d="M-163.611,327.646a2.761,2.761,0,0,0-.931-.261C-164.093,327.634-163.73,328.008-163.611,327.646Z"/><path class="a" d="M-223.371,327.793c-.181.078-.259.167-.254.264C-223.438,327.982-223.332,327.9-223.371,327.793Z"/><path class="a" d="M-165.619,327.386c.066.043.13.066.2.1a2.455,2.455,0,0,1,.88-.1A.885.885,0,0,0-165.619,327.386Z"/><path class="a" d="M-278.491,332.5a.8.8,0,0,1-.1-.051C-278.6,332.5-278.554,332.508-278.491,332.5Z"/><path class="a" d="M-290.885,328.119a3.549,3.549,0,0,1,.508-.033A1.053,1.053,0,0,0-290.885,328.119Z"/><path class="a" d="M-155.452,327.3c.278-.028.044-.048,0,0Z"/><path class="a" d="M-154.21,329.224a.359.359,0,0,1,.111-.211A.284.284,0,0,0-154.21,329.224Z"/><path class="a" d="M-168.391,330.086h-.024C-168.332,330.17-168.346,330.154-168.391,330.086Z"/><path class="a" d="M-155.034,327.494a1.6,1.6,0,0,0-.355-.128A1.686,1.686,0,0,0-155.034,327.494Z"/><path class="a" d="M-155.09,327.289c.1.02.172.031.243.042C-154.812,327.259-154.843,327.214-155.09,327.289Z"/><path class="a" d="M-155.84,327.321a1.7,1.7,0,0,1,.451.045c-.055-.03-.078-.054-.063-.069C-155.534,327.3-155.649,327.313-155.84,327.321Z"/><path class="a" d="M-255.7,331.336a.456.456,0,0,1-.059-.041C-256.036,331.475-255.913,331.447-255.7,331.336Z"/><path class="a" d="M-189.641,332.037c.013,0,.02-.016.032-.021l-.041-.016Z"/><path class="a" d="M-190.64,332.36c.425-.54.668-.474.99-.36l-.331-1.251Z"/><path class="a" d="M-151.522,327.2c.478.881-1.985-.037-1.217.889-.565-.822-.979-.349-1.718-1.05.023.2.262.387-.39.287a.783.783,0,0,1-.143.179l-.044-.016c.014.008.023.017.036.024-.028.031-.03.037.014.009a.781.781,0,0,1,.332.307c-.324.465-1.359.45-1.71.69-.386-.1.162-.232-.049-.447l-.523.359c-.052-.449-1.027-.746-.117-1.009l-.819-.02a1.962,1.962,0,0,0-1.555-.163c-.387-.1-.977.5-.64.145l-1.285.278-.012-.112c-1.268-.057-2.61.744-4.06-.067a3.205,3.205,0,0,1-1.582.125l-.139-.389c-.548.136-1.646-.389-1.882.016-.591-1.045-2.66-.228-3.624-.413l-.036.507a7.434,7.434,0,0,0-2.123.319l.05.448c-.71.368-1.825-.319-2.949-.273.077-.171.362-.126.563-.023-1.342-1.013-2.831.737-4.048,0a.7.7,0,0,1-.735,0,.148.148,0,0,0,.075-.024.777.777,0,0,0-.125-.005c-.134-.077-.271-.167-.421-.239a1.368,1.368,0,0,0,.355.24,3.769,3.769,0,0,0-.937.178l-.148-.482c-.028.006-.051.006-.08.014-.341-.178-.275.228-.093.59a1.666,1.666,0,0,0-.459.291c-.278-.778-.913.261-1.291-.568-.234.4-1.748.3-1.933,1.155-.012-.111-.115-.163.073-.17a1.305,1.305,0,0,0-1.122.046l-.165-.613-.846.824c-.515-.374-.728-.59-.217-1.062-1.233.725-1,.273-2.049.992l.051-.4c-.375.015-.974.545-1.2.218-.838-.752-4.148-.1-6.3-.8.418,1.165-1-.523-1.085.381-.126-.276-.426-.432-.077-.671-1.1.271-1.65-.437-2.408.324-.126-.276.235-.4.123-.567-.088.059-.349.239-.463.075s.16-.232.334-.352c-1.122.047-1.235.9-1.317,1.694-.568-.378-.852-.325-1.262.2-.2-.26-.529-.534.169-.627-.393-.038-2.4-.383-2.436.257-.123-.162-.548-.048-.651.026a11.24,11.24,0,0,0-1.822-.035l.24.1c-.342.771-.719.172-1.415.265l.02-.079c-1.6-.556-.69.266-2.266-.368l.086.479c-.147,1.032-1.4-.608-2.311-.214l.33.274c-.5.353-1.4-1.4-1.9-1.531-.11-.09.172-.145.325-.211-1.313-.608-.17.629-1.149.775-.18-.339.233-.862-.426-.925-.328-.275-1.911,1.1-2.809.45.2.261.395.522-.06.718-.7.093-1.884-.987-2.513-.164a.289.289,0,0,1-.126-.2c-.532.212-1.73.353-2.051.8-.492-1.657-3.311.806-3.3-.722l-1.639.082.043-.157a1.86,1.86,0,0,0-1.785.632c-.242-.1-.066-.246-.046-.326a2.959,2.959,0,0,0-2.965.518l-.133-.5c-.348.288-2.212-.777-3.713-.2a.341.341,0,0,1,.165-.222c-1.688.581-4.042-1.375-4.66.43l-1.115.445c1.442.14-.214.783.379,1.083-.567.106-1.466-.545-.769-.637l.109.09c.256-.941-1.791-.334-1.753-.974-2.836.046-5.6-.475-8.258-.515l.307.731-.927-.041c-.243-.171-.327-.573.334-.542-.347-.415-1.108.347-1.127.506-1.295-.3.505-.853.108-.871l-.539.055.122.085c-.437.3-.476.616-1.271.58-.5-.147-.258-.451-.455-.479,0-.052-.066-.077-.3-.021l-1.168-.063.467.578c-.517.284-1.1-.031-.559.624-.791-1.009-4.355-.363-4.841-.676a3.853,3.853,0,0,1-2.327.363c.221.12.353.77-.412.69.28-1.34-1.4-.581-2.018-1.545.553.639-2.173.157-1.306,1.065-.638-.108-.039-.5-.523-.817-1.518.519-3.346-.337-5.223-.162-.029.176.285.445-.117.707l-.991-.88c-.37.087-.341,1.015-1.018.4.1.148.238.371-.01.427-3.677-.857-7.513.7-11.246-.908.506.341.169.375-.218.387.251.082,0,.435.044.673l-1.563-.662c-.285.662-1.676.045-1.839.677l.495-.113c-.658.746.921,1.659.825,2.617.737-.849,1.943,1.257,3.153.042.267.2-.228.308-.085.53.306-.41.676-.5,1.362-.312l-.077.1c1.927-.1,2.753.3,4.918.574l-.16-.473a1.607,1.607,0,0,1,.781.33c.534-.718-1.307-.04-.82-.832.617.964,3.281.014,3.7,1.109.716.006-.21-.548.506-.541l.189.3.181-.382a.812.812,0,0,1,.724.685c-.114-.03-.324.07-.446.091.608.35,1.716-.119,1.925-.005l-.688-.183c1.953-.277,4.338.112,6.225-.49l-.143-.224c1.441-.413,1.154.246,2.737.054l-.058.054a1.87,1.87,0,0,1,1.173-.31c-.4.262.751.509.227.8,1.563-.444.773-.348,1.8-1.179l.238.371a1.448,1.448,0,0,1,1.172-.609c-.648.319.5.565-.222.986,1.658.811,2.462-.819,3.223.367.761-1.026-1.435-.57-1.009-.789-.357-.336.629-.767,1.149-.664.53.023.9,1.313,2.234,1.293-.133-.005-.142.073-.274.069.5.261.977-.355,1.588.07.343-.62.795.036.893-.756l-1.222.183c.693-.206,1.343-1.133,2.484-.684a1.877,1.877,0,0,1-.662.487c.334.234.643-.154.989.085-.1.793-1.485.173-2.228.777.359.334,1.4-.574,1.032.284.536-1.091,1.313.137,2.215-.7l-.06.474a1.537,1.537,0,0,1,.7-.287l-.476.616c.731-.525,1.408.459,2.109.173-1.467.015-.329-.572-.95-.918,1.81-.635,1.041,1.241,3.067,1.014-.274.067-1.03-.285-.6-.505a2.637,2.637,0,0,1,1.132.529c1.342-.1-.206-.489.365-.78.457.578.659-.235,1.248-.421l0,.483c1.53.309.406-1.005,1.783-.632l-.582.67.718-.173-.149.548a2.031,2.031,0,0,1,1.79-.147c-.178-.34.1-.876.777-.891.463.287-.258.458.7.389-.217.3-.454.681-.872.237-.043.157-.214.3-.258.458.5.329,1.25.075,1.6.071a.814.814,0,0,1-.376-.113l1.392-.669c.219.182.046.327-.127.47.282-.053.477-.274.892-.316-.107.392-.082.8-.668.982l1.326-.435c.089.17.681.468.509.612.735.231,1.8-.76,2.778-.456a.593.593,0,0,1,.36-.2c.916.089,1.728.57,2.814.032l.616.7c.851-.159-.834-.886.582-1.151,1-.224.375.6.726.8.5-.355,1.366-1.076,2.287-.5-.305.133-.544.029-.829.081l.7.39c-.847.641-1.46.42-.8.968.1-1.358,2.728-.139,2.826-1.5l.462.286c-.132-.013-.153.067-.285.053.9.65.669-.982,1.828-.789.4.1.687.3.411.463l.9-.336c.262.026.2.262-.062.236l1.373-.108-.01.04a5.708,5.708,0,0,1,.856-.683c.349.2-.175.144-.085.314l.76-.329c.31.352-.32.693-.846.643.71,1.356.631-.342,2.164.45l-.718.172c.463.771,1.023.491,1.835.972-.193-.251-1.625-1.211-.8-1.549a.979.979,0,0,0,.984-.122c0,.483.439.364.983.337l-.037.64c.588-.185.541-.511.887-.8.656.063.792.559.946.976,1.05.1-.725-.794.518-.915a3.773,3.773,0,0,0,2.53-.4c.611.22-.107.391.112.574l.542-.51c.132.012.09.169.068.248.456-.2.037-.639.755-.813.193-.705,1.473,1.03,2.361.229.219.182-.106.392-.039.64a6.852,6.852,0,0,0,2.045-1.088l.852.42c-.626-.48.174-1.049.875-1.516a6.291,6.291,0,0,0-.54-.531l1.119-.344c.135.105.022.325-.161.592.076-.052.148-.105.205-.153.4.236.192.605-.094.963-.136-.126-.272-.261-.4-.4a1.853,1.853,0,0,0-.477,1.194.787.787,0,0,1,.366-.173c-.072.105-.118.2-.085.263s.155-.074.338-.237l.254.713.062-.283,1.463.446c1.047-.718,1.957-1.774,3.619-2.069-.412.523-.089.854-.111,1.474-.454-.656-1.287.279-2.148.145.449.069.35.365.236.468l1.536-.6c-.035.507.326.38.727.589-.3-1,1.145-.667,1.77-.974.039.337-.111.68-.874.6.841.754,1.087-1.176,1.913-.536-.186.008-.287-.043-.36.128.435-.3,1.5-.062,1.247.231l-.185.007c1.236.118,3.762.007,3.946-.844a6.663,6.663,0,0,1-.237,1.2l2.206-2.861c-.2.73.551,2.47-.474,2.883a1.559,1.559,0,0,0,1.279-.033c-.2-.1-.5-1.056-.226-1.123.753.814.523.435,1.451,1.129-.3-.157.033-1.3.508-1.266-.074.171.04,1.131-.134,1.25l1.184-1.125c-.3.2-.052.954.212,1.271-.122-.22,1.024.021,1.339-.09l-.5-.261c1.337.17,1.32-1.582,2.646-1.523-.161.233-.4,1.43.278,1.572.309-.576,1.368-2.771,2.541-3.214l.225.329.9-.375a20.885,20.885,0,0,1-2.991,3.4c.5.261.139.388.888.358.265.309-.408.468-.628.487l1.743.2c-.078-.673,1.333-.674,1.267-1.235l-1.894.7c-.077-.671,1.1-1.908,2.33-1.789.315.267-.235,1.2-.209,1.421.16-.232,1.173-.442,1.286-.278l-.524.359c.688.253,1.122-.891,1.949-.249.285.043.852.865.9.467a6.206,6.206,0,0,1-.246-3.716,9.31,9.31,0,0,1,1.823,1.112c.47.6-.705,1.434-.3,1.951.017-.184.277-.411.385-.483.3.156-.124.569.527.486.108-.682,1.324.057.308-.577.636-.194.676.14,1.424.111-.238-.441.671-1.5,1.309-1.694a.785.785,0,0,0,.175.5c1.305.062,2.006.371,3.223.377.112.165.7.365.449.658a1.183,1.183,0,0,1,.712-.368c.726.59-.837.092-.283.8.047-.4.97-.546,1.5-.794-.164-.612-1.235-.117-1.771.13,0-.844.93-1.727,2.2-2.118,1.011-.209.438.546.614.426,1.9.147,1.618-1.474,3.194-.865.626.537.029,1.07.167,1.457-.823.2-1.264-.341-1.822-.319l.687.254a1.313,1.313,0,0,1-1.111.159c.524.483,3.208.092,4.673.538.26-.18.71-.367.5-.583l-.463.075c-.426-.433.872-.6.285-.8a2.971,2.971,0,0,1,2.195-.539l.164.613c-.019-.179-.572-.365-.818-.178.365-.272,1.342.829,1.742.027l-.614-.425c.625-.308,1.4-.959,2.172-.766C-151.145,327.239-150.97,327.913-151.522,327.2Zm-107.146.884.183.127C-258.9,328.354-258.783,328.229-258.668,328.089Zm39.042,4.25c.231-.552.41-.288.757-.129C-219.072,332.311-219.478,332.624-219.626,332.339Zm16.054-1.392a.955.955,0,0,1,.649.1C-203.074,331.208-203.308,331.129-203.572,330.947Zm45.048-3.234c-.454-.188-.293-.114.021-.023A.155.155,0,0,0-158.524,327.713Z"/><path class="a" d="M-204.731,331.709a.57.57,0,0,1-.087-.262C-204.9,331.528-204.9,331.621-204.731,331.709Z"/><path class="a" d="M-235.883,332.775a.313.313,0,0,0-.032-.005.256.256,0,0,0-.032.087Z"/><path class="a" d="M-172.145,331.99a.789.789,0,0,1-.374-.249C-172.53,331.859-172.441,331.958-172.145,331.99Z"/><path class="a" d="M-152.572,327.079l-.6.126a.79.79,0,0,1,.543.158C-152.645,327.25-152.76,327.087-152.572,327.079Z"/><path class="a" d="M-147.337,330.065c.088-.059.187-.007.274-.067l-.025-.224C-147.463,329.789-147.725,329.97-147.337,330.065Z"/><path class="a" d="M-152.014,328.682c.048.406.427.269.849.193a.269.269,0,0,1-.075,0C-151.115,328.307-151.565,328.495-152.014,328.682Z"/><path class="a" d="M-151.067,328.862a1.345,1.345,0,0,1,.39-.011C-150.627,328.624-150.835,328.8-151.067,328.862Z"/><path class="a" d="M-156.367,327.63c.2.1.126-.518.239-.353C-155.9,326.76-157.463,327.9-156.367,327.63Z"/><path class="a" d="M-152.06,329.922l.388.1-.151-.5Z"/><path class="a" d="M-155.007,329.652l.675.138c-.01-.084.075-.133.181-.171C-154.567,329.6-155.023,329.5-155.007,329.652Z"/><path class="a" d="M-153.608,329.537a2.139,2.139,0,0,0-.543.082A.963.963,0,0,0-153.608,329.537Z"/><path class="a" d="M-153.27,330.029l.676.141-.2-.1Z"/><path class="a" d="M-162.263,329.555l-.737.144c-.075.171.126.276.4.208C-162.424,329.787-162.15,329.721-162.263,329.555Z"/><path class="a" d="M-160.36,330.546l-.023.621.348-.24C-160.235,330.823-160.248,330.711-160.36,330.546Z"/><path class="a" d="M-162.319,331.528c.074-.171.812-.314.135-.456C-162.257,331.244-163.253,331.567-162.319,331.528Z"/><path class="a" d="M-173.284,330.287l.187-.008-.027-1.018Z"/><path class="a" d="M-182.506,331.943c-.527.254-.8.11-.562.78.873.244.207-.628,1-.324C-181.867,332.158-182.716,332.151-182.506,331.943Z"/><path class="a" d="M-182.506,331.943a1.881,1.881,0,0,0,.269-.155A.819.819,0,0,0-182.506,331.943Z"/><path class="a" d="M-292.942,327.573l-.562-.212.362.342Z"/><path class="a" d="M-294.489,328.266c.127-.028.373-.084.469.062l-.132-.649Z"/><path class="a" d="M-217.749,333.154l.439.364.043-.156C-217.354,333.193-217.485,333.18-217.749,333.154Z"/><path class="a" d="M-224.923,333.032l.131.013-.245-.587Z"/><path class="a" d="M-231.313,333.781c.261.024.567-.107.829-.082C-231.052,333.8-231.384,333.049-231.313,333.781Z"/></g></svg>