<svg xmlns="http://www.w3.org/2000/svg" width="26.657" height="26.646" viewBox="0 0 26.657 26.646">
  <path id="Caminho_414" data-name="Caminho 414" d="M-1.494-558.237H.276a2.3,2.3,0,0,0,.252.048,12.419,12.419,0,0,1,4.882,1.394,13.156,13.156,0,0,1,7.157,9.964,12.582,12.582,0,0,1-.252,5.155,12.987,12.987,0,0,1-4.677,7.21,13.02,13.02,0,0,1-10.6,2.662,12.74,12.74,0,0,1-6.182-2.889,13.135,13.135,0,0,1-4.58-7.9c-.092-.509-.14-1.025-.208-1.538v-1.613a1.931,1.931,0,0,0,.044-.227,12.324,12.324,0,0,1,1.127-4.4,13.217,13.217,0,0,1,9.784-7.654C-2.489-558.121-1.989-558.167-1.494-558.237Zm-10.075,10.171a11.386,11.386,0,0,0,0,6.307h6.013a37.6,37.6,0,0,1,0-6.307Zm15.9,0a37.553,37.553,0,0,1,0,6.306h6.015a11.39,11.39,0,0,0,0-6.306Zm-7.96,0a35.437,35.437,0,0,0,0,6.3H2.406a35.573,35.573,0,0,0,0-6.3Zm.208-1.954H2.152a.887.887,0,0,0,0-.122,16.914,16.914,0,0,0-1.3-4.548,4.038,4.038,0,0,0-.972-1.4.639.639,0,0,0-.972,0,3.21,3.21,0,0,0-.51.585,10.276,10.276,0,0,0-1.346,3.325C-3.124-551.479-3.257-550.765-3.416-550.023Zm.028,10.215c.043.26.078.5.123.736A16.109,16.109,0,0,0-2.1-535.184a4.156,4.156,0,0,0,.976,1.427.644.644,0,0,0,1.027-.012,4.844,4.844,0,0,0,.732-.968,13.126,13.126,0,0,0,1.3-3.812c.087-.411.156-.826.236-1.26ZM-5.34-550.016a19.231,19.231,0,0,1,1.733-5.912,11.588,11.588,0,0,0-7.21,5.912Zm14.894,0c-.709-2.26-5.027-5.8-7.136-5.85a19.135,19.135,0,0,1,1.706,5.85ZM-3.6-533.9a19.183,19.183,0,0,1-1.737-5.9h-5.472A11.579,11.579,0,0,0-3.6-533.9Zm6-.016A11.214,11.214,0,0,0,6.619-536.1a11.239,11.239,0,0,0,2.962-3.708H4.12A19.114,19.114,0,0,1,2.4-533.915Z" transform="translate(13.933 558.237)" fill="#ed7520"/>
</svg>
