<svg xmlns="http://www.w3.org/2000/svg" width="120.411" height="48.472" viewBox="0 0 120.411 48.472"><defs><style>.a,.b{fill:#afa8a3;}.b{fill-rule:evenodd;}</style></defs><g transform="translate(11354.812 489.749)"><path class="a" d="M11.689,22.595a10.281,10.281,0,0,1,4.9.8,7.156,7.156,0,0,1,2.97,2.747,4.691,4.691,0,0,1,.466,1.04q.172.557.32,1.137a9.485,9.485,0,0,1,.3,1.985q.052,1.067.06,2.181l.026,5.186.038,7.56q0,.825-.016,1.648a1.052,1.052,0,0,1-.648,1.069,1.841,1.841,0,0,1-.509.124c-.178.017-.363.026-.557.026q-.63,0-1.212-.017A.949.949,0,0,1,17,47.673a1.458,1.458,0,0,1-.246-.871c0-.356,0-.711-.006-1.067l-.021-4.168-.04-7.9q-.006-1.31-.061-2.593a6.317,6.317,0,0,0-.448-2.2A3.7,3.7,0,0,0,15.008,27.3a5.938,5.938,0,0,0-1.8-.936,2.542,2.542,0,0,0-.606-.118A2.5,2.5,0,0,1,12,26.131a3.456,3.456,0,0,0-.751-.021,4.29,4.29,0,0,0-.7.077.554.554,0,0,1-.338.074.874.874,0,0,0-.34.026c-.419.1-.815.206-1.185.321a4.585,4.585,0,0,0-1.04.466,3.093,3.093,0,0,0-.339.195,3.075,3.075,0,0,1-.337.2,6.848,6.848,0,0,0-2.454,3.647,3.4,3.4,0,0,0-.19.8,6.42,6.42,0,0,1-.141.8.772.772,0,0,0-.046.461.608.608,0,0,1-.047.412L4.093,34.6a.747.747,0,0,0-.023.339,3.563,3.563,0,0,1,.026.436L4.1,36.833l.023,4.653.021,4.265c0,.355,0,.719.006,1.09a1.5,1.5,0,0,1-.237.9.972.972,0,0,1-.846.417c-.4.018-.816.027-1.236.03a5.081,5.081,0,0,1-.728-.045A1.169,1.169,0,0,1,.525,47.9a1,1,0,0,1-.392-.919c0-.452,0-.887-.007-1.308L.1,39.955.038,28.227.023,25.271c0-.291,0-.582-.005-.873a1.061,1.061,0,0,1,.191-.679.738.738,0,0,1,.482-.39c.129-.032.315-.066.557-.1A5.736,5.736,0,0,1,2,23.177a5.938,5.938,0,0,1,.752.044,1.316,1.316,0,0,1,.509.143.882.882,0,0,1,.489.846A2.962,2.962,0,0,0,3.9,25.348a.923.923,0,0,0,.391.482,1.01,1.01,0,0,0,.942-.441,3.8,3.8,0,0,1,.748-.778q.675-.489,1.376-.9A7.918,7.918,0,0,1,8.977,23a3.433,3.433,0,0,1,.847-.2,7.577,7.577,0,0,0,.9-.15A2.558,2.558,0,0,1,11.2,22.6l.485,0" transform="translate(-11354.813 -489.749)"/><path class="a" d="M46.558,46.07a1.758,1.758,0,0,1-.911,2.04,1.368,1.368,0,0,1-.508.1,1.745,1.745,0,0,0-.557.1,3.762,3.762,0,0,1-2.109-.11,2.914,2.914,0,0,1-1.434-.89,4,4,0,0,1-.44-.8,2.327,2.327,0,0,0-.488-.748c-.067-.064-.139-.129-.22-.193a.349.349,0,0,0-.315-.047,2.58,2.58,0,0,0-.991.538,10.069,10.069,0,0,1-.893.684,10.779,10.779,0,0,1-1.353.709,13.459,13.459,0,0,1-1.549.565,5.123,5.123,0,0,1-1.041.2c-.372.033-.734.084-1.089.151a2.124,2.124,0,0,1-.412.05l-.363,0a2.663,2.663,0,0,1-1.018,0l-.436,0a2.414,2.414,0,0,0-.485-.046.96.96,0,0,1-.437-.1.731.731,0,0,0-.315-.023.517.517,0,0,1-.266-.022c-.26-.064-.518-.119-.777-.166a3.476,3.476,0,0,1-.728-.214,8.721,8.721,0,0,1-2.358-1.418A5.913,5.913,0,0,1,23.576,44.2a6.786,6.786,0,0,1-.449-2.567l-.005-1.017c.03-.161.054-.331.07-.51s.038-.363.069-.558q.192-.532.383-1.068a4.46,4.46,0,0,1,.48-.971,5.314,5.314,0,0,1,2.364-2.1,26.078,26.078,0,0,1,3.289-1.229,9.927,9.927,0,0,1,1.4-.3q.726-.1,1.453-.25a2.4,2.4,0,0,1,.654-.1,2.93,2.93,0,0,0,.7-.1,3.5,3.5,0,0,1,.678-.125,4.143,4.143,0,0,0,.726-.125q1.209-.3,2.275-.519a2.688,2.688,0,0,0,1.691-1.1,3.392,3.392,0,0,0,.48-1,2.349,2.349,0,0,0-.007-1.332,4.64,4.64,0,0,0-.858-1.837,3.677,3.677,0,0,0-1.581-1.059,5.3,5.3,0,0,0-1.382-.332,13.871,13.871,0,0,0-1.672-.089,14.626,14.626,0,0,0-1.7.106,7.189,7.189,0,0,0-1.4.3,6.777,6.777,0,0,0-1.595.832,3.128,3.128,0,0,0-.7.755,6.552,6.552,0,0,0-.553,1c-.095.259-.183.534-.262.825a1.2,1.2,0,0,1-.457.681,1.522,1.522,0,0,1-.653.221,6.16,6.16,0,0,1-1.891.01,1.534,1.534,0,0,1-.655-.215.891.891,0,0,1-.293-.483,1.377,1.377,0,0,1,0-.727c.095-.42.2-.817.309-1.189a8.929,8.929,0,0,1,.406-1.093,7.285,7.285,0,0,1,2.313-2.652,12,12,0,0,1,3.481-1.544q.484-.1.993-.151t1.042-.151a2.414,2.414,0,0,1,.629-.027c.291.016.469-.01.533-.075a18.272,18.272,0,0,1,5.917.745,5.559,5.559,0,0,1,3.554,3.132,6.34,6.34,0,0,1,.52,2.251q.08,1.286.086,2.69l.054,10.71q0,.679.055,1.308a2.219,2.219,0,0,0,.3,1.016,1.317,1.317,0,0,0,.633.481,3.642,3.642,0,0,0,.825.263.8.8,0,0,1,.584.458.518.518,0,0,1,.1.29,2.063,2.063,0,0,0,.051.388M39.6,40.725a4.276,4.276,0,0,0,.307-1.576q.018-.9.015-1.866a9.374,9.374,0,0,0-.053-.97.925.925,0,0,0-.392-.676,1.463,1.463,0,0,0-.679-.094.467.467,0,0,1-.338.1.965.965,0,0,0-.436.1c-.259.067-.549.132-.871.2l-.968.2a2.263,2.263,0,0,0-.315.026,2.608,2.608,0,0,1-.364.026,6.848,6.848,0,0,1-1.573.226,6.961,6.961,0,0,0-1.575.226q-.387.1-.7.174t-.7.173A8.372,8.372,0,0,0,29.5,37.6a4.279,4.279,0,0,0-1.158.9,3.439,3.439,0,0,0-.72,1.288,5.145,5.145,0,0,0-.185,1.819,2.322,2.322,0,0,0,.174.9,3.678,3.678,0,0,0,.416.749,3.213,3.213,0,0,0,1.023.892,7.412,7.412,0,0,0,1.359.6,2.413,2.413,0,0,0,.485.045,2.5,2.5,0,0,1,.485.046,3.631,3.631,0,0,0,.849.117,2.628,2.628,0,0,0,.848-.077,1.447,1.447,0,0,1,.58-.075,1.427,1.427,0,0,0,.582-.076,6.886,6.886,0,0,1,.75-.148,2.68,2.68,0,0,0,.7-.2,9.26,9.26,0,0,0,2.391-1.418A5.228,5.228,0,0,0,39.6,40.725" transform="translate(-11354.813 -489.749)"/><path class="a" d="M50.713,15.322c.484,0,.97,0,1.455.017a1.255,1.255,0,0,1,1.019.406,1.33,1.33,0,0,1,.271.8c.017.339.027.687.029,1.042L53.5,20.4c0,.259-.005.525-.019.8a1.828,1.828,0,0,0,.076.7,1.192,1.192,0,0,0,.876.868,2.293,2.293,0,0,0,.461.046l.461,0c.355,0,.791-.011,1.307-.03a2.86,2.86,0,0,1,1.116.115,1.649,1.649,0,0,1,.584.578.975.975,0,0,1,.1.436c0,.162,0,.324,0,.485a9.629,9.629,0,0,1-.044.993,1.01,1.01,0,0,1-.335.706,1.317,1.317,0,0,1-.8.27c-.339.018-.7.02-1.067,0s-.736-.021-1.091-.019a2.624,2.624,0,0,0-.919.15.891.891,0,0,0-.483.487,2.748,2.748,0,0,0-.189.8,6.191,6.191,0,0,0-.019.969c.017.34.026.671.029.994l.048,9.6q0,1.066-.012,2.253a3.061,3.061,0,0,0,.42,1.815,1.259,1.259,0,0,0,.633.531,5.489,5.489,0,0,0,.922.237.664.664,0,0,0,.316.022.733.733,0,0,1,.315.023l.63,0a5.257,5.257,0,0,1,.9.068.873.873,0,0,1,.608.361,1.578,1.578,0,0,1,.172.507,5.705,5.705,0,0,1,.1.751,3.974,3.974,0,0,1-.02.751,1.2,1.2,0,0,1-.191.559,1.123,1.123,0,0,1-.725.488,2.9,2.9,0,0,1-.872.077c-.324-.013-.614-.02-.872-.019q-.291,0-.582.027a1.894,1.894,0,0,1-.533-.021l-.582,0c-.162-.032-.315-.055-.46-.072a4.5,4.5,0,0,0-.461-.021,11.948,11.948,0,0,1-1.675-.525,2.634,2.634,0,0,1-1.192-1.011,4.726,4.726,0,0,1-.788-2.445q-.1-1.476-.113-3.172l-.064-12.7a6.432,6.432,0,0,0-.271-.92,1.08,1.08,0,0,0-.7-.481.808.808,0,0,0-.388,0,.549.549,0,0,1-.389-.046l-.775,0a3.728,3.728,0,0,1-1.041-.116.809.809,0,0,1-.561-.555,1.238,1.238,0,0,1-.124-.435c-.017-.161-.025-.323-.026-.485a5.668,5.668,0,0,1,.091-1.139,1,1,0,0,1,.579-.7,3.081,3.081,0,0,1,1.38-.1,3.332,3.332,0,0,0,1.429-.1,1.714,1.714,0,0,0,.674-.682,2.307,2.307,0,0,0,.094-.728c0-.29,0-.564,0-.824l-.015-3q0-.387,0-.8a2.21,2.21,0,0,1,.093-.7,1.429,1.429,0,0,1,.724-.634,1.3,1.3,0,0,0,.266-.026,1.139,1.139,0,0,1,.218-.025" transform="translate(-11354.813 -489.749)"/><path class="a" d="M61.947,22.825l1.405-.007a1.194,1.194,0,0,1,1.019.382,1.967,1.967,0,0,1,.272.968q.027.582.031,1.163l.023,4.6.037,7.319q.006,1.066.011,2.2A6.983,6.983,0,0,0,65,41.42a4.949,4.949,0,0,0,2.923,3.039,5.585,5.585,0,0,0,2.57.3,7.98,7.98,0,0,0,2.421-.522,7.1,7.1,0,0,0,2.535-1.733,7.25,7.25,0,0,0,1.465-2.745,3.386,3.386,0,0,0,.189-.777q.046-.389.142-.825a1.41,1.41,0,0,0,.022-.437.883.883,0,0,1,.07-.436l0-1.017a2.676,2.676,0,0,0,.044-.9c-.033-.339-.051-.654-.052-.945l-.02-3.78-.026-5.137q0-.582-.031-1.236a1.809,1.809,0,0,1,.214-1.043.874.874,0,0,1,.458-.317c.177-.049.395-.107.654-.172l.727,0a9.982,9.982,0,0,1,1.042.043.9.9,0,0,1,.705.432.959.959,0,0,1,.245.7q0,.462,0,.946l.017,3.3.066,13.037.022,4.362c0,.387-.005.75-.018,1.089a.928.928,0,0,1-.36.754,1.415,1.415,0,0,1-.581.221,6.494,6.494,0,0,1-.847.1,5.113,5.113,0,0,1-.873-.02,1.252,1.252,0,0,1-.606-.19,1.636,1.636,0,0,1-.44-.628,3.219,3.219,0,0,1-.076-.534c-.017-.224-.042-.443-.076-.653a1.112,1.112,0,0,0-.2-.508.418.418,0,0,0-.437-.143,1.577,1.577,0,0,0-.773.561,4.057,4.057,0,0,1-.723.706,12.375,12.375,0,0,1-2.416,1.37A3.868,3.868,0,0,1,71.888,48a9.923,9.923,0,0,0-1.138.223,1.339,1.339,0,0,1-.509,0,.9.9,0,0,0-.508.052,1.972,1.972,0,0,1-.872,0l-.485,0a1.511,1.511,0,0,0-.558-.1,2.827,2.827,0,0,1-.558-.046.612.612,0,0,0-.364-.07.827.827,0,0,1-.412-.07c-.259-.064-.509-.127-.752-.191a3.9,3.9,0,0,1-.753-.287,6.121,6.121,0,0,1-2.115-1.419,7.146,7.146,0,0,1-1.392-2.149,4.419,4.419,0,0,1-.3-.9c-.066-.305-.132-.621-.2-.943a1.328,1.328,0,0,1-.075-.558,1.7,1.7,0,0,0-.077-.6.615.615,0,0,1-.049-.266,1,1,0,0,0-.05-.315l0-.485a1.342,1.342,0,0,1-.027-.46c.015-.177.022-.347.021-.508l-.009-1.939-.046-8.917-.015-3.1c0-.291,0-.581,0-.872a1.287,1.287,0,0,1,.19-.728,1.123,1.123,0,0,1,.725-.488.282.282,0,0,1,.194-.026.267.267,0,0,0,.194-.025" transform="translate(-11354.813 -489.749)"/><path class="a" d="M96.643,22.068q1.113,0,1.262.551a6.844,6.844,0,0,1,.155,1.622c0,.324,0,.63,0,.921a1.106,1.106,0,0,1-.237.729,1.033,1.033,0,0,1-.823.415,4.913,4.913,0,0,0-1.065.175q-.68.148-1.283.3a6.334,6.334,0,0,0-1.136.394,5.987,5.987,0,0,0-2.27,1.732,11.555,11.555,0,0,0-1.49,2.5,6.391,6.391,0,0,0-.285,1.093q-.094.558-.236,1.14a1.577,1.577,0,0,0-.022.484,1.646,1.646,0,0,1-.022.485,4.893,4.893,0,0,0-.115,1.334q.028.75.031,1.429l.031,5.961c0,.356,0,.727.006,1.115s-.013.76-.043,1.115a6.124,6.124,0,0,0-.02.92.93.93,0,0,1-.214.68.981.981,0,0,1-.75.391c-.337.035-.7.052-1.09.055l-.871,0c-.164-.064-.317-.12-.461-.167a.57.57,0,0,1-.316-.217,1.535,1.535,0,0,1-.272-.847q-.028-.507-.03-1.042l-.018-3.731-.069-13.424-.016-3.344c0-.355,0-.687.019-.994a1.479,1.479,0,0,1,.262-.8.91.91,0,0,1,.508-.293,4.042,4.042,0,0,1,.8-.125,5.2,5.2,0,0,1,.873.02,2.707,2.707,0,0,1,.68.142.805.805,0,0,1,.512.554,3.177,3.177,0,0,1,.125.871q0,.462,0,.97a2,2,0,0,0,.2.9.581.581,0,0,0,.1.146c.031.032.08.08.146.144a1.036,1.036,0,0,0,.869-.465c.226-.308.417-.559.578-.754l.29-.292a7.019,7.019,0,0,1,1.206-1.121,7.189,7.189,0,0,1,1.449-.879,3.751,3.751,0,0,1,.919-.368c.322-.082.662-.173,1.016-.272q.291-.049.582-.076a4.562,4.562,0,0,0,.533-.075" transform="translate(-11354.813 -489.749)"/><path class="a" d="M120.354,34.016a3.545,3.545,0,0,1,.029,1.09,1.439,1.439,0,0,1-.311.849,1.471,1.471,0,0,1-.7.27,6.62,6.62,0,0,1-1.042.079c-.388,0-.775,0-1.163-.018s-.727-.021-1.018-.02l-12.406.063c-.259,0-.518.011-.776.028a1.385,1.385,0,0,0-.629.173,1.1,1.1,0,0,0-.386.39,1.955,1.955,0,0,0-.191.413.678.678,0,0,0,0,.509,2.343,2.343,0,0,1,.049.435,1.609,1.609,0,0,0,.051.388c.066.259.132.524.2.8a3.586,3.586,0,0,0,.294.8,6.832,6.832,0,0,0,3.7,3.713,3.693,3.693,0,0,0,.63.239l.68.19a1.7,1.7,0,0,0,.485.046,8.383,8.383,0,0,0,3.586-.018q.678-.2,1.234-.418a4.92,4.92,0,0,0,1.039-.563,3.985,3.985,0,0,0,.916-.8,5.954,5.954,0,0,0,.674-1,7.436,7.436,0,0,0,.5-1.02,1.42,1.42,0,0,1,.747-.78,2.048,2.048,0,0,1,.629-.148,5.3,5.3,0,0,1,.872-.028c.292.014.566.038.824.068a.928.928,0,0,1,.535.191q.484.338.248,1.113a9.541,9.541,0,0,1-1.006,2.332,9.154,9.154,0,0,1-5.31,4.194,4.335,4.335,0,0,1-.968.272q-.484.075-1.017.174a2.241,2.241,0,0,1-.46.051,2.389,2.389,0,0,0-.46.051l-.484,0a3.054,3.054,0,0,1-.558.052,2.194,2.194,0,0,1-.509-.047l-.436,0a2.28,2.28,0,0,0-.436-.047,1.609,1.609,0,0,1-.389-.046,4.373,4.373,0,0,0-.533-.07,4.813,4.813,0,0,1-.534-.071c-.291-.062-.582-.134-.873-.213s-.566-.167-.825-.262a1.259,1.259,0,0,0-.34-.12,1.234,1.234,0,0,1-.34-.118q-.729-.337-1.555-.817a9.344,9.344,0,0,1-2.41-2.241,13.564,13.564,0,0,1-1.686-2.973,5.151,5.151,0,0,1-.37-1.112,10.479,10.479,0,0,0-.321-1.162,1.5,1.5,0,0,1-.051-.339,2.22,2.22,0,0,0-.049-.388,6.08,6.08,0,0,1-.151-.823,8.524,8.524,0,0,0-.149-.871l0-.679a3.43,3.43,0,0,1-.075-.556,2.354,2.354,0,0,1,.021-.606l0-.534a1.081,1.081,0,0,0,.069-.509,1.789,1.789,0,0,1,.022-.509q.189-.775.307-1.552a5.987,5.987,0,0,1,.406-1.456q.237-.534.454-1.093a9.518,9.518,0,0,1,.5-1.093,14.012,14.012,0,0,1,2.407-2.944,11.382,11.382,0,0,1,3.334-2.077,6.32,6.32,0,0,1,1.185-.369c.4-.082.831-.174,1.284-.273q.242-.05.435-.075a3.717,3.717,0,0,1,.436-.027.323.323,0,0,1,.242,0,.217.217,0,0,0,.242-.049,11.208,11.208,0,0,1,3.54.394,10.943,10.943,0,0,1,2.72,1.222.972.972,0,0,1,.389.264,1.084,1.084,0,0,0,.343.265,9.731,9.731,0,0,1,.8.674,6.174,6.174,0,0,1,.706.772,18.649,18.649,0,0,1,1.319,1.932,4.736,4.736,0,0,1,.539,1.161c.131.419.279.839.442,1.257a7.117,7.117,0,0,1,.371,1.307,13.239,13.239,0,0,0,.322,1.355c.032.227.058.453.076.678s.042.453.077.679m-4.709-1.624a1.7,1.7,0,0,0,.238-.511,1.121,1.121,0,0,0,0-.654,8.279,8.279,0,0,0-.834-1.982,9.017,9.017,0,0,0-1.511-1.883,6.877,6.877,0,0,0-2.139-1.3c-.227-.063-.454-.119-.68-.166s-.469-.1-.728-.166a3.374,3.374,0,0,0-.824-.092l-.824,0a.476.476,0,0,1-.339.075.771.771,0,0,0-.339.026q-.389.1-.75.173c-.242.05-.475.108-.7.174a6.592,6.592,0,0,0-2.245,1.465,9.11,9.11,0,0,0-1.516,2.189,4.588,4.588,0,0,0-.288.606,5.049,5.049,0,0,0-.237.8,2.355,2.355,0,0,0-.045.824.773.773,0,0,0,.342.58,2.193,2.193,0,0,0,1.334.259q.945-.029,1.624-.032l7.366-.038q.728,0,1.745.016a1.734,1.734,0,0,0,1.356-.37" transform="translate(-11354.813 -489.749)"/><path class="a" d="M15.025,14.783a2.886,2.886,0,0,1,.013.731,6.636,6.636,0,0,1-.089.706c-.033.169-.067.328-.1.48a3.024,3.024,0,0,1-.126.429A4.814,4.814,0,0,1,13.083,19.2a5.182,5.182,0,0,1-.921.518,10.665,10.665,0,0,1-1.047.39,2.6,2.6,0,0,1-.58.139c-.2.025-.4.055-.581.088a1.14,1.14,0,0,1-.239.026,1.2,1.2,0,0,0-.24.025.455.455,0,0,1-.214,0,.391.391,0,0,0-.24.026.613.613,0,0,1-.215.012,2.261,2.261,0,0,0-.239-.012H1.2a5.531,5.531,0,0,1-.719-.039.507.507,0,0,1-.416-.34A1.727,1.727,0,0,1,0,19.412q.013-.417.013-.694V3.909q0-.3-.013-.643a.941.941,0,0,1,.113-.542.585.585,0,0,1,.379-.253.143.143,0,0,1,.1-.012.145.145,0,0,0,.1-.013H8.214c.117,0,.235,0,.353-.012a1.355,1.355,0,0,1,.328.012.43.43,0,0,0,.252.025.667.667,0,0,1,.252,0h.152a.775.775,0,0,0,.315.038.986.986,0,0,1,.34.038,3.505,3.505,0,0,0,.392.076,3.873,3.873,0,0,1,.391.075q.478.177.908.341a3.5,3.5,0,0,1,.782.416,2.985,2.985,0,0,1,.832.883,4.938,4.938,0,0,1,.53,1.211A1.761,1.761,0,0,1,14.1,5.9a2.242,2.242,0,0,0,.062.379.547.547,0,0,1,.013.2.557.557,0,0,0,.012.2.43.43,0,0,1,.013.188.513.513,0,0,1-.038.165v.227a1.513,1.513,0,0,1-.012.176,1.229,1.229,0,0,0-.013.151,1.69,1.69,0,0,0-.063.316.95.95,0,0,1-.063.265,4.4,4.4,0,0,1-.858,1.488,2.112,2.112,0,0,1-.378.3,1.291,1.291,0,0,0-.353.328,1.1,1.1,0,0,0-.114.139.209.209,0,0,0-.012.214.553.553,0,0,0,.327.341q.277.138.48.264a4.2,4.2,0,0,1,1.11,1.06,4.62,4.62,0,0,1,.63,1.362,1.763,1.763,0,0,1,.1.417,3.253,3.253,0,0,0,.076.416ZM4.051,5.751a.741.741,0,0,0-.126.441V8.1c0,.118,0,.24-.013.366a1.19,1.19,0,0,0,.013.315v.253c.034.1.058.189.076.264a.87.87,0,0,0,.075.215.543.543,0,0,0,.315.176,2.587,2.587,0,0,0,.479.063c.178.009.358.009.543,0s.354-.012.505-.012c.253,0,.517,0,.794.012s.556.013.833.013.543-.013.8-.037A2.786,2.786,0,0,0,9,9.586,2.022,2.022,0,0,0,10.131,8.7a2.277,2.277,0,0,0,.227-.858,2.306,2.306,0,0,0-.252-1.35,2.031,2.031,0,0,0-.884-.769A2.975,2.975,0,0,0,8.9,5.638c-.118-.026-.244-.055-.379-.089a1.392,1.392,0,0,0-.3-.025,2.569,2.569,0,0,0-.694-.063c-.261.008-.509.013-.745.013H4.631a.249.249,0,0,1-.113.024.241.241,0,0,0-.113.026.614.614,0,0,0-.354.227m7.064,9.435a2.138,2.138,0,0,0-.038-.757,2.808,2.808,0,0,0-.19-.6A2.128,2.128,0,0,0,9.5,12.562a4.062,4.062,0,0,0-.946-.151c-.344-.017-.7-.025-1.072-.025H4.631c-.034.033-.063.046-.088.037a.3.3,0,0,0-.089-.012.608.608,0,0,0-.4.252.965.965,0,0,0-.126.518v2.838c0,.2,0,.408.012.618a.906.906,0,0,0,.139.492.618.618,0,0,0,.329.189,2.322,2.322,0,0,0,.517.076q.289.012.592,0c.2-.009.378-.013.53-.013q.757,0,1.463.013a8.573,8.573,0,0,0,1.337-.076,4.315,4.315,0,0,0,1.123-.3,1.69,1.69,0,0,0,1-1.135c.051-.177.1-.357.152-.542Z" transform="translate(-11354.813 -489.749)"/><path class="a" d="M28.4,13.8a1.055,1.055,0,0,1,0,.455.473.473,0,0,1-.177.328.775.775,0,0,1-.366.138,4.659,4.659,0,0,1-.529.051q-.291.012-.58,0c-.194-.009-.366-.013-.517-.013h-6.5a.771.771,0,0,0-.291.051.545.545,0,0,0-.252.2.528.528,0,0,0-.1.19.481.481,0,0,0-.025.265,1.352,1.352,0,0,1,.063.29,1.252,1.252,0,0,0,.063.29,3.531,3.531,0,0,0,.492,1,2.681,2.681,0,0,0,.794.694,1.149,1.149,0,0,0,.417.164,3.02,3.02,0,0,1,.441.114,3.389,3.389,0,0,0,.555.075,2.278,2.278,0,0,0,.606-.025h.226c.169-.034.324-.071.467-.113s.282-.089.416-.139a6.035,6.035,0,0,0,.568-.328,1.778,1.778,0,0,0,.467-.4q.126-.177.265-.34a.8.8,0,0,1,.341-.24,1.337,1.337,0,0,1,.642-.114q.391.013.72.013c.1,0,.206,0,.315-.013a.656.656,0,0,1,.29.038h.253a.941.941,0,0,1,.353.126.254.254,0,0,1,.114.227.68.68,0,0,1-.039.3,4.388,4.388,0,0,1-.277.631,5.182,5.182,0,0,1-.353.555A5.1,5.1,0,0,1,26,19.6a6.664,6.664,0,0,1-1.766.857,2.192,2.192,0,0,1-.555.127,3.655,3.655,0,0,0-.581.1.66.66,0,0,1-.215.013.585.585,0,0,0-.214.012h-.277a.645.645,0,0,1-.291.038,2.733,2.733,0,0,1-.289-.038,1.228,1.228,0,0,0-.354,0,.76.76,0,0,1-.327-.025.736.736,0,0,0-.278-.051.755.755,0,0,1-.278-.05q-.278-.051-.555-.114a1.859,1.859,0,0,1-.5-.189L19,20.093a2.353,2.353,0,0,1-.442-.215A7.24,7.24,0,0,1,17.119,18.7a5.673,5.673,0,0,1-1.034-1.551,3.372,3.372,0,0,1-.2-.568,4.47,4.47,0,0,0-.2-.593.762.762,0,0,1-.025-.189.826.826,0,0,0-.025-.189,2.641,2.641,0,0,1-.127-.656l-.05-.706c0-.084,0-.177-.012-.278a.963.963,0,0,1,.012-.277v-.3l.075-.606c.067-.285.127-.563.177-.832a3.7,3.7,0,0,1,.227-.757,6.6,6.6,0,0,1,3.683-3.708,3.2,3.2,0,0,1,.72-.215c.243-.042.5-.1.769-.164a3.224,3.224,0,0,1,.379-.025,2.861,2.861,0,0,0,.378-.026,6.509,6.509,0,0,1,2.208.29,6.762,6.762,0,0,1,1.652.821,4.98,4.98,0,0,1,.454.341,3.669,3.669,0,0,1,.4.39.564.564,0,0,0,.2.2c.135.185.261.375.379.568s.243.391.378.593a3.375,3.375,0,0,1,.215.466c.058.16.122.332.189.517a4.631,4.631,0,0,1,.2.682c.05.235.109.471.176.706a1.465,1.465,0,0,1,.038.442,1.455,1.455,0,0,0,.038.441ZM24.612,12.31a.634.634,0,0,0,.038-.618c-.093-.244-.164-.424-.215-.543A2.663,2.663,0,0,0,23.5,10.1a3.188,3.188,0,0,0-1.615-.39.209.209,0,0,1-.176.025.312.312,0,0,0-.177,0,.975.975,0,0,1-.278.063,1,1,0,0,0-.277.063,2.7,2.7,0,0,0-1.64,1.387,2.76,2.76,0,0,0-.113.266,1.591,1.591,0,0,0-.089.327.8.8,0,0,0,.013.316.456.456,0,0,0,.164.252,1.035,1.035,0,0,0,.555.126H23.35q.354,0,.745-.013a.587.587,0,0,0,.517-.214" transform="translate(-11354.813 -489.749)"/><path class="b" d="M58.516.043A.292.292,0,0,1,58.628.6c-1.512.71-2.775,2.747-3.625,6.865-1.045,5.063-5.315,7.072-8.61,6.434a18.006,18.006,0,0,0-.283,2.771,1.38,1.38,0,0,1-1.383,1.349h-.021a1.392,1.392,0,0,1-1.378-1.533,13.647,13.647,0,0,1,6.18-10.292,13.249,13.249,0,0,0-5.535,3.96.9.9,0,0,1-1.591-.484l0-.022c-.747-7.128,7.811-10.04,16.136-9.6M27.753,6.587a.249.249,0,0,1,.1-.474C34.941,5.741,42.233,8.222,41.6,14.3a.6.6,0,0,1-1.114.244,11.14,11.14,0,0,0-4.959-3.684,11.914,11.914,0,0,1,4.086,4.576,1.7,1.7,0,0,1-1.023,2.393c-2.85.8-6.811-.862-7.745-5.388-.724-3.508-1.8-5.245-3.089-5.849" transform="translate(-11354.813 -489.749)"/></g></svg>