<svg xmlns="http://www.w3.org/2000/svg" width="521.232" height="243.859" viewBox="0 0 521.232 243.859"><defs><style>.a,.c{fill:#ef6e00;}.b{fill:#496a4a;}.c{fill-rule:evenodd;}</style></defs><g transform="translate(0)"><g transform="translate(100.05)"><path class="a" d="M503.178,695.966h8.789l1.5-7.434H504.6l2.087-11.551-2.136.016A23.865,23.865,0,0,1,488.3,691.962l-.894,4h6.383l-3.374,17.873c-1.727,8.936.523,12.766,8.558,12.766a34.654,34.654,0,0,0,7.658-.974l.9-7.661a20.439,20.439,0,0,1-4.659.526c-3.076,0-3.682-1.2-2.855-5.707Z" transform="translate(-200.266 -676.569)"/><path class="a" d="M435.751,681.862c-5.436.864-9.908,4.5-12.418,10.381l-.194.323a62.1,62.1,0,0,0,2.6-11.733l-9.345,0c-.747,4.8-2.179,12.541-3.233,17.8l-3.749,19.526h9.382L421,705.273c2.237-11.4,7.474-14.108,12.477-14.907Z" transform="translate(-361.958 -668.59)"/><path class="a" d="M461.2,718.67l.565-2.563a1.78,1.78,0,0,1-1.411-.667,3.932,3.932,0,0,1-.184-2.373c1.42-8.177,3.217-17.224,5.9-31.33a69.15,69.15,0,0,0-13.236-1.131c-16.4,0-23.994,13.088-23.994,27.233,0,7.971,3.085,11.659,8.8,11.659,7.452,0,12.636-7.222,15.648-12.716h.148c-1.727,5.193-2.855,8.952-3.534,11.886Zm-19.8-7.446c-1.881,0-2.861-1.5-2.861-5.19,0-7.824,3.989-17.9,12.636-17.9a16.967,16.967,0,0,1,4.216.528l-.452,2.406c-1.509,7.9-8.2,20.159-13.54,20.159" transform="translate(-321.681 -669.052)"/><path class="a" d="M498.235,718.67l.565-2.563a1.782,1.782,0,0,1-1.414-.667,3.9,3.9,0,0,1-.181-2.373H497.2c1.426-8.177,3.224-17.224,5.906-31.33a69.153,69.153,0,0,0-13.236-1.131c-16.4,0-23.994,13.088-23.994,27.233,0,7.971,3.082,11.659,8.8,11.659,7.446,0,12.636-7.222,15.648-12.716h.147c-1.727,5.193-2.855,8.952-3.534,11.886Zm-19.8-7.446c-1.884,0-2.858-1.5-2.858-5.19,0-7.824,3.986-17.9,12.636-17.9a16.9,16.9,0,0,1,4.21.528l-.452,2.406c-1.5,7.9-8.2,20.159-13.537,20.159" transform="translate(-244.9 -669.052)"/><path class="a" d="M469.514,680.756c-7.136,0-13.491,6.718-13.491,6.718.947-5,.753-4.305,1.051-6.49h-6.146l.006-.022h-5.608l-.366,2.56.163,0a1.9,1.9,0,0,1,1.564.664,4.211,4.211,0,0,1,.169,2.483.07.07,0,0,0,.018.046c-.682,3.9-1.472,8.107-2.265,12.062L440.858,718.3h9.385l2.708-14.323c1.65-8.712,5.919-15.365,11.383-15.706,2.4-.154,4.5,1.819,3.3,7.283l-4.4,22.747h9.456l4.88-25.758c1.352-7.28-.851-11.788-8.057-11.788" transform="translate(-296.763 -668.744)"/><path class="a" d="M481.79,680.756c-7.132,0-13.491,6.718-13.491,6.718.943-5,.75-4.305,1.051-6.49H463.2l.006-.022H457.6l-.366,2.56.163,0a1.909,1.909,0,0,1,1.564.664,4.185,4.185,0,0,1,.166,2.483.072.072,0,0,0,.022.046c-.685,3.9-1.472,8.107-2.265,12.062L453.128,718.3h9.385l2.714-14.323c1.65-8.712,5.916-15.365,11.383-15.706,2.4-.154,4.5,1.819,3.3,7.283l-4.4,22.747h9.456l4.889-25.758c1.349-7.28-.854-11.788-8.067-11.788" transform="translate(-271.327 -668.744)"/><path class="a" d="M505.978,680.961a33.721,33.721,0,0,0-5.845-.393c-13.838.243-22,11.641-22,25.909,0,7.809,3.829,12.916,13.816,12.916a27.507,27.507,0,0,0,8.936-1.5l.83-8.334a17.9,17.9,0,0,1-6.988,1.426c-5.107,0-6.6-3.079-6.6-6.61,0-6.982,3.153-15.762,10.762-16.462a5.615,5.615,0,0,1,1.89-.025,1.187,1.187,0,0,1,.833,1.377h2.154l1.254-4.745h0Z" transform="translate(-219.497 -669.151)"/><path class="a" d="M459.2,681.852c-1.057,0-2.074-.1-3.088-.184,0,0-4.013-.541-5.6-.716a49.338,49.338,0,0,0-6.905-.341c-16.367,0-23.951,13.066-23.951,27.184,0,5.694,2,8.771,5.215,10.246a14.651,14.651,0,0,0-7.394,4.373l-.037.055a8.794,8.794,0,0,0-1.905,5.977c0,5.021,4.994,8.291,10.153,8.46l10.789.624s6.46.4,6.426,4.763c-.015,2.446-1,3.838-2.326,4.576v1.847a9.924,9.924,0,0,0,9.136-9.148c.568-4.545-3.473-10.341-11.718-10.439l-7.664-.483c-2.591-.1-4.886-1.174-4.886-3.706v-.854c.39-2.8,3.036-4.7,6.8-4.911l.4-.034c7.142-.47,17.261-3.679,20.291-17.111l2.544-13.3c.046-.227.63-2.79,1.81-3.786a4.027,4.027,0,0,1,1.9-.722Zm-12.879,11.936c-2.443,13.272-7.864,17.934-14.127,17.1-2.047-.273-2.775-1.715-2.846-4.892-.184-7.812,3.98-17.873,12.612-17.873,1.65,0,3.688.4,5.273.464Z" transform="translate(-349.253 -669.046)"/><path class="a" d="M423.119,676.847c-15.6,0-29.151,12.771-29.151,33.044,0,10.922,5.365,17.354,18.914,17.354,15.208,0,29.246-12.769,29.246-32.756,0-10.236-5.172-17.642-19.01-17.642m-9.09,41.809c-6.481,0-8.943-3.8-8.943-9.84,0-11.066,6.263-23.475,16.656-23.475,6.484,0,9.17,3.463,9.17,9.837,0,12.409-6.933,23.478-16.883,23.478" transform="translate(-393.968 -676.847)"/></g><g transform="translate(0 49.039)"><path class="b" d="M389.183,825.324c-1.97.111-4.646.633-4.646,3.294.028,3.817.025,9.64.077,13.042.184,11.714.578,21.991.774,33.459a35.654,35.654,0,0,1,.04,3.73c-.535,4.862-2.683,6.143-7.265,7.345a38.562,38.562,0,0,1-5.258,1.413,4.116,4.116,0,0,1-.8-.006c-1.678-.24-2.277-.928-2.661-2.646a70.465,70.465,0,0,1-1.782-11.632,18.661,18.661,0,0,1,.3-4.179,8.623,8.623,0,0,0,.181-1.638,31.572,31.572,0,0,0-1.122-6.149,198.7,198.7,0,0,1-4.917-37.6c-.366-7.762-.6-16.06-.688-24.24-.046-4.364.108-9.2.424-13.933.47-7.077,1.346-14.575,2.083-21.812.919-9.022,1.712-18.315,1.872-27.387.04-2.216-.12-4.158-.191-6.337-.009-.271,0-.731,0-.993a46.348,46.348,0,0,1,1.2-7.944c.728-3.832,1.727-7.652,1.838-11.552a19.5,19.5,0,0,0-1-5.891,5.342,5.342,0,0,1-.191-1.217,7.117,7.117,0,0,1,1.976-4.407c2.769-3.307,4.093-5.107,8.475-5.239a18.175,18.175,0,0,1,2.87.23c3.586.458,5.9,1.93,6.4,5.928a250.732,250.732,0,0,1,1.653,27.19c.015.962.009,2.809-.006,3.774-.252,15.494-.833,30.863-1.045,46.255a2.7,2.7,0,0,0,.421,1.589c.286.39.246.185.879.237s1.484-.808,1.954-1.383c9.391-11.432,19.606-21.686,29.931-32.322,3.642-3.752,6.635-8.319,9.588-12.732a67.247,67.247,0,0,1,7.959-9.508,13.769,13.769,0,0,1,7.919-4.038,1.8,1.8,0,0,1,.406,0,4.338,4.338,0,0,1,4.056,3.878,1.989,1.989,0,0,1-.191,1.229c-1.687,3.6-2.713,7.062-5.132,10.368-6.312,8.626-12.606,16.926-20.583,24.308-5.322,4.926-9.2,10.42-13.693,16.505s-9.788,12.876-15.519,18.134a23.452,23.452,0,0,0-2.827,3.07c-.655.9-1.054,1.2-1.033,2.166a2.715,2.715,0,0,0,1.429,2.271c5.5,3.337,11.048,6.585,16.453,10.184,11.33,7.544,22.452,15.411,32.215,24.919,5.04,4.908,9.489,10.4,14.231,15.393a5.755,5.755,0,0,1,1.954,4.434,15.665,15.665,0,0,1-1.54,5.513c-1.165,2.889-3.088,4.05-6.171,4.13-.221.006-.593-.009-.805-.028a52.719,52.719,0,0,1-22.181-6.825c-.983-.553-2.311-1.592-2.357-2.535s.55-1,.593-1.487.1.132,0-.332a2.519,2.519,0,0,0-1.008-1.285c-8.362-7.114-16.88-14.413-25.3-21.631a31.8,31.8,0,0,0-4.5-3.177c-.378-.224-1.186-.63-1.881-.946A8.546,8.546,0,0,0,389.183,825.324Z" transform="translate(-361.41 -692.805)"/><path class="b" d="M417.863,734.171l.243,3.313c.022,6.186.258,12.354.513,18.758.169,5.224.553,10.433.722,15.651-.083,4.766-.151,9.769-.184,15.242.393,2.354.587,4.957.777,7.557.891,12.071.519,24.71,1.463,37.488l.4,5.442a22.609,22.609,0,0,1-.943,7.922c-1.331,5.568-5.027,8.7-9.148,9a11.031,11.031,0,0,1-8.558-3.651,23.518,23.518,0,0,1-6.758-14.729l-.071-.946c-.621-11.376-1.678-22.719-.784-34.206.621-9.327-.513-18.758-.326-28.054.409-12.163,2.139-24.188,3.2-36.4.427-5.983,3.273-8.81,8.263-9.179l1.736-.126a1.794,1.794,0,0,1,1.1.157C416.068,727.641,417.46,728.732,417.863,734.171Zm2.631-33.355a8.928,8.928,0,0,1-1.976,5.706,35.561,35.561,0,0,1-12.977,10.31c-.218.015-.633.3-.851.316a5.257,5.257,0,0,1-3.6-1.5,9.606,9.606,0,0,1-3.337-6.828,10.453,10.453,0,0,1,.227-2.8c.864-3.1,2.394-5.989,5.648-6.229l7.338-1.048,5.636-.418a4.092,4.092,0,0,1,3.583,1.251A2.122,2.122,0,0,1,420.493,700.816Z" transform="translate(-291.384 -681.409)"/><path class="b" d="M428.868,832.157a7.429,7.429,0,0,1-.184-2.01v-1.822c-.366-14.047-.728-27.909-.91-41.775,0-6.386.363-12.768.544-19.154.184-2,.184-4.195.184-6.2,0-4.56-.184-9.121-.366-13.862v-2.919a58.571,58.571,0,0,1,2.554-16.785,14.357,14.357,0,0,0,.731-4.01c0-1.46-.731-2.01-2.188-2.01a21.943,21.943,0,0,0-4.2.55,57.214,57.214,0,0,1-9.486,1.46h-1.275c-3.651,0-7.114-.731-9.668-3.651-.366-.547-.731-.913-.731-1.457a2.317,2.317,0,0,1,.731-1.278,7.188,7.188,0,0,1,5.473-2.919c17.329-2.916,34.292-7.661,51.805-9.849a130.363,130.363,0,0,1,14.594-.728h4.56a3.6,3.6,0,0,1,3.466,1.822,6.532,6.532,0,0,1,.366,1.822,2.318,2.318,0,0,1-1.278,2.375c-2.738,1.276-5.107,3.645-8.574,4.01-5.839.547-11.675,1.644-17.329,2.554-2.738.547-3.466.913-3.648,3.466-.55,8.208-.916,16.6-.916,24.809,0,5.292.184,10.581.55,16.053.728,9.3,1.094,18.607,1.094,28.094,0,3.1.547,6.383.728,9.483.366,9.3.731,18.789.731,28.094a95.625,95.625,0,0,1-2.007,14.228,12.682,12.682,0,0,1-6.933,9.121c-1.641.909-3.282,1.822-4.926,2.919C433.063,848.936,430.509,840.912,428.868,832.157Z" transform="translate(-273.38 -670.146)"/><g transform="translate(205.104 25.023)"><path class="b" d="M452.324,759.457c.181,4.2,1.033,8.319,1.478,12.486.455,4.222-.025,8.5.59,12.7.581,3.977,1.509,7.895,2.176,11.856a3.644,3.644,0,0,0,3.872,3.052c2.895.009,9.628-1.131,11.81-2.95,4.213-3.509,7-8.19,9.745-12.851.375-.639,1.017-1.275,1.564-1.309s.23.012.722.2,1.284,1.41,1.576,1.844a2.212,2.212,0,0,1,.243,1.208,2.753,2.753,0,0,1,.009.633c-.535,3.912-1.072,7.618-2.772,11.18a52.463,52.463,0,0,1-3.851,7.2c-4.517,6.616-9.5,10.282-17.658,10.663-2.929.138-5.78-.114-8.737-.111a20.742,20.742,0,0,1-2.243-.132c-9.585-1.281-15.835-6.432-18.592-15.35a84.192,84.192,0,0,1-3.915-20.967c-.055-.928.218-1.828.2-2.781s.209-2.016.2-2.953c-.037-2.342-.529-4.76-.584-7.028a20.819,20.819,0,0,1,.132-2.615c.928-8.946.839-17.741,3.525-26.333a158.862,158.862,0,0,1,6.377-16.957c1.862-4.241,4.1-8.709,6.395-13.039s5.516-5.87,10.82-5.744c6.466.154,14,1.789,20.6-.246a7.811,7.811,0,0,1,2.615-.1,4.323,4.323,0,0,1,.658.154,52.78,52.78,0,0,1,11.278,5.882,13.036,13.036,0,0,1,5.986,9.963,14.63,14.63,0,0,0,.747,4.413,6.439,6.439,0,0,1,.774,4.051,8.7,8.7,0,0,1-2.929,4.659c-1.263.974-2.24,1.85-3.764,1.392s-2.265-1.638-3.227-3.107c-1.579-2.419-4.579-5.673-6.2-7.876A12.62,12.62,0,0,0,476.3,716.3c-3.875-1.524-10.9.132-12.824,2.852C456.31,729.28,452,739.98,451.906,752.444c-.009.94.052,2.634.08,3.728S452.275,758.347,452.324,759.457Z" transform="translate(-428.153 -700.947)"/></g><path class="b" d="M489.3,785.409c6.115-.99,8.285-4.739,8.681-10.064.2-3.552.593-6.905.593-10.458v-1.579c0-11.048,1.576-22.1,1.576-33.343v-4.539c0-5.522.986-11.047,1.58-16.766.593-3.552,2.17-6.315,6.512-6.908,3.946-.593,7.695-2.169,11.638-2.959h.989c3.156,0,5.522,1.973,5.522,4.736a5.174,5.174,0,0,1-.59,2.172c-2.962,6.312-3.156,13.021-3.552,19.532-.593,15.586-1.183,31.173-1.973,46.759-.4,8.678-1.183,17.36-1.58,25.847-.59,14.4-1.183,28.8-1.576,43.207a52.028,52.028,0,0,1-2.566,13.614,7.7,7.7,0,0,1-1.973,3.746,9.612,9.612,0,0,1-6.708,3.156c-3.353,0-6.512-2.366-8.681-5.326a22.438,22.438,0,0,1-3.749-13.22v-2.366c.4-8.482.986-16.769,1.383-25.057.2-5.522.2-11.048.2-16.573,0-2.17-.79-3.156-2.563-3.156-.4,0-.793.2-1.383.2-4.142.593-7.1,3.946-10.851,4.935-2.763.59-3.353,1.773-3.353,3.943.2,3.749.393,7.5.393,11.247v2.566a70.489,70.489,0,0,1-3.159,21.305c-1.776,5.328-6.509,6.118-10.651,7.3a3.376,3.376,0,0,1-1.383.2c-3.156,0-6.512-2.76-8.485-6.115a28.648,28.648,0,0,1-3.156-14.01V824.67c.987-18.153,1.383-36.3,3.749-54.457,1.38-9.468.987-19.136,2.563-28.607a31.057,31.057,0,0,1,.989-5.919c1.183-3.749,3.552-5.326,7.3-5.326h1.38l5.919.593c4.146.59,6.512,2.76,6.512,6.115a8.11,8.11,0,0,1-.2,2.169,41.057,41.057,0,0,0-1.38,12.034V756.6c0,9.075.2,18.349.393,27.62,0,1.38.4,2.763.593,4.736C482.393,787.578,485.745,785.8,489.3,785.409Z" transform="translate(-176.87 -680.393)"/><path class="b" d="M538.862,763.971a21.6,21.6,0,0,1,.734,5.157c0,2.707-1.226,4.422-4.665,6.392a55.575,55.575,0,0,1-22.356,7.123c-3.193.246-4.665,1.967-4.665,4.668-.249,4.668-.741,9.333-.741,14v7.123a36.851,36.851,0,0,1-.737,9.09,2.671,2.671,0,0,0-.246,1.229c0,1.718,1.229,2.7,3.2,2.7h.489c4.671-.246,9.339-.738,14-.983s9.336-.492,14-.492c1.964,0,3.193,1.721,3.193,3.688v.98a7.571,7.571,0,0,1-3.439,5.159c-4.422,2.455-8.6,5.16-13.758,5.652a113.314,113.314,0,0,0-20.144,4.419,38.123,38.123,0,0,1-9.09.983,87.171,87.171,0,0,1-11.3-.738c-3.439-.246-5.648-2.7-6.635-6.14a22.889,22.889,0,0,1-1.226-7.123,27.055,27.055,0,0,1,.492-4.422c1.967-14,3.439-27.759,3.439-41.763v-5.648c0-.74.246-1.478.246-2.216a1.47,1.47,0,0,0-.246-.977,13.759,13.759,0,0,1-1.226-6.146c0-3.685.98-7.123,1.472-10.808,1.229-10.316,2.7-20.636,4.176-30.952.983-6.877,3.193-13.266,5.651-19.652,1.226-3.439,2.947-4.671,5.894-4.671h1.475c16.213,2.216,32.427.987,48.394,1.724h3.442c2.209.492,4.176.977,4.419,3.685v.492a4.227,4.227,0,0,1-3.439,4.176,105.381,105.381,0,0,1-23.091,5.4c-.738,0-1.229.246-1.967.246-2.209,0-4.668-.492-7.123-.492s-4.668.492-6.14,2.458a10.1,10.1,0,0,0-1.967,6.632c0,2.7.489,5.406.489,8.107v.983c-.734,9.579-.734,19.406-.98,29.231,0,1.967.246,4.176.492,7.123h2.7C521.912,769.373,530.018,765.934,538.862,763.971Z" transform="translate(-124.938 -678.705)"/><path class="b" d="M531.78,807.56v6.149c0,10.178-1.06,20.353-1.484,30.531,0,4.029-2.969,6.782-4.029,10.175-.212.636-.848,1.276-1.269,1.276-4.241.212-7.209,3.6-11.45,4.029h-1.272a7.351,7.351,0,0,1-6.573-3.6c-1.484-2.544-2.969-5.3-2.969-8.057v-.636c0-4.453-1.269-8.693-1.908-12.934a49.266,49.266,0,0,1-.845-8.054,15.285,15.285,0,0,1,.209-2.972,115.288,115.288,0,0,0,.636-12.083c0-4.029-.212-8.057-.424-12.083,0-1.908-.212-4.029-.212-6.149,0-6.785.636-13.783,1.063-20.78a59.432,59.432,0,0,0-.427-13.777,32.38,32.38,0,0,1-.636-6.364c0-3.39.424-6.782.636-10.175.848-6.785,2.123-13.57,2.969-20.353a13.091,13.091,0,0,1,3.393-6.573,6.575,6.575,0,0,1,4.877-2.544h9.963a4.037,4.037,0,0,1,3.393,1.275c1.7,2.117,3.817,2.965,6.149,4.029a2.857,2.857,0,0,1,1.908,1.905c1.7,5.3,5.089,9.754,6.573,15.267,2.332,8.267,5.722,16.324,9.115,24.379,3.6,8.482,5.725,17.6,7.846,26.714,2.756,11.026,5.725,22.264,8.482,33.287a9.18,9.18,0,0,0,1.06,2.544,2.407,2.407,0,0,0,1.7.636c.424,0,.848-.848.848-1.272,1.484-15.476,3.814-30.743,6.358-46.006,2.548-14.628,5.3-29.258,7.845-43.886,1.06-5.937,1.908-11.662,2.969-17.384.636-3.181,1.7-6.149,4.029-8.27a3.03,3.03,0,0,1,2.332-1.063,2.311,2.311,0,0,1,1.06.212,3.206,3.206,0,0,1,1.693,2.972c-1.269,9.966-2.329,19.717-3.814,29.47-1.484,11.447-3.181,22.682-4.453,34.132-1.908,16.112-4.877,32.012-7.209,47.915-.848,4.453-1.905,9.118-2.544,13.783-.424,2.968-.212,6.146-.424,9.114-.212,5.089-.212,9.966-.424,14.843-.212,2.969-1.905,4.238-4.665,5.086a11.976,11.976,0,0,1-3.814.636c-2.12,0-4.029-.424-5.725-.424a7.95,7.95,0,0,0-2.332.212h-.636c-1.908,0-3.18-2.12-4.029-4.029-1.272-4.241-2.757-8.266-3.6-12.507-1.481-8.906-4.45-17.384-7.206-26.078-3.393-10.387-5.3-20.989-6.785-31.8a33.145,33.145,0,0,0-1.06-6.361c-1.272-4.453-2.757-8.694-4.241-13.143-.424.212-.848.212-1.272.421C531.356,781.909,531.78,794.628,531.78,807.56Z" transform="translate(-74.151 -668.077)"/></g><g transform="translate(55.494 69.941)"><path class="c" d="M490.683,744.511a2.287,2.287,0,0,0-1.45-1.113,123.3,123.3,0,0,0-54.629.068,2.272,2.272,0,0,0-1.481,1.18,69.309,69.309,0,0,0-7.646,28.1,2.29,2.29,0,0,0,1.478,2.24c9.182,3.346,21.536,5.4,35.109,5.4,13.454,0,25.706-2.013,34.873-5.3a2.286,2.286,0,0,0,1.49-2.163A59.913,59.913,0,0,0,490.683,744.511Zm-27.817,7.262c-19.975,0-25.147-5.513-25.147-5.513l.083-.018.092-.018c.215-.049.433-.092.648-.138A115.485,115.485,0,0,1,461.95,743.8c.449,0,.9,0,1.343.006a113.182,113.182,0,0,1,22.744,2.382S482.841,751.773,462.866,751.773Z" transform="translate(-284.098 -615.104)"/><path class="a" d="M529.829,716.553l19.4,20.565c.36-6.284.065-16.115-5.338-23.555-5.378-7.882-14.456-11.905-20.528-13.648-3.8-1.18-6.884,1.143-7.329,4.889-.39,6.263-.178,16.336,5.322,23.911,5.378,7.882,14.456,11.905,20.528,13.648a5.95,5.95,0,0,0,2.323.433Z" transform="translate(-96.629 -699.607)"/><g transform="translate(0 53.131)"><path class="c" d="M394.563,721.4a12.81,12.81,0,0,1,12.805,12.8c0,15.049-5.737,7.053-12.805,7.053s-12.8,7.787-12.8-7.053A12.809,12.809,0,0,1,394.563,721.4Z" transform="translate(-374.717 -707.549)"/><path class="c" d="M395.773,719.148c2.339.627,2.984,5.814,2.357,8.153a4.387,4.387,0,1,1-8.475-2.271C390.281,722.691,393.434,718.521,395.773,719.148Z" transform="translate(-358.665 -712.359)"/><path class="c" d="M381.79,719.069c2.148-.575,5.1,3.479,5.679,5.627a4.029,4.029,0,0,1-7.784,2.087C379.11,724.635,379.642,719.644,381.79,719.069Z" transform="translate(-379.469 -712.505)"/><path class="c" d="M390.609,716.9c2.225,0,4.029,4.683,4.029,6.905a4.027,4.027,0,1,1-8.055,0C386.583,721.579,388.387,716.9,390.609,716.9Z" transform="translate(-364.721 -716.896)"/><path class="c" d="M386.679,716.9c2.225,0,4.029,4.683,4.029,6.905a4.029,4.029,0,0,1-8.057,0C382.65,721.579,384.457,716.9,386.679,716.9Z" transform="translate(-372.874 -716.896)"/></g></g></g></svg>