<svg xmlns="http://www.w3.org/2000/svg" width="68.43" height="62.166" viewBox="0 0 68.43 62.166"><defs><style>.a{fill:#fff;stroke:rgba(0,0,0,0);stroke-miterlimit:10;}</style></defs><path class="a" d="M36.871,61.166h0c-.477,0-.965-.012-1.452-.034A30.475,30.475,0,0,1,24.6,58.616a20.432,20.432,0,0,0-2.983-.785,28.734,28.734,0,0,0-2.955-.151A29.591,29.591,0,0,0,12,58.438c-.174.041-1.082.309-2.7.8l-.1.03c-.006,0-.945.117-1.562.117-.071,0-.126,0-.174,0A7.824,7.824,0,0,1,1.517,46.933h0l0,0,.026-.035.028-.039A28.9,28.9,0,0,0,6.272,31.2c0-.192,0-.342-.006-.473a.065.065,0,0,0,0-.012v-.024c0-.5.01-1.013.034-1.537A30.583,30.583,0,0,1,36.823,0c.478,0,.967.012,1.453.034a30.582,30.582,0,0,1,19.657,52.7A30.433,30.433,0,0,1,36.871,61.166ZM40.052,10.1h-.011a16.466,16.466,0,0,0-7.18,1.526,14.136,14.136,0,0,0-5.04,4.075,20.689,20.689,0,0,0-3.941,12.749c0,3.567,1.152,5.83,3.522,6.918a9.8,9.8,0,0,0-4.993,2.952l-.026.036A5.868,5.868,0,0,0,21.1,42.391a5.135,5.135,0,0,0,2.12,4.085A8.317,8.317,0,0,0,27.954,48.1l7.281.423a7.973,7.973,0,0,1,2.178.5,2.968,2.968,0,0,1,2.162,2.71A3.272,3.272,0,0,1,38,54.828v1.247a6.7,6.7,0,0,0,6.17-6.177A5.686,5.686,0,0,0,42.7,45.518a8.473,8.473,0,0,0-6.433-2.665l-5.174-.328c-2.067-.077-3.3-1.012-3.3-2.5v-.577a3.4,3.4,0,0,1,1.444-2.314,5.96,5.96,0,0,1,3.153-1l.271-.022a15.878,15.878,0,0,0,7.891-2.495,14.131,14.131,0,0,0,5.807-9.056l1.72-8.98a5.625,5.625,0,0,1,1.221-2.555,2.626,2.626,0,0,1,1.282-.489v-1.6h-.043c-.658,0-1.3-.057-1.921-.112l-.024,0-.1-.009h-.009c-.281-.038-2.779-.372-3.771-.481A33.123,33.123,0,0,0,40.052,10.1Zm-2.61-6.018h0a27.83,27.83,0,0,1,13.6,3.575,24.474,24.474,0,0,1,5.923,4.709,24.2,24.2,0,0,1,4.409,6.871.461.461,0,1,0,.848-.361,24.953,24.953,0,0,0-10.7-12.008A28.786,28.786,0,0,0,37.435,3.159,26.477,26.477,0,0,0,24.728,6.4a.461.461,0,0,0,.238.856.455.455,0,0,0,.238-.067l.007,0A25.582,25.582,0,0,1,37.442,4.079ZM33.277,30.6a7.045,7.045,0,0,1-.934-.063,1.8,1.8,0,0,1-1.46-.916,5.213,5.213,0,0,1-.462-2.388,14.218,14.218,0,0,1,3.439-9.862,6.9,6.9,0,0,1,5.078-2.2h.011a17.841,17.841,0,0,1,2.01.166l.036,0c.535.063,1.041.123,1.5.142l-.616,3.514C40.481,26.587,37.507,30.6,33.277,30.6Z" transform="translate(0.501 0.5)"/></svg>