<svg xmlns="http://www.w3.org/2000/svg" width="360.572" height="60.3" viewBox="0 0 360.572 60.3"><defs><style>.a,.b{fill:#ef6e00;}.b{fill-rule:evenodd;}.c{fill:#496a4a;}</style></defs><g transform="translate(-902.632 -1018.756)"><g transform="translate(902.632 1029.428)"><path class="a" d="M497.231,688.807h5.475l.934-4.631h-5.521l1.3-7.2-1.331.01a14.866,14.866,0,0,1-10.125,9.323l-.557,2.494h3.976l-2.1,11.134c-1.076,5.567.326,7.952,5.331,7.952a21.586,21.586,0,0,0,4.77-.607l.563-4.772a12.728,12.728,0,0,1-2.9.327c-1.916,0-2.293-.747-1.778-3.555Z" transform="translate(-308.538 -676.724)"/><path class="a" d="M425.818,681.473a10.155,10.155,0,0,0-7.736,6.467l-.121.2a38.688,38.688,0,0,0,1.618-7.309l-5.821,0c-.465,2.992-1.357,7.812-2.014,11.086l-2.335,12.163h5.844l1.378-8.023c1.394-7.1,4.656-8.788,7.772-9.286Z" transform="translate(-379.85 -673.205)"/><path class="a" d="M449,704.317l.352-1.6a1.109,1.109,0,0,1-.879-.415,2.449,2.449,0,0,1-.115-1.478c.884-5.094,2-10.73,3.675-19.516a43.077,43.077,0,0,0-8.245-.7c-10.215,0-14.947,8.153-14.947,16.964,0,4.966,1.922,7.263,5.481,7.263,4.642,0,7.872-4.5,9.748-7.921h.092c-1.076,3.235-1.778,5.576-2.2,7.4Zm-12.332-4.638c-1.172,0-1.782-.936-1.782-3.233,0-4.874,2.485-11.153,7.872-11.153a10.571,10.571,0,0,1,2.626.329l-.282,1.5c-.94,4.92-5.109,12.558-8.434,12.558" transform="translate(-362.087 -673.409)"/><path class="a" d="M486.033,704.317l.352-1.6a1.11,1.11,0,0,1-.881-.415,2.432,2.432,0,0,1-.113-1.478h0c.888-5.094,2.008-10.73,3.679-19.516a43.078,43.078,0,0,0-8.245-.7c-10.217,0-14.947,8.153-14.947,16.964,0,4.966,1.92,7.263,5.481,7.263,4.638,0,7.872-4.5,9.747-7.921h.092c-1.076,3.235-1.778,5.576-2.2,7.4ZM473.7,699.679c-1.173,0-1.78-.936-1.78-3.233,0-4.874,2.483-11.153,7.872-11.153a10.527,10.527,0,0,1,2.623.329l-.281,1.5c-.936,4.92-5.107,12.558-8.433,12.558" transform="translate(-328.223 -673.409)"/><path class="a" d="M458.709,680.756c-4.445,0-8.4,4.185-8.4,4.185.59-3.116.469-2.682.655-4.043h-3.828l0-.013h-3.493l-.228,1.595.1,0a1.182,1.182,0,0,1,.974.413,2.623,2.623,0,0,1,.105,1.547.043.043,0,0,0,.012.029c-.425,2.427-.917,5.05-1.411,7.514l-2.337,12.161H446.7l1.687-8.922c1.028-5.427,3.687-9.571,7.09-9.784,1.493-.1,2.8,1.133,2.056,4.537L454.8,704.145h5.89l3.04-16.045c.842-4.535-.53-7.343-5.019-7.343" transform="translate(-351.097 -673.273)"/><path class="a" d="M470.983,680.756c-4.443,0-8.4,4.185-8.4,4.185.588-3.116.467-2.682.655-4.043h-3.828l0-.013h-3.494l-.228,1.595.1,0a1.189,1.189,0,0,1,.974.413,2.607,2.607,0,0,1,.1,1.547.045.045,0,0,0,.013.029c-.427,2.427-.917,5.05-1.411,7.514l-2.341,12.161h5.846l1.69-8.922c1.028-5.427,3.685-9.571,7.091-9.784,1.5-.1,2.8,1.133,2.056,4.537l-2.739,14.169h5.89l3.046-16.045c.84-4.535-.532-7.343-5.025-7.343" transform="translate(-339.879 -673.273)"/><path class="a" d="M495.477,680.809a21.006,21.006,0,0,0-3.641-.245c-8.62.151-13.706,7.251-13.706,16.139,0,4.864,2.385,8.046,8.607,8.046a17.134,17.134,0,0,0,5.567-.936l.517-5.191a11.15,11.15,0,0,1-4.353.888c-3.182,0-4.114-1.918-4.114-4.118,0-4.349,1.964-9.818,6.7-10.255a3.5,3.5,0,0,1,1.177-.015.74.74,0,0,1,.519.858H494.1l.781-2.956h0Z" transform="translate(-317.02 -673.453)"/><path class="a" d="M442.736,681.383c-.659,0-1.292-.059-1.924-.115,0,0-2.5-.337-3.486-.446a30.728,30.728,0,0,0-4.3-.212c-10.2,0-14.92,8.14-14.92,16.934,0,3.547,1.246,5.463,3.249,6.382a9.126,9.126,0,0,0-4.606,2.724l-.023.034a5.478,5.478,0,0,0-1.187,3.723c0,3.128,3.111,5.165,6.325,5.27l6.721.388s4.024.251,4,2.967a3,3,0,0,1-1.449,2.85v1.15a6.182,6.182,0,0,0,5.691-5.7c.354-2.831-2.163-6.442-7.3-6.5l-4.774-.3c-1.614-.063-3.044-.731-3.044-2.309v-.532c.243-1.746,1.891-2.925,4.238-3.059l.251-.021c4.449-.293,10.753-2.292,12.64-10.659l1.585-8.285a5.139,5.139,0,0,1,1.128-2.358,2.508,2.508,0,0,1,1.183-.45Zm-8.023,7.435c-1.522,8.268-4.9,11.172-8.8,10.651-1.275-.17-1.729-1.068-1.773-3.048-.115-4.866,2.479-11.133,7.856-11.133,1.028,0,2.3.247,3.285.289Z" transform="translate(-374.247 -673.407)"/><path class="a" d="M412.127,676.847c-9.717,0-18.159,7.956-18.159,20.584,0,6.8,3.342,10.81,11.782,10.81,9.474,0,18.218-7.954,18.218-20.4,0-6.376-3.222-10.99-11.842-10.99m-5.662,26.044c-4.037,0-5.571-2.368-5.571-6.13,0-6.893,3.9-14.623,10.376-14.623,4.039,0,5.712,2.157,5.712,6.128,0,7.73-4.319,14.625-10.517,14.625" transform="translate(-393.968 -676.847)"/></g><g transform="translate(-12)"><path class="b" d="M444.507,741.578a.667.667,0,0,0-.423-.325,35.986,35.986,0,0,0-15.945.02.663.663,0,0,0-.432.344,20.228,20.228,0,0,0-2.232,8.2.668.668,0,0,0,.431.654,34.18,34.18,0,0,0,20.426.027.667.667,0,0,0,.435-.631A17.487,17.487,0,0,0,444.507,741.578Zm-8.119,2.119c-5.83,0-7.34-1.609-7.34-1.609l.024-.005.027-.005c.063-.014.127-.027.189-.04a33.709,33.709,0,0,1,6.832-.667c.131,0,.262,0,.392,0a33.032,33.032,0,0,1,6.638.7S442.218,743.7,436.388,743.7Z" transform="translate(755.055 321.05)"/><g transform="translate(1123.067 1018.756)"><path class="c" d="M369.517,731.484c-.575.032-1.356.185-1.356.962.008,1.114.007,2.814.022,3.807.054,3.419.169,6.419.226,9.766a10.415,10.415,0,0,1,.012,1.089c-.156,1.419-.783,1.793-2.12,2.144a11.245,11.245,0,0,1-1.535.413,1.189,1.189,0,0,1-.234,0c-.49-.07-.665-.271-.777-.772a20.567,20.567,0,0,1-.52-3.4,5.451,5.451,0,0,1,.089-1.22,2.518,2.518,0,0,0,.053-.478,9.217,9.217,0,0,0-.327-1.795,58,58,0,0,1-1.435-10.974c-.107-2.266-.175-4.687-.2-7.075-.013-1.274.031-2.686.124-4.067.137-2.066.393-4.254.608-6.367.268-2.633.5-5.346.546-7.994.012-.647-.035-1.214-.056-1.85,0-.079,0-.213,0-.29a13.529,13.529,0,0,1,.352-2.319,21.479,21.479,0,0,0,.536-3.372,5.692,5.692,0,0,0-.292-1.719,1.561,1.561,0,0,1-.056-.355,2.077,2.077,0,0,1,.577-1.286c.808-.965,1.195-1.491,2.474-1.529a5.29,5.29,0,0,1,.838.067,1.835,1.835,0,0,1,1.868,1.73,73.19,73.19,0,0,1,.483,7.936c0,.281,0,.82,0,1.1-.074,4.522-.243,9.008-.3,13.5a.787.787,0,0,0,.123.464c.083.114.072.054.257.069s.433-.236.57-.4c2.741-3.337,5.723-6.33,8.736-9.434a26.144,26.144,0,0,0,2.8-3.716,19.629,19.629,0,0,1,2.323-2.775,4.019,4.019,0,0,1,2.311-1.179.519.519,0,0,1,.118,0,1.266,1.266,0,0,1,1.184,1.132.58.58,0,0,1-.056.359,16.66,16.66,0,0,1-1.5,3.026,47.676,47.676,0,0,1-6.008,7.095,32.477,32.477,0,0,0-4,4.818,37.561,37.561,0,0,1-4.53,5.293,6.842,6.842,0,0,0-.825.9c-.191.264-.308.352-.3.632a.792.792,0,0,0,.417.663c1.6.974,3.225,1.922,4.8,2.973a64.384,64.384,0,0,1,9.4,7.273c1.471,1.432,2.77,3.035,4.154,4.493a1.68,1.68,0,0,1,.57,1.294,4.572,4.572,0,0,1-.449,1.609,1.763,1.763,0,0,1-1.8,1.205c-.065,0-.173,0-.235-.008a15.387,15.387,0,0,1-6.474-1.992c-.287-.161-.674-.465-.688-.74s.161-.293.173-.434.03.039,0-.1a.735.735,0,0,0-.294-.375c-2.441-2.076-4.927-4.207-7.385-6.314a9.284,9.284,0,0,0-1.313-.927c-.11-.065-.346-.184-.549-.276A2.5,2.5,0,0,0,369.517,731.484Z" transform="translate(-361.41 -692.805)"/><path class="c" d="M401.808,708.771l.071.967c.006,1.806.075,3.606.15,5.475.049,1.525.161,3.045.211,4.568-.024,1.391-.044,2.851-.054,4.449.115.687.171,1.447.227,2.206.26,3.523.152,7.212.427,10.942l.118,1.588a6.6,6.6,0,0,1-.275,2.312,3.1,3.1,0,0,1-2.67,2.628,3.22,3.22,0,0,1-2.5-1.066,6.864,6.864,0,0,1-1.972-4.3l-.021-.276a75.156,75.156,0,0,1-.229-9.984c.181-2.722-.15-5.475-.1-8.188.119-3.55.624-7.06.934-10.624.125-1.746.955-2.572,2.412-2.679l.507-.037a.524.524,0,0,1,.321.046C401.284,706.865,401.69,707.184,401.808,708.771Zm.768-9.735A2.605,2.605,0,0,1,402,700.7a10.379,10.379,0,0,1-3.788,3.009c-.064,0-.185.088-.248.092a1.534,1.534,0,0,1-1.051-.439,2.8,2.8,0,0,1-.974-1.993,3.051,3.051,0,0,1,.066-.817c.252-.9.7-1.748,1.649-1.818l2.142-.306,1.645-.122a1.194,1.194,0,0,1,1.046.365A.62.62,0,0,1,402.576,699.036Z" transform="translate(-364.891 -693.371)"/><path class="c" d="M411.17,741.219a2.168,2.168,0,0,1-.054-.587V740.1c-.107-4.1-.213-8.146-.265-12.193,0-1.864.106-3.727.159-5.591.054-.585.054-1.224.054-1.81,0-1.331-.054-2.662-.107-4.046v-.852a17.1,17.1,0,0,1,.745-4.9,4.191,4.191,0,0,0,.213-1.171c0-.426-.213-.586-.639-.586a6.405,6.405,0,0,0-1.225.16,16.694,16.694,0,0,1-2.769.426h-.372a3.5,3.5,0,0,1-2.822-1.066c-.107-.16-.214-.266-.214-.425a.676.676,0,0,1,.214-.373,2.1,2.1,0,0,1,1.6-.852c5.058-.851,10.009-2.236,15.121-2.875a38.037,38.037,0,0,1,4.26-.213H426.4a1.049,1.049,0,0,1,1.012.532,1.907,1.907,0,0,1,.107.532.677.677,0,0,1-.373.693,7.753,7.753,0,0,1-2.5,1.171c-1.7.16-3.408.48-5.058.745-.8.16-1.012.266-1.065,1.012-.161,2.4-.267,4.845-.267,7.241,0,1.544.054,3.088.161,4.686.213,2.715.319,5.431.319,8.2,0,.9.16,1.863.213,2.768.107,2.715.213,5.484.213,8.2a27.907,27.907,0,0,1-.586,4.153,3.7,3.7,0,0,1-2.024,2.662c-.479.265-.958.532-1.438.852C412.394,746.116,411.649,743.774,411.17,741.219Z" transform="translate(-365.786 -693.931)"/><g transform="translate(59.865 7.304)"><path class="c" d="M435.208,718.025c.053,1.225.3,2.428.431,3.644.133,1.232-.007,2.482.172,3.707.17,1.161.44,2.3.635,3.46a1.063,1.063,0,0,0,1.13.891,7.51,7.51,0,0,0,3.447-.861,13.641,13.641,0,0,0,2.844-3.751c.109-.187.3-.372.457-.382s.067,0,.211.057.375.412.46.538a.646.646,0,0,1,.071.353.8.8,0,0,1,0,.185,10.692,10.692,0,0,1-.809,3.263,15.308,15.308,0,0,1-1.124,2.1,6.129,6.129,0,0,1-5.154,3.112c-.855.04-1.687-.033-2.55-.032a6.418,6.418,0,0,1-6.081-4.519,24.572,24.572,0,0,1-1.143-6.12c-.016-.271.064-.534.059-.812s.061-.588.057-.862c-.011-.683-.154-1.389-.17-2.051a6.075,6.075,0,0,1,.039-.763c.271-2.611.245-5.178,1.029-7.686a46.371,46.371,0,0,1,1.861-4.949c.544-1.238,1.2-2.542,1.867-3.806a3.02,3.02,0,0,1,3.158-1.676c1.887.045,4.086.522,6.012-.072a2.279,2.279,0,0,1,.763-.029,1.267,1.267,0,0,1,.192.045,15.4,15.4,0,0,1,3.292,1.717,3.8,3.8,0,0,1,1.747,2.908,4.271,4.271,0,0,0,.218,1.288,1.88,1.88,0,0,1,.226,1.182,2.538,2.538,0,0,1-.855,1.36c-.369.284-.654.54-1.1.406s-.661-.478-.942-.907c-.461-.706-1.336-1.656-1.81-2.3a3.684,3.684,0,0,0-1.648-1.239,3.917,3.917,0,0,0-3.743.832,16.646,16.646,0,0,0-3.376,9.718c0,.274.015.769.023,1.088S435.194,717.7,435.208,718.025Z" transform="translate(-428.153 -700.947)"/></g><path class="c" d="M461.775,724.074a2.791,2.791,0,0,0,2.534-2.938c.057-1.037.173-2.015.173-3.052v-.461c0-3.225.46-6.449.46-9.732v-1.325a48.27,48.27,0,0,1,.461-4.894,2.1,2.1,0,0,1,1.9-2.016c1.152-.173,2.246-.633,3.4-.864h.289a1.464,1.464,0,0,1,1.612,1.382,1.51,1.51,0,0,1-.172.634,15.115,15.115,0,0,0-1.037,5.7c-.173,4.549-.345,9.1-.576,13.648-.116,2.533-.345,5.067-.461,7.544-.172,4.2-.345,8.406-.46,12.611a15.186,15.186,0,0,1-.749,3.974,2.247,2.247,0,0,1-.576,1.093,2.805,2.805,0,0,1-1.958.921,3.38,3.38,0,0,1-2.534-1.554,6.549,6.549,0,0,1-1.094-3.859V740.2c.116-2.476.288-4.895.4-7.314.057-1.612.057-3.225.057-4.837,0-.633-.231-.921-.748-.921-.116,0-.232.057-.4.057-1.209.173-2.073,1.152-3.167,1.44-.806.172-.979.518-.979,1.151.057,1.094.115,2.189.115,3.283v.749a20.575,20.575,0,0,1-.922,6.219c-.518,1.555-1.9,1.786-3.109,2.131a.985.985,0,0,1-.4.057,3.29,3.29,0,0,1-2.477-1.785,8.362,8.362,0,0,1-.921-4.089v-.805c.288-5.3.4-10.6,1.094-15.895.4-2.763.288-5.585.748-8.35a9.068,9.068,0,0,1,.289-1.728,2,2,0,0,1,2.13-1.554h.4l1.728.173c1.21.172,1.9.805,1.9,1.785a2.366,2.366,0,0,1-.057.633,11.983,11.983,0,0,0-.4,3.513v1.555c0,2.649.057,5.356.115,8.062,0,.4.116.807.173,1.382A17.189,17.189,0,0,1,461.775,724.074Z" transform="translate(-370.584 -693.422)"/><path class="c" d="M493.981,718.393a6.3,6.3,0,0,1,.214,1.505c0,.79-.358,1.291-1.362,1.866a16.222,16.222,0,0,1-6.525,2.079,1.277,1.277,0,0,0-1.362,1.362c-.073,1.362-.216,2.724-.216,4.087v2.079a10.757,10.757,0,0,1-.215,2.653.78.78,0,0,0-.072.359c0,.5.359.788.933.788h.143c1.363-.072,2.726-.215,4.087-.287s2.725-.143,4.087-.143a.986.986,0,0,1,.932,1.076v.286a2.21,2.21,0,0,1-1,1.506,10.381,10.381,0,0,1-4.016,1.65,33.084,33.084,0,0,0-5.88,1.29,11.13,11.13,0,0,1-2.653.287,25.446,25.446,0,0,1-3.3-.215,2.2,2.2,0,0,1-1.936-1.792,6.681,6.681,0,0,1-.358-2.079,7.9,7.9,0,0,1,.144-1.291,87.261,87.261,0,0,0,1-12.19V721.62c0-.216.072-.431.072-.647a.429.429,0,0,0-.072-.285,4.016,4.016,0,0,1-.358-1.794,23.78,23.78,0,0,1,.43-3.155c.359-3.011.788-6.023,1.219-9.034a26.276,26.276,0,0,1,1.649-5.736c.358-1,.86-1.363,1.72-1.363h.43c4.732.647,9.465.288,14.125.5h1c.645.144,1.219.285,1.29,1.075v.143a1.234,1.234,0,0,1-1,1.219,30.759,30.759,0,0,1-6.74,1.577c-.215,0-.359.072-.574.072-.645,0-1.362-.144-2.079-.144a2.061,2.061,0,0,0-1.792.718,2.948,2.948,0,0,0-.574,1.936c0,.788.143,1.578.143,2.366v.287c-.214,2.8-.214,5.664-.286,8.532,0,.574.072,1.219.144,2.079h.788C489.033,719.969,491.4,718.966,493.981,718.393Z" transform="translate(-373.165 -693.505)"/><path class="c" d="M509.262,734.746v1.795c0,2.971-.309,5.94-.433,8.911,0,1.176-.866,1.98-1.176,2.97-.062.186-.248.372-.37.372-1.238.062-2.1,1.052-3.342,1.176h-.371a2.145,2.145,0,0,1-1.919-1.052,4.973,4.973,0,0,1-.866-2.352v-.186a25.115,25.115,0,0,0-.557-3.775,14.379,14.379,0,0,1-.247-2.351,4.458,4.458,0,0,1,.061-.867,33.662,33.662,0,0,0,.186-3.527c0-1.176-.062-2.352-.124-3.527,0-.557-.062-1.176-.062-1.795,0-1.98.186-4.023.31-6.065a17.348,17.348,0,0,0-.125-4.021,9.45,9.45,0,0,1-.186-1.858c0-.989.124-1.98.186-2.97.247-1.98.62-3.961.866-5.94a3.821,3.821,0,0,1,.99-1.919,1.919,1.919,0,0,1,1.423-.743h2.908a1.178,1.178,0,0,1,.99.372,4.346,4.346,0,0,0,1.795,1.176.834.834,0,0,1,.557.556c.5,1.547,1.485,2.847,1.919,4.456a61.794,61.794,0,0,0,2.66,7.116,47.148,47.148,0,0,1,2.29,7.8c.8,3.218,1.671,6.5,2.476,9.716a2.684,2.684,0,0,0,.309.743.7.7,0,0,0,.5.186c.124,0,.248-.248.248-.371.433-4.517,1.113-8.973,1.856-13.428.744-4.269,1.547-8.54,2.29-12.809.309-1.733.557-3.4.866-5.074a4.247,4.247,0,0,1,1.176-2.414.885.885,0,0,1,.681-.31.675.675,0,0,1,.309.062.936.936,0,0,1,.494.867c-.37,2.909-.68,5.755-1.113,8.6-.433,3.341-.928,6.62-1.3,9.962-.557,4.7-1.423,9.344-2.1,13.985-.248,1.3-.556,2.661-.743,4.023-.124.866-.062,1.794-.124,2.66-.062,1.485-.062,2.909-.124,4.332-.062.866-.556,1.237-1.362,1.485a3.5,3.5,0,0,1-1.113.186c-.619,0-1.176-.124-1.671-.124a2.321,2.321,0,0,0-.681.062h-.186c-.557,0-.928-.619-1.176-1.176-.371-1.238-.8-2.413-1.052-3.651a55.448,55.448,0,0,0-2.1-7.611,52.73,52.73,0,0,1-1.98-9.282,9.677,9.677,0,0,0-.309-1.857c-.371-1.3-.8-2.537-1.238-3.836-.124.062-.248.062-.371.123C509.138,727.259,509.262,730.972,509.262,734.746Z" transform="translate(-375.69 -694.034)"/></g><path class="a" d="M519.97,704.553l5.662,6c.1-1.834.019-4.7-1.558-6.875a10.98,10.98,0,0,0-5.992-3.983,1.593,1.593,0,0,0-2.139,1.427c-.114,1.828-.052,4.768,1.553,6.979a10.98,10.98,0,0,0,5.992,3.983,1.738,1.738,0,0,0,.678.126Z" transform="translate(745.736 325.25)"/></g><g transform="translate(1127.024 1041.387)"><path class="b" d="M385.573,721.405a3.814,3.814,0,0,1,3.813,3.812c0,4.481-1.708,2.1-3.813,2.1s-3.812,2.318-3.812-2.1A3.814,3.814,0,0,1,385.573,721.405Z" transform="translate(-379.664 -717.279)"/><path class="b" d="M391.371,719.1c.7.187.888,1.731.7,2.427a1.306,1.306,0,1,1-2.523-.676C389.736,720.158,390.674,718.917,391.371,719.1Z" transform="translate(-380.322 -717.082)"/><path class="b" d="M380.16,719.03c.64-.171,1.519,1.036,1.691,1.675a1.2,1.2,0,0,1-2.318.621C379.362,720.688,379.52,719.2,380.16,719.03Z" transform="translate(-379.469 -717.076)"/><path class="b" d="M387.782,716.9c.662,0,1.2,1.394,1.2,2.056a1.2,1.2,0,1,1-2.4,0C386.583,718.291,387.12,716.9,387.782,716.9Z" transform="translate(-380.074 -716.896)"/><path class="b" d="M383.85,716.9c.662,0,1.2,1.394,1.2,2.056a1.2,1.2,0,0,1-2.4,0C382.65,718.291,383.188,716.9,383.85,716.9Z" transform="translate(-379.739 -716.896)"/></g></g></svg>