<svg xmlns="http://www.w3.org/2000/svg" width="397.901" height="160.748" viewBox="0 0 397.901 160.748"><g transform="translate(11182.857 536.547)"><path d="M237.678,11.519a3.937,3.937,0,0,1,.732,2.2V13.9a25.169,25.169,0,0,1-.732,3.479c-.244.857-.545,1.771-.914,2.744q-.915,2.2-2.2,4.943-2.2,4.21-5.307,9.334-4.759,8.054-10.98,16.653-1.647,3.665-2.381,5.489-3.295,7.688-5.855,14.278Q204,86.007,199.428,100.282a142.774,142.774,0,0,0-4.393,14.825q-.183,1.278-.548,2.744a.545.545,0,0,0,.184-.364,33.6,33.6,0,0,0,1.828-3.845q.915-2.38,3.113-1.554t1.28,3.2a1.064,1.064,0,0,1-.366.732,19.993,19.993,0,0,0-2.744,3.477,25.806,25.806,0,0,0-2.015,3.661A20.982,20.982,0,0,0,193.939,127a7.743,7.743,0,0,0-.369,2.012v1.1a1.805,1.805,0,0,1-.364.916l-.184.732-.184.364a3.146,3.146,0,0,1-1.646,1.557,2.524,2.524,0,0,1-2.2-.092,2.192,2.192,0,0,1-1.462-1.464l-.917-1.646a21.7,21.7,0,0,1,.184-2.744,20580.231,20580.231,0,0,1,.364-2.2q.183-.919.916-4.027.911-3.665,2.2-7.685,1.827-6.59,4.575-15.01,4.21-13,10.43-29.646.183-.37.461-1.1a10.871,10.871,0,0,1,.458-1.1c-.124,0-.339.242-.642.732a6.486,6.486,0,0,1-.822,1.1q-4.214,5.122-6.774,8.052-3.84,4.4-7.319,7.688a77.3,77.3,0,0,1-8.236,7.138,11.079,11.079,0,0,1-2.747,1.283,7.257,7.257,0,0,1-3.477.55,3.875,3.875,0,0,1-2.015-.55,6.315,6.315,0,0,1-1.646-1.464,8.307,8.307,0,0,1-1.464-3.661,16.594,16.594,0,0,1,.55-6.224,30.82,30.82,0,0,1,1.828-5.307,47.93,47.93,0,0,1,5.491-9.516,75.109,75.109,0,0,1,6.956-8.418,48.594,48.594,0,0,1,8.236-7.322,24.887,24.887,0,0,1,4.941-2.929,13.75,13.75,0,0,1,3.295-.916,5.679,5.679,0,0,1,2.012,0,4.6,4.6,0,0,1,2.015.55,5.97,5.97,0,0,1,2.929,2.563,9.891,9.891,0,0,1,1.28,3.111,2.085,2.085,0,0,1,.184.916,6.45,6.45,0,0,1,.914-1.464q2.925-7.318,5.31-12.995,4.206-9.515,6.587-14.459,2.01-4.206,3.661-7.138,1.278-2.01,2.2-3.479a11.788,11.788,0,0,1,1.464-1.828,11.651,11.651,0,0,1,.73-.914,16.829,16.829,0,0,1,1.283-1.1,3.084,3.084,0,0,1,2.47-.732,3.489,3.489,0,0,1,2.286,1.28M201.991,66.607q2.563-3.291,5.307-7.319v-.366a11.893,11.893,0,0,0-.732-4.393c-.364-.608-.67-1.1-.914-1.464a1.585,1.585,0,0,0-1.1-.548,1.413,1.413,0,0,0-.545-.184,1.055,1.055,0,0,1-.732.184,6.237,6.237,0,0,0-1.649.732A20.336,20.336,0,0,0,197.964,56a74.973,74.973,0,0,0-7.138,6.953q-3.112,3.661-6.221,7.87-3.295,4.572-5.491,8.236-1.278,2.376-2.2,4.393A11.643,11.643,0,0,0,176,87.472a4.135,4.135,0,0,0,.182,1.28c.125.12.247.244.366.366,0,.122.122.184.366.184a2.99,2.99,0,0,0,1.464,0,16.783,16.783,0,0,0,2.2-.916,36.765,36.765,0,0,0,7.87-6.039q3.295-3.116,7.138-7.5,3.657-4.393,6.405-8.238M187.9,127.918v-.182l-.364-.182v.182c0,.242.117.3.364.182" transform="translate(-11353.813 -529.307)"/><path d="M236.6,43.608a1.4,1.4,0,0,1-.184,2.286,18.779,18.779,0,0,1-7.685,3.661,23.025,23.025,0,0,1-8.238.366,28.709,28.709,0,0,1-4.024-.732l-.184-.182a1.069,1.069,0,0,1-.182.732q-.37,2.559-.732,4.206a20.041,20.041,0,0,1-1.646,3.845,27.47,27.47,0,0,1-4.391,7.138,12.689,12.689,0,0,1-3.113,3.111,11.5,11.5,0,0,1-4.759,2.015,12.192,12.192,0,0,1-2.926,0l-.553-.184a1.651,1.651,0,0,1-.732-.184,6.383,6.383,0,0,0-.914-.364,2.252,2.252,0,0,1-.55-.369,9.406,9.406,0,0,1-3.658-4.391,27.432,27.432,0,0,1-1.1-4.759,19.7,19.7,0,0,1,.187-4.575,7.738,7.738,0,0,1,.366-2.015,8.259,8.259,0,0,1,.364-2.194,34.242,34.242,0,0,1,1.1-4.027,43.419,43.419,0,0,1,8.418-14.644,37.785,37.785,0,0,1,3.111-3.111,18.569,18.569,0,0,1,4.027-2.56,22.086,22.086,0,0,1,2.56-.916,8.663,8.663,0,0,1,1.649-.182h1.28a2.963,2.963,0,0,0,.919.182,5.064,5.064,0,0,1,2.378,1.83,6.56,6.56,0,0,1,1.1,2.015c.122.488.242.979.369,1.464v1.646a3.474,3.474,0,0,1-1.009,2.378,2.725,2.725,0,0,1-2.471.916,3.208,3.208,0,0,1-3.477-2.929v.184h-.182a11.7,11.7,0,0,0-2.378,1.646,21.7,21.7,0,0,0-2.383,2.378,37.243,37.243,0,0,0-7.133,12.079q-.557,1.83-.921,3.3c-.361,1.462-.608,2.62-.727,3.477a13.431,13.431,0,0,0-.369,3.292,9.85,9.85,0,0,0,.369,2.744,4.232,4.232,0,0,0,.914,1.83q.359.549,1.828.55a4.872,4.872,0,0,0,2.378-.732q1.281-.915,2.563-2.015a32.33,32.33,0,0,0,3.843-5.857,33.239,33.239,0,0,0,1.464-3.29,15.655,15.655,0,0,0,.916-3.479,11.6,11.6,0,0,0,.184-2.2,9.941,9.941,0,0,1-2.565-3.658,9.032,9.032,0,0,1-.914-4.577,12.806,12.806,0,0,1,.366-1.464,1.111,1.111,0,0,0,.274-.458,1.163,1.163,0,0,1,.274-.456,2.752,2.752,0,0,1,1.283-.732,2.078,2.078,0,0,1,1.464-.184,7.158,7.158,0,0,0,.914.366,3.71,3.71,0,0,1,1.283,1.1,6.234,6.234,0,0,1,1.1,2.378,9.586,9.586,0,0,1,.548,2.2c.122,1.345.184,2.685.184,4.027l.182.184.735.182q1.827.549,3.477.916a24.309,24.309,0,0,0,7.322-.366,13.45,13.45,0,0,0,6.221-2.929,1.343,1.343,0,0,1,2.2.092M211.706,31.985v0Z" transform="translate(-11323.996 -506.398)"/><path d="M278.5,42.533a1.307,1.307,0,0,1-1.28,1.646h-.366a6.155,6.155,0,0,0-1.649.732,10.155,10.155,0,0,0-2.01.914,30.439,30.439,0,0,0-4.03,2.015q-4.027,2.2-7.87,4.757a171.243,171.243,0,0,0-15.007,10.614c-.488.369-1.283.976-2.378,1.83q-1.285,4.393-2.378,7.872-3.295,10.609-6.042,17.752-3.665,10.064-7.138,17.388-2.2,4.572-4.575,8.6a28.869,28.869,0,0,1-2.565,4.025c0,.122-.209.426-.638.914s-.762.854-1.009,1.1q-1.274,1.644-1.646,2.012A15.173,15.173,0,0,1,213.162,128a10.452,10.452,0,0,1-6.221.917,8.049,8.049,0,0,1-5.857-3.295,9.5,9.5,0,0,1-2.012-6.039V118.3a1.656,1.656,0,0,1,.182-.732v-.55l.55-2.56.55-2.381a5.719,5.719,0,0,1,.364-1.283l.366-1.1a4.024,4.024,0,0,1,.366-1.006c.247-.55.428-1.009.55-1.372l.914-2.2.55-1.1.548-1.1,1.1-2.012A100.87,100.87,0,0,1,216.275,85.54q5.674-6.224,13.359-13.177,3.112-2.746,6.59-5.673,2.559-7.5,4.209-13.361c.244-.613.67-1.95,1.283-4.025s1.1-3.726,1.464-4.943a30.622,30.622,0,0,0,.914-2.929c-.61.615-1.22,1.223-1.828,1.833q-1.1,1.278-3.205,3.566t-3.018,3.205a60.484,60.484,0,0,1-7.14,6.587,17.578,17.578,0,0,1-2.378,1.462c-.613.244-1.1.428-1.464.55a4.708,4.708,0,0,1-5.855-2.744,6.166,6.166,0,0,1-.369-3.661,18.644,18.644,0,0,1,1.464-5.307,30.6,30.6,0,0,1,2.2-4.575,47.935,47.935,0,0,1,5.673-7.87A47.072,47.072,0,0,1,231.648,31a32.83,32.83,0,0,1,4.393-3.113,8.769,8.769,0,0,1,2.926-1.1,3.026,3.026,0,0,0,.916-.184h1.1a4.869,4.869,0,0,1,2.56,1.1,5.183,5.183,0,0,1,1.283,2.012,10.32,10.32,0,0,1,.182,2.015,7.331,7.331,0,0,1-.914,2.744,1.444,1.444,0,0,1-2.2.732,1.581,1.581,0,0,1-.732-1.28v-.184a12.208,12.208,0,0,0-.364-1.83c-.125-.244-.247-.364-.369-.364v.182c0,.122.122.247.369.364l-.187.187a8.79,8.79,0,0,0-1.278.914c-.732.61-1.713,1.527-2.929,2.744q-1.647,1.647-2.931,3.111-1.644,2.017-2.742,3.479-2.2,2.742-2.747,3.477a20.492,20.492,0,0,0-2.2,3.477,16.487,16.487,0,0,0-1.646,3.477v.914a.535.535,0,0,0,.366-.182,4.364,4.364,0,0,0,1.83-.914,56.06,56.06,0,0,0,6.771-5.491q2.925-2.929,6.405-6.59l3.292-3.477c.976-1.1,1.527-1.708,1.649-1.828.488-.369.916-.67,1.28-.916a9.692,9.692,0,0,1,.916-.548h.55a.735.735,0,0,1,.548-.184,7.855,7.855,0,0,1,.916.366,2.36,2.36,0,0,1,.914.55,2.935,2.935,0,0,1,.55.732.732.732,0,0,0,.182.548v1.83l-.182,1.28-.369,2.378q-.366,2.38-.914,4.577-.549,2.563-2.2,8.966-.732,2.376-1.28,4.762,7.139-5.312,14.275-9.7,3.84-2.566,7.87-4.943,2.376-1.281,4.211-2.2a16.265,16.265,0,0,0,2.194-.914,7.132,7.132,0,0,1,2.744-.732c.976-.242,1.586.182,1.83,1.283m-56.737,62.592q5.675-12.451,12.263-31.847a139.8,139.8,0,0,0-14.641,15.007,89.024,89.024,0,0,0-10.432,14.644l-.916,2.012-.548,1.1-.366.914-.914,2.2a15.113,15.113,0,0,1-.732,2.015l-.184,1.1a.755.755,0,0,0-.182.55l-.184.369-.366,2.194-.182,2.2-.184.366V119.4a5.123,5.123,0,0,0,1.283,2.563,2.714,2.714,0,0,0,2.012,1.006,4.577,4.577,0,0,0,2.744-.824,9.871,9.871,0,0,0,2.747-2.2l1.28-1.464a8.611,8.611,0,0,1,.64-1.006c.306-.428.52-.64.642-.64q1.281-2.2,2.2-3.843a67.876,67.876,0,0,0,4.024-7.87m2.2-51.248h0Z" transform="translate(-11311.912 -504.865)"/><path d="M293.978,50.143a1.445,1.445,0,0,1-.824,2.107,1.866,1.866,0,0,0-.732.364l-.732.369-1.464.914L287.3,55.908l-6.039,3.661q-6.773,4.389-12.079,7.685a16.941,16.941,0,0,1-.916,7.322,25.856,25.856,0,0,1-5.307,8.236,21.845,21.845,0,0,1-8.418,5.123,16.808,16.808,0,0,1-5.31.55,10.522,10.522,0,0,1-5.033-2.107,10.89,10.89,0,0,1-3.384-4.117,6.218,6.218,0,0,1-.732-2.747,7.672,7.672,0,0,1,.182-1.828,2.922,2.922,0,0,1,1.283-1.646,1.966,1.966,0,0,1,1.464-.55,10.711,10.711,0,0,0,1.278-.092,12.412,12.412,0,0,0,1.464-.274,19.031,19.031,0,0,0,3.113-1.28,67.551,67.551,0,0,0,6.221-2.931q3.112-1.464,6.774-3.658v-.732l-.184-.366a4.666,4.666,0,0,0-1.464-2.378,25.041,25.041,0,0,0-2.56-2.563q-6.04-5.125-6.59-5.855a21.931,21.931,0,0,1-3.113-4.211,12.269,12.269,0,0,1-.914-2.744,8.431,8.431,0,0,1-.182-3.111,12.925,12.925,0,0,1,1.1-5.125,17.052,17.052,0,0,1,2.563-4.209,36.087,36.087,0,0,1,6.408-6.59,52.835,52.835,0,0,1,7.5-4.941,28.448,28.448,0,0,1,8.97-2.929,2.837,2.837,0,0,1,1.738.182,3.452,3.452,0,0,1,1.372,1.1,4.051,4.051,0,0,1,.732,1.646v.914a1.647,1.647,0,0,1-.182.732l-.184.366a3.186,3.186,0,0,0-.366.916c-.125.244-.363.67-.732,1.28q-.187.183-1.464,2.2l-2.929,4.393q-1.464,2.2-2.563,4.209-.732,1.281-1.28,2.2c-.122.364-.247.732-.366,1.1a1.426,1.426,0,0,0-.182.55.162.162,0,0,0-.184.182c0,.979-.518,1.464-1.557,1.464s-1.556-.548-1.556-1.646a7.611,7.611,0,0,0,.368-.914,1.6,1.6,0,0,1,.182-.732,9.421,9.421,0,0,1,.55-1.283l1.1-2.378q1.1-2.746,2.015-4.759.549-1.461,1.1-3.111c-.488.247-.979.488-1.464.732a33.938,33.938,0,0,0-6.224,4.025,29.715,29.715,0,0,0-5.123,5.31q-2.383,2.929-2.378,5.307v.366a4.347,4.347,0,0,0,.545,2.1,11.8,11.8,0,0,0,2.015,2.47q.366.366,6.039,5.307,2.014,1.827,3.477,3.295c.61.852,1.1,1.584,1.464,2.2a8.513,8.513,0,0,1,1.1,2.378q5.122-3.112,11.162-6.769l6.042-3.661,2.929-1.833,1.646-.914.732-.548a9.208,9.208,0,0,1,.914-.55,1.488,1.488,0,0,1,2.107.824M261.491,72.2v-.55q-2.566,1.464-4.575,2.565-3.665,2.01-6.59,3.295c-1.342.483-2.5.914-3.477,1.278q-.915.183-2.015.369a1.066,1.066,0,0,1-.732.182,4.744,4.744,0,0,0,.55,1.1,5.066,5.066,0,0,0,2.2,2.01,3.78,3.78,0,0,0,2.744.732,7.4,7.4,0,0,0,2.929-.732,19.232,19.232,0,0,0,5.307-4.393,19.375,19.375,0,0,0,3.661-5.855m-14.641-26.9a.161.161,0,0,1-.182.182Zm23.425-20.683.184.182v-.182Z" transform="translate(-11250.793 -512.569)"/><path d="M345.425,24.865a3.436,3.436,0,0,1,3.477,3.477,3.68,3.68,0,0,1-1.006,2.565,2.719,2.719,0,0,1-2.47.914h-.182q-2.383,0-11.349-.182H322.364l-22.877-.184h-1.83q-1.648,3.112-2.194,4.391-6.227,12.63-11.9,25.99-5.858,14.278-10.248,26.722-2.376,6.952-4.027,12.808a2.066,2.066,0,0,1,2.2-.182,1.908,1.908,0,0,1,.548,2.747,28.93,28.93,0,0,0-1.646,3.111,16.557,16.557,0,0,0-1.464,2.926q-.362,1.1-2.562,6.59a2.047,2.047,0,0,1-2.929,1.464,2.351,2.351,0,0,1-1.464-2.2,33.328,33.328,0,0,1,.732-7.685l.368-1.83.364-1.83q.187-.549.917-3.477,1.468-6.224,4.027-14.093,4.21-12.813,9.882-27.27Q283.747,45.914,289.6,33.1l.914-1.833H270.568v.369a3.333,3.333,0,0,1-1.28,1.738,2.126,2.126,0,0,1-2.012.271h-.184a13.142,13.142,0,0,0-1.464-.364l-1.646-.182-3.661-.55q-3.478-.553-7.138-1.283a2.168,2.168,0,0,1-1.831-2.744,2.04,2.04,0,0,1,2.2-1.83q1.468-.179,5.857-.366h5.673l11.531-.366,16.656-.366q1.461-3.108,2.926-5.673a109.551,109.551,0,0,1,7.686-12.629,2.811,2.811,0,0,1,2.2-1.464,3.734,3.734,0,0,1,2.657.64,3.15,3.15,0,0,1,1.37,2.289,3.676,3.676,0,0,1-.548,2.563h-.184v.184a83.789,83.789,0,0,0-7.319,11.712,4.008,4.008,0,0,0-.732,1.188q-.37.826-.55,1.19l21.6-.366,11.531-.184q9.149-.179,11.531-.182" transform="translate(-11234.067 -535.882)"/><path d="M302.072,45.985A1.267,1.267,0,0,1,302.257,48q-1.1,1.464-3.11,3.661-1.472,1.461-3.3,3.295-3.291,3.291-6.769,6.405-3.669,3.474-6.956,6.221-2.017,1.647-3.661,2.931a34.874,34.874,0,0,1-4.027,2.742,4.727,4.727,0,0,1-1.28.732,7.022,7.022,0,0,1-1.467.55h-.546a1.655,1.655,0,0,1-.732.182,3.011,3.011,0,0,0-.919-.182,3.33,3.33,0,0,1-.732-.182,4.756,4.756,0,0,1-1.828-1.649,8.324,8.324,0,0,1-1.283-3.477,27.466,27.466,0,0,1,.184-2.929,44.5,44.5,0,0,1,2.381-9.518q1.281-3.474,3.292-8.052a1.1,1.1,0,0,1-.732-.732,2.319,2.319,0,0,1,.368-2.744l.182-.184c.244-.242.613-.608,1.1-1.1q.915-1.464,1.1-1.83a38.043,38.043,0,0,1,2.926-3.661l.184-.182a3.2,3.2,0,0,1,2.563-.732,3.544,3.544,0,0,1,2.378,1.28,3.184,3.184,0,0,1,.366,3.843c-.122.247-.306.583-.548,1.009a8.968,8.968,0,0,0-.55,1.1,5.492,5.492,0,0,1-.55,1.006,8.709,8.709,0,0,0-.545.914q-1.1,2.38-2.015,4.03a90.638,90.638,0,0,0-3.843,8.236,29.483,29.483,0,0,0-2.563,8.052,11.766,11.766,0,0,0-.182,1.83v.366a1.806,1.806,0,0,0,.914-.366,36.746,36.746,0,0,0,3.658-2.2c1.1-.732,2.316-1.586,3.661-2.563q3.295-2.566,7.138-5.673,3.474-3.116,6.771-6.039,1.827-1.647,3.479-3.111,2.013-2.017,3.113-3.111v-.187q.911-1.095,2.194,0m-20.5-10.43a3.353,3.353,0,0,1-1.828-1.83,3.54,3.54,0,0,1,0-2.744,48.419,48.419,0,0,1,3.292-5.855,3.207,3.207,0,0,1,2.2-1.375,3.634,3.634,0,0,1,2.652.456,3.132,3.132,0,0,1,1.464,2.2,3.454,3.454,0,0,1-.64,2.747,25.015,25.015,0,0,0-2.56,4.575,3.254,3.254,0,0,1-4.577,1.83" transform="translate(-11212.679 -509.236)"/><path d="M322.11,42.43a1.44,1.44,0,0,1,1.375,1.83c-.125.366-.306.852-.55,1.464a4.63,4.63,0,0,1-.55,1.1,7.389,7.389,0,0,1-1.1,1.83,33.9,33.9,0,0,1-2.563,3.661q-2.566,3.47-5.489,6.769a105.381,105.381,0,0,1-12.45,12.263,61.368,61.368,0,0,1-7.5,4.941,25.75,25.75,0,0,1-4.575,1.83,11.492,11.492,0,0,1-5.31.548,9.116,9.116,0,0,1-2.929-.914,4.207,4.207,0,0,1-1.464-.732l-.548-.366-.366-.366-.366-.366a6.06,6.06,0,0,1-1.83-2.929,10.105,10.105,0,0,1-.732-2.744,18.186,18.186,0,0,1,0-5.125q.183-2.38.55-4.575a56.894,56.894,0,0,1,2.744-8.784,43.1,43.1,0,0,1,1.649-4.209,37.558,37.558,0,0,1,2.01-3.843,58.47,58.47,0,0,1,4.762-7.688,40.237,40.237,0,0,1,6.405-6.956,13.319,13.319,0,0,1,4.575-2.563,8.485,8.485,0,0,1,6.224-.182,6.04,6.04,0,0,1,1.738,1.1,4.17,4.17,0,0,1,1.19,1.83,6.207,6.207,0,0,1,.73,3.111,19,19,0,0,1-1.1,4.941,36.859,36.859,0,0,1-4.393,8.054,21.577,21.577,0,0,1-3.111,3.477,13.273,13.273,0,0,1-3.843,2.747,1.447,1.447,0,0,1-2.194-.732,1.291,1.291,0,0,1,.545-1.83l.184-.184a16.7,16.7,0,0,0,4.943-5.673,30.689,30.689,0,0,0,3.111-7.322,13.209,13.209,0,0,0,.55-3.295,2.537,2.537,0,0,0-.187-1.1l-.182.182a3.122,3.122,0,0,0-2.012.366,10.729,10.729,0,0,0-2.744,1.83,45.084,45.084,0,0,0-4.941,6.039,60.838,60.838,0,0,0-3.845,6.956,79.684,79.684,0,0,0-5.489,15.189,38.4,38.4,0,0,0-.732,3.843,11.835,11.835,0,0,0-.187,3.477,4.06,4.06,0,0,0,.187,1.283c.119.244.244.486.364.732v.182c.124,0,.182.06.182.184a1.959,1.959,0,0,1,.55.366,4.708,4.708,0,0,0,1.1.548q2.376.732,6.59-.914a35.8,35.8,0,0,0,6.956-4.027A80.689,80.689,0,0,0,310.671,56.7a75.2,75.2,0,0,0,5.491-6.405A30.164,30.164,0,0,0,318.725,47a15.3,15.3,0,0,1,.916-1.646,5.884,5.884,0,0,0,.548-1.009,2.211,2.211,0,0,0,.184-.638q.179-1.464,1.736-1.283" transform="translate(-11198.77 -506.044)"/><path d="M355.086,76.685A1.381,1.381,0,0,1,356,78.7a32.392,32.392,0,0,1-4.941,8.781,61.745,61.745,0,0,1-6.771,7.14,70.544,70.544,0,0,1-15.921,11.531,36.236,36.236,0,0,1-9.521,3.658,18.983,18.983,0,0,1-5.673.548h-.732a1.615,1.615,0,0,1-.732-.182c-.488-.122-.979-.247-1.464-.366a11.638,11.638,0,0,1-2.56-1.1,20.706,20.706,0,0,1-8.42-7.322,2.234,2.234,0,0,1-.366-.548q-1.461,5.122-2.563,9.334-.728,3.657-1.28,6.587a59.911,59.911,0,0,0-.916,6.224,3.434,3.434,0,0,1-3.566,3.387,3.793,3.793,0,0,1-3.39-3.569q.187-2.929.919-7.319.545-3.116,1.462-6.956,1.468-5.861,3.661-13.364,3.478-12.077,8.786-25.988,5.122-13.9,10.43-25.44a199.741,199.741,0,0,1,12.995-24.523,63.138,63.138,0,0,1,9.152-11.165,27.517,27.517,0,0,1,2.926-2.563,14.763,14.763,0,0,1,4.029-1.83,1.426,1.426,0,0,1,.548-.184l.548-.182a4.716,4.716,0,0,1,1.83,0,9.764,9.764,0,0,1,2.015.55,13.978,13.978,0,0,1,1.464,1.28,8.493,8.493,0,0,1,1.464,2.744q.179.919.364,2.2a16.89,16.89,0,0,1-.182,4.209,28.612,28.612,0,0,1-.732,3.661q0,.187-.914,3.479-.732,2.2-1.1,3.295a82.141,82.141,0,0,1-6.405,12.626A145.1,145.1,0,0,1,323.97,59.663q-4.576,5.125-9.516,9.884-4.393,4.214-7.872,7.319-.732,2.01-1.646,4.759,2.563-2.017,4.575-3.477a68.355,68.355,0,0,1,6.592-4.027,27.811,27.811,0,0,1,7.5-2.929,3.134,3.134,0,0,1,2.655.456,3.81,3.81,0,0,1,1.557,2.2,3.409,3.409,0,0,1-.369,2.655,2.807,2.807,0,0,1-2.194,1.467,31.823,31.823,0,0,0-6.039,2.378q-2.566,1.461-5.676,3.658a55.207,55.207,0,0,0-5.491,4.209q-2.014,1.647-4.391,4.027a7.774,7.774,0,0,0,0,2.381,16.325,16.325,0,0,0,1.1,3.474,14.964,14.964,0,0,0,5.673,5.31,12.935,12.935,0,0,0,1.831.914,1.64,1.64,0,0,0,.732.182.528.528,0,0,1,.366.187h.366a15.95,15.95,0,0,0,4.027-.187,38.833,38.833,0,0,0,8.42-2.926,65.951,65.951,0,0,0,15.373-9.882,56.271,56.271,0,0,0,6.587-6.59,29.316,29.316,0,0,0,4.941-7.5q.732-1.461,2.015-.914m-36.422-30.2q-4.938,10.979-9.7,23.609A176.638,176.638,0,0,0,321.042,57.1q4.393-5.308,8.238-10.8a131.018,131.018,0,0,0,6.953-11.349,83.08,83.08,0,0,0,4.941-12.263,11.478,11.478,0,0,0,.917-3.111l.366-1.467a5.879,5.879,0,0,0,.366-1.646q.549-2.742.548-3.111a22.158,22.158,0,0,0,.184-2.744,2.938,2.938,0,0,1-.184-.914,10.555,10.555,0,0,0-4.393,2.926,52.747,52.747,0,0,0-7.87,10.251,213.734,213.734,0,0,0-12.445,23.609" transform="translate(-11180.589 -539.749)"/><path d="M362.909,50.143a1.445,1.445,0,0,1-.824,2.107,1.867,1.867,0,0,0-.732.364l-.732.369-1.464.914-2.929,2.012-6.039,3.661q-6.773,4.389-12.078,7.685a16.942,16.942,0,0,1-.917,7.322,25.853,25.853,0,0,1-5.307,8.236,21.846,21.846,0,0,1-8.418,5.123,16.808,16.808,0,0,1-5.31.55,10.522,10.522,0,0,1-5.033-2.107,10.891,10.891,0,0,1-3.384-4.117,6.218,6.218,0,0,1-.732-2.747,7.669,7.669,0,0,1,.182-1.828,2.923,2.923,0,0,1,1.283-1.646,1.966,1.966,0,0,1,1.464-.55,10.71,10.71,0,0,0,1.278-.092,12.415,12.415,0,0,0,1.464-.274,19.035,19.035,0,0,0,3.113-1.28,67.565,67.565,0,0,0,6.221-2.931q3.112-1.464,6.774-3.658v-.732l-.184-.366a4.667,4.667,0,0,0-1.464-2.378,25.053,25.053,0,0,0-2.56-2.563q-6.04-5.125-6.59-5.855a21.924,21.924,0,0,1-3.113-4.211,12.261,12.261,0,0,1-.914-2.744,8.431,8.431,0,0,1-.182-3.111,12.926,12.926,0,0,1,1.1-5.125,17.051,17.051,0,0,1,2.563-4.209,36.088,36.088,0,0,1,6.408-6.59,52.849,52.849,0,0,1,7.5-4.941,28.449,28.449,0,0,1,8.97-2.929,2.837,2.837,0,0,1,1.738.182,3.452,3.452,0,0,1,1.372,1.1,4.053,4.053,0,0,1,.732,1.646v.914a1.646,1.646,0,0,1-.182.732l-.184.366a3.187,3.187,0,0,0-.366.916c-.125.244-.364.67-.732,1.28q-.187.183-1.464,2.2L340.3,35.228q-1.464,2.2-2.563,4.209-.732,1.281-1.28,2.2c-.122.364-.247.732-.366,1.1a1.427,1.427,0,0,0-.182.55.162.162,0,0,0-.184.182c0,.979-.518,1.464-1.557,1.464s-1.557-.548-1.557-1.646a7.58,7.58,0,0,0,.369-.914,1.6,1.6,0,0,1,.182-.732,9.4,9.4,0,0,1,.55-1.283l1.1-2.378q1.1-2.746,2.015-4.759.549-1.461,1.1-3.111c-.488.247-.979.488-1.464.732a33.943,33.943,0,0,0-6.224,4.025,29.72,29.72,0,0,0-5.123,5.31q-2.383,2.929-2.378,5.307v.366a4.347,4.347,0,0,0,.545,2.1,11.8,11.8,0,0,0,2.015,2.47q.366.366,6.039,5.307,2.014,1.827,3.477,3.295c.61.852,1.1,1.584,1.464,2.2a8.518,8.518,0,0,1,1.1,2.378q5.121-3.112,11.162-6.769l6.042-3.661,2.929-1.833,1.646-.914.732-.548a9.209,9.209,0,0,1,.914-.55,1.488,1.488,0,0,1,2.107.824M330.422,72.2v-.55q-2.566,1.464-4.575,2.565-3.665,2.01-6.59,3.295c-1.342.483-2.5.914-3.477,1.278q-.915.183-2.015.369a1.065,1.065,0,0,1-.732.182,4.734,4.734,0,0,0,.55,1.1,5.065,5.065,0,0,0,2.2,2.01,3.78,3.78,0,0,0,2.744.732,7.4,7.4,0,0,0,2.929-.732,19.231,19.231,0,0,0,5.307-4.393,19.377,19.377,0,0,0,3.661-5.855m-14.641-26.9a.161.161,0,0,1-.182.182Zm23.425-20.683.184.182v-.182Z" transform="translate(-11148.058 -512.569)"/></g></svg>