<svg xmlns="http://www.w3.org/2000/svg" width="315.657" height="127.069" viewBox="0 0 315.657 127.069"><defs><style>.a,.b{fill:#afa8a3;}.b{fill-rule:evenodd;}</style></defs><g transform="translate(11354.813 489.749)"><path class="a" d="M30.613,22.615q8-.295,12.843,2.095a18.759,18.759,0,0,1,7.786,7.2,12.3,12.3,0,0,1,1.222,2.726q.452,1.459.839,2.981a24.866,24.866,0,0,1,.789,5.2q.138,2.8.157,5.717l.068,13.6.1,19.819q.012,2.163-.042,4.32a2.758,2.758,0,0,1-1.7,2.8,4.825,4.825,0,0,1-1.334.325c-.467.045-.952.068-1.46.068q-1.652.012-3.177-.045a2.488,2.488,0,0,1-2.165-1.067,3.821,3.821,0,0,1-.645-2.283c-.008-.933-.01-1.864-.016-2.8L43.823,72.35l-.1-20.707q-.016-3.433-.16-6.8a16.56,16.56,0,0,0-1.174-5.775,9.7,9.7,0,0,0-3.07-4.113A15.568,15.568,0,0,0,34.6,32.5a6.663,6.663,0,0,0-1.589-.309,6.557,6.557,0,0,1-1.591-.309,9.059,9.059,0,0,0-1.969-.055,11.244,11.244,0,0,0-1.84.2,1.452,1.452,0,0,1-.886.194,2.292,2.292,0,0,0-.891.068c-1.1.26-2.137.54-3.106.841A12.021,12.021,0,0,0,20,34.357a8.107,8.107,0,0,0-.889.511,8.063,8.063,0,0,1-.883.514A17.953,17.953,0,0,0,11.8,44.942a8.91,8.91,0,0,0-.5,2.1,16.831,16.831,0,0,1-.37,2.1,2.023,2.023,0,0,0-.121,1.209,1.594,1.594,0,0,1-.123,1.08L10.7,54.1a1.959,1.959,0,0,0-.06.889,9.34,9.34,0,0,1,.068,1.143l.021,3.812.06,12.2.055,11.181c.008.931.01,1.885.016,2.857a3.932,3.932,0,0,1-.621,2.351A2.548,2.548,0,0,1,8.021,89.62c-1.059.047-2.139.071-3.24.079a13.32,13.32,0,0,1-1.908-.118,3.063,3.063,0,0,1-1.526-.627A2.615,2.615,0,0,1,.319,86.545C.314,85.36.306,84.22.3,83.116L.225,68.124.07,37.379.031,29.63C.026,28.867.023,28.1.018,27.342a2.782,2.782,0,0,1,.5-1.78,1.935,1.935,0,0,1,1.264-1.022c.338-.084.826-.173,1.46-.262a15.038,15.038,0,0,1,1.969-.136,15.566,15.566,0,0,1,1.971.115,3.451,3.451,0,0,1,1.334.375A2.313,2.313,0,0,1,9.8,26.849a7.765,7.765,0,0,0,.4,2.983A2.419,2.419,0,0,0,11.22,31.1a2.648,2.648,0,0,0,2.469-1.156A9.961,9.961,0,0,1,15.65,27.9q1.77-1.282,3.607-2.37A20.758,20.758,0,0,1,23.5,23.666a9,9,0,0,1,2.22-.519,19.863,19.863,0,0,0,2.349-.393,6.705,6.705,0,0,1,1.269-.134c.422,0,.844-.005,1.271-.005" transform="translate(-11354.783 -453.133)"/><path class="a" d="M84.559,84.559a4.607,4.607,0,0,1-2.388,5.348,3.585,3.585,0,0,1-1.332.26,4.575,4.575,0,0,0-1.46.262,9.862,9.862,0,0,1-5.529-.288,7.639,7.639,0,0,1-3.759-2.333,10.473,10.473,0,0,1-1.153-2.092,6.1,6.1,0,0,0-1.279-1.961c-.176-.168-.364-.338-.577-.506a.916.916,0,0,0-.826-.123,6.763,6.763,0,0,0-2.6,1.41,26.4,26.4,0,0,1-2.341,1.793,28.257,28.257,0,0,1-3.547,1.859,35.279,35.279,0,0,1-4.061,1.481,13.43,13.43,0,0,1-2.729.522c-.975.087-1.924.22-2.855.4a5.566,5.566,0,0,1-1.08.131l-.952.005a6.982,6.982,0,0,1-2.669.013l-1.143.008a6.33,6.33,0,0,0-1.271-.121,2.518,2.518,0,0,1-1.146-.249,1.915,1.915,0,0,0-.826-.06,1.355,1.355,0,0,1-.7-.058c-.682-.168-1.358-.312-2.037-.435a9.113,9.113,0,0,1-1.908-.561,22.863,22.863,0,0,1-6.181-3.717,15.5,15.5,0,0,1-3.9-5.888,17.788,17.788,0,0,1-1.177-6.729l-.013-2.666c.079-.422.142-.868.184-1.337s.1-.952.181-1.463q.5-1.4,1-2.8a11.693,11.693,0,0,1,1.258-2.545,13.93,13.93,0,0,1,6.2-5.495A68.364,68.364,0,0,1,40.568,53.4a26.023,26.023,0,0,1,3.681-.779q1.9-.263,3.809-.655a6.281,6.281,0,0,1,1.714-.262,7.681,7.681,0,0,0,1.84-.265,9.165,9.165,0,0,1,1.777-.328,10.862,10.862,0,0,0,1.9-.328q3.169-.775,5.964-1.361A7.046,7.046,0,0,0,65.69,46.54a8.891,8.891,0,0,0,1.258-2.614,6.157,6.157,0,0,0-.018-3.492,12.163,12.163,0,0,0-2.249-4.816,9.639,9.639,0,0,0-4.145-2.776,13.885,13.885,0,0,0-3.623-.87,36.363,36.363,0,0,0-4.383-.233,38.341,38.341,0,0,0-4.449.278A18.846,18.846,0,0,0,44.4,32.8a17.767,17.767,0,0,0-4.181,2.181,8.2,8.2,0,0,0-1.832,1.979,17.176,17.176,0,0,0-1.45,2.611c-.249.679-.48,1.4-.687,2.163a3.145,3.145,0,0,1-1.2,1.785,3.991,3.991,0,0,1-1.712.579,16.147,16.147,0,0,1-4.957.026,4.021,4.021,0,0,1-1.717-.564,2.335,2.335,0,0,1-.768-1.266,3.609,3.609,0,0,1-.008-1.906c.249-1.1.516-2.142.81-3.117A23.407,23.407,0,0,1,27.767,34.4a19.1,19.1,0,0,1,6.064-6.952A31.446,31.446,0,0,1,42.956,23.4q1.27-.26,2.6-.4t2.732-.4a6.329,6.329,0,0,1,1.649-.071c.763.042,1.229-.026,1.4-.2A47.9,47.9,0,0,1,66.849,24.3a14.574,14.574,0,0,1,9.317,8.211,16.621,16.621,0,0,1,1.363,5.9q.208,3.37.225,7.052L77.9,73.538q.008,1.781.144,3.429a5.818,5.818,0,0,0,.776,2.663,3.453,3.453,0,0,0,1.659,1.261,9.547,9.547,0,0,0,2.163.689,2.094,2.094,0,0,1,1.531,1.2,1.357,1.357,0,0,1,.257.76,5.411,5.411,0,0,0,.134,1.017M66.319,70.547a11.21,11.21,0,0,0,.8-4.131q.047-2.351.039-4.892a24.573,24.573,0,0,0-.139-2.543A2.425,2.425,0,0,0,66,57.209a3.836,3.836,0,0,0-1.78-.246,1.225,1.225,0,0,1-.886.26,2.529,2.529,0,0,0-1.143.26c-.679.176-1.439.346-2.283.519s-1.693.349-2.538.522a5.932,5.932,0,0,0-.826.068,6.838,6.838,0,0,1-.954.068,17.953,17.953,0,0,1-4.124.592,18.248,18.248,0,0,0-4.129.592q-1.015.26-1.838.456t-1.843.454a21.947,21.947,0,0,0-3.8,1.607,11.218,11.218,0,0,0-3.036,2.365A9.015,9.015,0,0,0,34.927,68.1a13.488,13.488,0,0,0-.485,4.769,6.086,6.086,0,0,0,.456,2.346,9.643,9.643,0,0,0,1.091,1.964,8.424,8.424,0,0,0,2.682,2.338,19.431,19.431,0,0,0,3.563,1.57,6.325,6.325,0,0,0,1.271.118,6.545,6.545,0,0,1,1.271.121A9.52,9.52,0,0,0,47,81.633a6.889,6.889,0,0,0,2.223-.2,3.794,3.794,0,0,1,1.52-.2,3.742,3.742,0,0,0,1.526-.2,18.051,18.051,0,0,1,1.966-.388,7.025,7.025,0,0,0,1.84-.519,24.276,24.276,0,0,0,6.268-3.717,13.7,13.7,0,0,0,3.974-5.864" transform="translate(-11317.32 -453.537)"/><path class="a" d="M59.672,15.323c1.269-.005,2.543.008,3.814.045a3.289,3.289,0,0,1,2.671,1.064,3.486,3.486,0,0,1,.71,2.095c.045.889.071,1.8.076,2.732l.037,7.369c.005.679-.013,1.376-.05,2.1a4.793,4.793,0,0,0,.2,1.84,3.126,3.126,0,0,0,2.3,2.275,6.012,6.012,0,0,0,1.208.121l1.209-.008c.931-.005,2.074-.029,3.426-.079a7.5,7.5,0,0,1,2.926.3,4.324,4.324,0,0,1,1.531,1.515,2.555,2.555,0,0,1,.262,1.143c0,.425,0,.849.005,1.271a25.247,25.247,0,0,1-.115,2.6A2.648,2.648,0,0,1,79,43.559a3.454,3.454,0,0,1-2.092.708c-.889.047-1.825.052-2.8.013s-1.929-.055-2.86-.05a6.88,6.88,0,0,0-2.409.393A2.335,2.335,0,0,0,67.576,45.9a7.2,7.2,0,0,0-.5,2.1,16.232,16.232,0,0,0-.05,2.54c.045.891.068,1.759.076,2.606L67.232,78.3q.012,2.8-.031,5.906a8.025,8.025,0,0,0,1.1,4.758,3.3,3.3,0,0,0,1.659,1.392,14.388,14.388,0,0,0,2.417.621,1.74,1.74,0,0,0,.828.058,1.921,1.921,0,0,1,.826.06l1.652-.008a13.782,13.782,0,0,1,2.351.178,2.289,2.289,0,0,1,1.594.946,4.136,4.136,0,0,1,.451,1.329,14.953,14.953,0,0,1,.262,1.969,10.416,10.416,0,0,1-.052,1.969,3.152,3.152,0,0,1-.5,1.465,2.944,2.944,0,0,1-1.9,1.279,7.609,7.609,0,0,1-2.286.2c-.849-.034-1.61-.052-2.286-.05q-.763,0-1.526.071a4.967,4.967,0,0,1-1.4-.055l-1.526.008c-.425-.084-.826-.144-1.206-.189a11.809,11.809,0,0,0-1.209-.055,31.322,31.322,0,0,1-4.391-1.376,6.905,6.905,0,0,1-3.125-2.65,12.39,12.39,0,0,1-2.066-6.41q-.275-3.869-.3-8.315l-.168-33.288a16.863,16.863,0,0,0-.71-2.412,2.832,2.832,0,0,0-1.848-1.261,2.119,2.119,0,0,0-1.017.005,1.44,1.44,0,0,1-1.02-.121l-2.032.01a9.772,9.772,0,0,1-2.729-.3,2.121,2.121,0,0,1-1.471-1.455,3.246,3.246,0,0,1-.325-1.14c-.045-.422-.066-.847-.068-1.271a14.857,14.857,0,0,1,.239-2.986,2.622,2.622,0,0,1,1.518-1.848,8.078,8.078,0,0,1,3.618-.275,8.734,8.734,0,0,0,3.746-.27A4.493,4.493,0,0,0,56.075,33a6.047,6.047,0,0,0,.246-1.908c0-.76-.008-1.479-.01-2.16l-.039-7.875q-.008-1.015-.01-2.1a5.793,5.793,0,0,1,.244-1.843,3.746,3.746,0,0,1,1.9-1.662,3.4,3.4,0,0,0,.7-.068,2.986,2.986,0,0,1,.571-.066" transform="translate(-11281.541 -464.907)"/><path class="a" d="M64.06,22.966q1.777-.008,3.683-.018a3.13,3.13,0,0,1,2.671,1,5.156,5.156,0,0,1,.713,2.538q.071,1.526.081,3.049l.06,12.069.1,19.187q.016,2.8.029,5.78a18.306,18.306,0,0,0,.661,5.141,12.974,12.974,0,0,0,7.663,7.967,14.64,14.64,0,0,0,6.737.792A20.92,20.92,0,0,0,92.8,79.1a18.61,18.61,0,0,0,6.645-4.543,19.006,19.006,0,0,0,3.84-7.2,8.878,8.878,0,0,0,.5-2.037q.122-1.018.372-2.163a3.7,3.7,0,0,0,.058-1.146,2.316,2.316,0,0,1,.184-1.143l-.013-2.666a7.015,7.015,0,0,0,.115-2.351c-.087-.889-.134-1.714-.136-2.477l-.052-9.909-.068-13.467q-.008-1.526-.081-3.24a4.742,4.742,0,0,1,.561-2.734,2.291,2.291,0,0,1,1.2-.831c.464-.128,1.035-.28,1.714-.451l1.906-.01a26.17,26.17,0,0,1,2.732.113,2.359,2.359,0,0,1,1.848,1.132,2.515,2.515,0,0,1,.642,1.838q.008,1.211.013,2.48l.045,8.638L115,71.115l.058,11.435c.005,1.015-.013,1.966-.047,2.855a2.433,2.433,0,0,1-.944,1.977,3.709,3.709,0,0,1-1.523.579,17.022,17.022,0,0,1-2.22.265,13.405,13.405,0,0,1-2.289-.052,3.283,3.283,0,0,1-1.589-.5,4.289,4.289,0,0,1-1.153-1.646,8.438,8.438,0,0,1-.2-1.4c-.045-.587-.11-1.161-.2-1.712a2.915,2.915,0,0,0-.514-1.332,1.1,1.1,0,0,0-1.146-.375,4.135,4.135,0,0,0-2.026,1.471,10.635,10.635,0,0,1-1.9,1.851,32.441,32.441,0,0,1-6.334,3.591,10.139,10.139,0,0,1-2.855.841,26.011,26.011,0,0,0-2.983.585,3.51,3.51,0,0,1-1.334.005,2.368,2.368,0,0,0-1.332.136,5.17,5.17,0,0,1-2.286.01l-1.271.008a3.961,3.961,0,0,0-1.463-.249,7.41,7.41,0,0,1-1.463-.121,1.6,1.6,0,0,0-.954-.184,2.169,2.169,0,0,1-1.08-.184c-.679-.168-1.334-.333-1.971-.5a10.218,10.218,0,0,1-1.974-.752A16.045,16.045,0,0,1,66.464,84a18.734,18.734,0,0,1-3.649-5.634,11.584,11.584,0,0,1-.776-2.349c-.173-.8-.346-1.628-.519-2.472a3.481,3.481,0,0,1-.2-1.463,4.462,4.462,0,0,0-.2-1.586,1.613,1.613,0,0,1-.128-.7,2.609,2.609,0,0,0-.131-.826L60.856,67.7a3.517,3.517,0,0,1-.071-1.206c.039-.464.058-.91.055-1.332l-.024-5.083L60.7,36.706l-.039-8.132c-.005-.763-.008-1.523-.013-2.286a3.375,3.375,0,0,1,.5-1.908,2.944,2.944,0,0,1,1.9-1.279.739.739,0,0,1,.509-.068.7.7,0,0,0,.509-.066" transform="translate(-11256.479 -452.881)"/><path class="a" d="M115.56,22.068q2.918-.012,3.308,1.444a17.94,17.94,0,0,1,.406,4.252c0,.849.008,1.652.008,2.414a2.9,2.9,0,0,1-.621,1.911,2.709,2.709,0,0,1-2.157,1.088,12.88,12.88,0,0,0-2.792.459q-1.781.389-3.363.779a16.6,16.6,0,0,0-2.978,1.033,15.694,15.694,0,0,0-5.951,4.54,30.292,30.292,0,0,0-3.906,6.562,16.753,16.753,0,0,0-.747,2.865q-.248,1.463-.619,2.988a4.135,4.135,0,0,0-.058,1.269,4.316,4.316,0,0,1-.058,1.271,12.828,12.828,0,0,0-.3,3.5q.075,1.966.081,3.746l.081,15.627c.008.933.01,1.906.016,2.923s-.034,1.992-.113,2.923a16.054,16.054,0,0,0-.052,2.412,2.439,2.439,0,0,1-.561,1.783,2.571,2.571,0,0,1-1.966,1.025c-.883.092-1.84.136-2.857.144l-2.283.01c-.43-.168-.831-.315-1.209-.438a1.494,1.494,0,0,1-.828-.569,4.024,4.024,0,0,1-.713-2.22q-.075-1.329-.079-2.732L85.2,73.295,85.019,38.1l-.042-8.766c0-.931.01-1.8.05-2.606a3.878,3.878,0,0,1,.687-2.1,2.386,2.386,0,0,1,1.332-.768,10.6,10.6,0,0,1,2.092-.328,13.62,13.62,0,0,1,2.289.052,7.1,7.1,0,0,1,1.783.372,2.112,2.112,0,0,1,1.342,1.452,8.327,8.327,0,0,1,.328,2.283q.008,1.211.01,2.543a5.241,5.241,0,0,0,.519,2.346,1.524,1.524,0,0,0,.26.383c.081.084.21.21.383.377a2.715,2.715,0,0,0,2.278-1.219c.592-.807,1.093-1.465,1.515-1.977l.76-.765a18.4,18.4,0,0,1,3.161-2.939,18.845,18.845,0,0,1,3.8-2.3,9.834,9.834,0,0,1,2.409-.965c.844-.215,1.735-.454,2.663-.713q.763-.13,1.526-.2a11.959,11.959,0,0,0,1.4-.2" transform="translate(-11217.023 -453.967)"/><path class="a" d="M157.649,53.42a9.293,9.293,0,0,1,.076,2.857,3.771,3.771,0,0,1-.815,2.226,3.855,3.855,0,0,1-1.838.708,17.354,17.354,0,0,1-2.732.207c-1.017.005-2.032-.01-3.049-.047s-1.906-.055-2.669-.052l-32.522.165c-.679,0-1.358.029-2.034.073a3.632,3.632,0,0,0-1.649.454,2.879,2.879,0,0,0-1.012,1.022,5.126,5.126,0,0,0-.5,1.083,1.778,1.778,0,0,0,.008,1.334,6.143,6.143,0,0,1,.128,1.14,4.217,4.217,0,0,0,.134,1.017c.173.679.346,1.374.522,2.095a9.4,9.4,0,0,0,.771,2.092,17.91,17.91,0,0,0,9.707,9.734,9.679,9.679,0,0,0,1.652.627c.592.165,1.188.333,1.783.5a4.446,4.446,0,0,0,1.271.121,21.976,21.976,0,0,0,9.4-.047q1.777-.515,3.235-1.1a12.9,12.9,0,0,0,2.724-1.476,10.448,10.448,0,0,0,2.4-2.108,15.609,15.609,0,0,0,1.767-2.614,19.49,19.49,0,0,0,1.321-2.674,3.722,3.722,0,0,1,1.958-2.045,5.369,5.369,0,0,1,1.649-.388,13.889,13.889,0,0,1,2.286-.073c.765.037,1.484.1,2.16.178a2.433,2.433,0,0,1,1.4.5q1.27.885.65,2.918a25.011,25.011,0,0,1-2.637,6.113,24,24,0,0,1-13.92,10.995,11.364,11.364,0,0,1-2.538.713q-1.27.2-2.666.456a5.874,5.874,0,0,1-1.206.134,6.263,6.263,0,0,0-1.206.134l-1.269.008a8.006,8.006,0,0,1-1.463.136,5.752,5.752,0,0,1-1.334-.123l-1.143.008a5.975,5.975,0,0,0-1.143-.123,4.219,4.219,0,0,1-1.02-.121,11.464,11.464,0,0,0-1.4-.184,12.618,12.618,0,0,1-1.4-.186c-.763-.163-1.526-.351-2.289-.558s-1.484-.438-2.163-.687a3.3,3.3,0,0,0-.891-.315,3.235,3.235,0,0,1-.891-.309q-1.911-.885-4.076-2.142a24.5,24.5,0,0,1-6.318-5.875,35.558,35.558,0,0,1-4.42-7.794,13.5,13.5,0,0,1-.97-2.915,27.468,27.468,0,0,0-.841-3.046,3.933,3.933,0,0,1-.134-.889,5.819,5.819,0,0,0-.128-1.017,15.938,15.938,0,0,1-.4-2.158,22.347,22.347,0,0,0-.391-2.283l-.01-1.78a8.992,8.992,0,0,1-.2-1.458A6.171,6.171,0,0,1,97.433,55l-.005-1.4a2.833,2.833,0,0,0,.181-1.334,4.689,4.689,0,0,1,.058-1.334q.5-2.033.8-4.069a15.694,15.694,0,0,1,1.064-3.817q.621-1.4,1.19-2.865a24.951,24.951,0,0,1,1.321-2.865,36.734,36.734,0,0,1,6.31-7.718,29.837,29.837,0,0,1,8.74-5.445,16.568,16.568,0,0,1,3.106-.967c1.059-.215,2.178-.456,3.366-.716q.633-.13,1.14-.2a9.745,9.745,0,0,1,1.143-.071.847.847,0,0,1,.634,0,.569.569,0,0,0,.634-.128A29.383,29.383,0,0,1,136.4,23.1a28.688,28.688,0,0,1,7.13,3.2,2.548,2.548,0,0,1,1.02.692,2.843,2.843,0,0,0,.9.695,25.516,25.516,0,0,1,2.1,1.767,16.186,16.186,0,0,1,1.851,2.024,48.884,48.884,0,0,1,3.458,5.065,12.417,12.417,0,0,1,1.413,3.044c.343,1.1.731,2.2,1.159,3.3a18.659,18.659,0,0,1,.973,3.426,34.71,34.71,0,0,0,.844,3.552c.084.6.152,1.188.2,1.777s.11,1.188.2,1.78M145.3,49.163a4.46,4.46,0,0,0,.624-1.34,2.94,2.94,0,0,0-.008-1.714,21.7,21.7,0,0,0-2.186-5.2,23.638,23.638,0,0,0-3.961-4.936,18.027,18.027,0,0,0-5.607-3.4c-.6-.165-1.19-.312-1.783-.435s-1.229-.267-1.908-.435a8.844,8.844,0,0,0-2.16-.241l-2.16.008a1.247,1.247,0,0,1-.889.2,2.021,2.021,0,0,0-.889.068q-1.018.26-1.966.454c-.634.131-1.245.283-1.843.456a17.28,17.28,0,0,0-5.885,3.84,23.881,23.881,0,0,0-3.974,5.738,12.029,12.029,0,0,0-.755,1.589,13.237,13.237,0,0,0-.621,2.1,6.172,6.172,0,0,0-.118,2.16,2.026,2.026,0,0,0,.9,1.52,5.748,5.748,0,0,0,3.5.679q2.477-.075,4.257-.084l19.31-.1q1.907-.008,4.575.042t3.555-.97" transform="translate(-11196.954 -453.998)"/><path class="a" d="M39.388,34.814a7.567,7.567,0,0,1,.034,1.916,17.4,17.4,0,0,1-.233,1.851c-.087.443-.176.86-.265,1.258a7.927,7.927,0,0,1-.33,1.125,12.621,12.621,0,0,1-4.3,5.421,13.584,13.584,0,0,1-2.414,1.358,27.959,27.959,0,0,1-2.745,1.022,6.812,6.812,0,0,1-1.52.364c-.53.066-1.038.144-1.523.231a2.99,2.99,0,0,1-.627.068,3.149,3.149,0,0,0-.629.066,1.193,1.193,0,0,1-.561,0,1.025,1.025,0,0,0-.629.068,1.607,1.607,0,0,1-.564.031,5.927,5.927,0,0,0-.627-.031H3.146a14.5,14.5,0,0,1-1.885-.1A1.328,1.328,0,0,1,.17,48.569a4.528,4.528,0,0,1-.165-1.62q.035-1.093.034-1.819V6.308q0-.794-.034-1.686A2.466,2.466,0,0,1,.3,3.2a1.533,1.533,0,0,1,.994-.663.376.376,0,0,1,.265-.031.379.379,0,0,0,.265-.034H21.533c.307,0,.616-.01.925-.031a3.552,3.552,0,0,1,.86.031,1.127,1.127,0,0,0,.661.066,1.75,1.75,0,0,1,.661,0h.4a2.031,2.031,0,0,0,.826.1,2.584,2.584,0,0,1,.891.1,9.19,9.19,0,0,0,1.028.2,10.153,10.153,0,0,1,1.025.2q1.254.464,2.38.894a9.164,9.164,0,0,1,2.05,1.091,7.824,7.824,0,0,1,2.181,2.315,12.945,12.945,0,0,1,1.389,3.175,4.617,4.617,0,0,1,.168.925,5.878,5.878,0,0,0,.163.994,1.433,1.433,0,0,1,.034.527,1.46,1.46,0,0,0,.031.532,1.126,1.126,0,0,1,.034.493,1.345,1.345,0,0,1-.1.433v.6a3.966,3.966,0,0,1-.031.461,3.223,3.223,0,0,0-.034.4,4.432,4.432,0,0,0-.165.828,2.49,2.49,0,0,1-.165.695,11.538,11.538,0,0,1-2.249,3.9,5.536,5.536,0,0,1-.991.794,3.385,3.385,0,0,0-.925.86,2.9,2.9,0,0,0-.3.364.549.549,0,0,0-.031.561,1.449,1.449,0,0,0,.857.894q.727.362,1.258.692a11.015,11.015,0,0,1,2.91,2.779,12.111,12.111,0,0,1,1.652,3.57A4.623,4.623,0,0,1,39.189,33a8.528,8.528,0,0,0,.2,1.091ZM10.62,11.137a1.943,1.943,0,0,0-.33,1.156v4.994c0,.309-.01.629-.034.959a3.119,3.119,0,0,0,.034.826v.663c.089.262.152.5.2.692a2.28,2.28,0,0,0,.2.564,1.425,1.425,0,0,0,.826.461,6.781,6.781,0,0,0,1.256.165c.467.024.938.024,1.423,0s.928-.031,1.324-.031c.663,0,1.355.01,2.081.031s1.458.034,2.184.034,1.423-.034,2.084-.1a7.3,7.3,0,0,0,1.72-.364,5.3,5.3,0,0,0,2.975-2.315,5.968,5.968,0,0,0,.6-2.249,6.046,6.046,0,0,0-.661-3.539,5.325,5.325,0,0,0-2.317-2.016,7.8,7.8,0,0,0-.857-.231c-.309-.068-.64-.144-.994-.233a3.65,3.65,0,0,0-.792-.066,6.734,6.734,0,0,0-1.819-.165c-.684.021-1.334.034-1.953.034H12.14a.653.653,0,0,1-.3.063.633.633,0,0,0-.3.068,1.609,1.609,0,0,0-.928.6M29.138,35.871a5.606,5.606,0,0,0-.1-1.984,7.362,7.362,0,0,0-.5-1.586A5.578,5.578,0,0,0,24.9,28.992a10.649,10.649,0,0,0-2.48-.4c-.9-.045-1.843-.066-2.81-.066H12.14c-.089.087-.165.121-.231.1a.773.773,0,0,0-.233-.031,1.6,1.6,0,0,0-1.056.661,2.529,2.529,0,0,0-.33,1.358v7.44c0,.527.01,1.07.031,1.62a2.375,2.375,0,0,0,.364,1.29,1.619,1.619,0,0,0,.862.5,6.087,6.087,0,0,0,1.355.2q.759.031,1.552,0c.53-.024.991-.034,1.389-.034q1.986,0,3.835.034a22.473,22.473,0,0,0,3.5-.2,11.311,11.311,0,0,0,2.944-.794,4.431,4.431,0,0,0,2.611-2.975c.134-.464.265-.936.4-1.421Z" transform="translate(-11354.813 -485.811)"/><path class="a" d="M49.408,24.723a2.765,2.765,0,0,1,0,1.193,1.24,1.24,0,0,1-.464.86,2.032,2.032,0,0,1-.959.362,12.212,12.212,0,0,1-1.387.134q-.763.031-1.52,0c-.509-.024-.959-.034-1.355-.034H26.693a2.022,2.022,0,0,0-.763.134,1.428,1.428,0,0,0-.661.527,1.385,1.385,0,0,0-.265.5,1.261,1.261,0,0,0-.066.695,3.545,3.545,0,0,1,.165.76,3.282,3.282,0,0,0,.165.76,9.256,9.256,0,0,0,1.29,2.611,7.029,7.029,0,0,0,2.081,1.819,3.013,3.013,0,0,0,1.093.43,7.916,7.916,0,0,1,1.156.3,8.884,8.884,0,0,0,1.455.2,5.972,5.972,0,0,0,1.589-.066h.592c.443-.089.849-.186,1.224-.3s.739-.233,1.091-.364a15.822,15.822,0,0,0,1.489-.86,4.661,4.661,0,0,0,1.224-1.059q.33-.464.695-.891a2.1,2.1,0,0,1,.894-.629,3.5,3.5,0,0,1,1.683-.3q1.026.035,1.887.034c.265,0,.54-.01.826-.034a1.72,1.72,0,0,1,.76.1h.663a2.467,2.467,0,0,1,.925.33.666.666,0,0,1,.3.6,1.782,1.782,0,0,1-.1.794,11.5,11.5,0,0,1-.726,1.654,13.583,13.583,0,0,1-.925,1.455,13.369,13.369,0,0,1-3.306,3.5,17.469,17.469,0,0,1-4.63,2.247,5.746,5.746,0,0,1-1.455.333,9.582,9.582,0,0,0-1.523.265,1.731,1.731,0,0,1-.564.034,1.532,1.532,0,0,0-.561.031h-.726a1.69,1.69,0,0,1-.763.1,7.163,7.163,0,0,1-.758-.1,3.22,3.22,0,0,0-.928,0,1.992,1.992,0,0,1-.857-.066,1.928,1.928,0,0,0-.729-.134,1.98,1.98,0,0,1-.729-.131q-.727-.134-1.455-.3a4.873,4.873,0,0,1-1.321-.5q-.731-.263-1.355-.5a6.167,6.167,0,0,1-1.159-.564,18.98,18.98,0,0,1-3.77-3.075,14.872,14.872,0,0,1-2.711-4.066,8.841,8.841,0,0,1-.53-1.489,11.719,11.719,0,0,0-.53-1.555,2,2,0,0,1-.066-.5,2.166,2.166,0,0,0-.066-.5,6.924,6.924,0,0,1-.333-1.72l-.131-1.851c0-.22-.01-.464-.031-.729a2.523,2.523,0,0,1,.031-.726v-.794l.2-1.589c.176-.747.333-1.476.464-2.181a9.7,9.7,0,0,1,.6-1.984,17.294,17.294,0,0,1,9.655-9.721,8.376,8.376,0,0,1,1.887-.564c.637-.11,1.311-.252,2.016-.43a8.452,8.452,0,0,1,.994-.066,7.5,7.5,0,0,0,.991-.068,17.062,17.062,0,0,1,5.788.76A17.726,17.726,0,0,1,42.4,9.977a13.054,13.054,0,0,1,1.19.894,9.618,9.618,0,0,1,1.059,1.022,1.478,1.478,0,0,0,.527.53c.354.485.684.983.994,1.489s.637,1.025.991,1.555a8.847,8.847,0,0,1,.564,1.222c.152.419.32.87.5,1.355a12.14,12.14,0,0,1,.53,1.788c.131.616.286,1.235.461,1.851a3.84,3.84,0,0,1,.1,1.159,3.815,3.815,0,0,0,.1,1.156Zm-9.92-3.9a1.661,1.661,0,0,0,.1-1.62c-.244-.64-.43-1.112-.564-1.423a6.981,6.981,0,0,0-2.446-2.745,8.357,8.357,0,0,0-4.234-1.022.547.547,0,0,1-.461.066.818.818,0,0,0-.464,0,2.555,2.555,0,0,1-.729.165,2.628,2.628,0,0,0-.726.165,7.066,7.066,0,0,0-4.3,3.636,7.234,7.234,0,0,0-.3.7,4.171,4.171,0,0,0-.233.857,2.085,2.085,0,0,0,.034.828,1.2,1.2,0,0,0,.43.661,2.712,2.712,0,0,0,1.455.33H36.18q.928,0,1.953-.034a1.539,1.539,0,0,0,1.355-.561" transform="translate(-11329.781 -478.302)"/><path class="b" d="M108.63.112a.766.766,0,0,1,.294,1.458c-3.964,1.861-7.275,7.2-9.5,18C96.681,32.838,85.487,38.1,76.849,36.432a47.2,47.2,0,0,0-.742,7.264,3.619,3.619,0,0,1-3.626,3.536h-.055a3.649,3.649,0,0,1-3.612-4.019,35.775,35.775,0,0,1,16.2-26.98,34.733,34.733,0,0,0-14.51,10.381,2.364,2.364,0,0,1-4.171-1.269l-.005-.058C64.371,6.6,86.806-1.031,108.63.112M27.985,17.267a.653.653,0,0,1,.252-1.243c18.592-.975,37.708,5.529,36.04,21.449a1.582,1.582,0,0,1-2.92.64,29.2,29.2,0,0,0-13-9.658,31.232,31.232,0,0,1,10.711,12,4.469,4.469,0,0,1-2.682,6.273c-7.471,2.108-17.855-2.26-20.3-14.125-1.9-9.2-4.719-13.75-8.1-15.333" transform="translate(-11310.043 -489.749)"/></g></svg>